<?xml version="1.0" encoding="UTF-8" standalone="yes"?>
<!DOCTYPE svg PUBLIC "-//W3C//DTD SVG 1.0//EN" "http://www.w3.org/TR/2001/REC-SVG-20010904/DTD/svg10.dtd">
<svg width="530" height="530" xmlns="http://www.w3.org/2000/svg" xmlns:xlink="http://www.w3.org/1999/xlink">
<g id="quickmark" fill="black" transform="translate(40,40)">
<rect x="0" y="0" width="10" height="10"/>
<rect x="10" y="0" width="10" height="10"/>
<rect x="20" y="0" width="10" height="10"/>
<rect x="30" y="0" width="10" height="10"/>
<rect x="40" y="0" width="10" height="10"/>
<rect x="50" y="0" width="10" height="10"/>
<rect x="60" y="0" width="10" height="10"/>
<rect x="90" y="0" width="10" height="10"/>
<rect x="110" y="0" width="10" height="10"/>
<rect x="120" y="0" width="10" height="10"/>
<rect x="130" y="0" width="10" height="10"/>
<rect x="140" y="0" width="10" height="10"/>
<rect x="150" y="0" width="10" height="10"/>
<rect x="180" y="0" width="10" height="10"/>
<rect x="190" y="0" width="10" height="10"/>
<rect x="210" y="0" width="10" height="10"/>
<rect x="240" y="0" width="10" height="10"/>
<rect x="260" y="0" width="10" height="10"/>
<rect x="290" y="0" width="10" height="10"/>
<rect x="300" y="0" width="10" height="10"/>
<rect x="310" y="0" width="10" height="10"/>
<rect x="330" y="0" width="10" height="10"/>
<rect x="360" y="0" width="10" height="10"/>
<rect x="380" y="0" width="10" height="10"/>
<rect x="390" y="0" width="10" height="10"/>
<rect x="400" y="0" width="10" height="10"/>
<rect x="410" y="0" width="10" height="10"/>
<rect x="420" y="0" width="10" height="10"/>
<rect x="430" y="0" width="10" height="10"/>
<rect x="440" y="0" width="10" height="10"/>
<rect x="0" y="10" width="10" height="10"/>
<rect x="60" y="10" width="10" height="10"/>
<rect x="90" y="10" width="10" height="10"/>
<rect x="100" y="10" width="10" height="10"/>
<rect x="120" y="10" width="10" height="10"/>
<rect x="180" y="10" width="10" height="10"/>
<rect x="200" y="10" width="10" height="10"/>
<rect x="210" y="10" width="10" height="10"/>
<rect x="300" y="10" width="10" height="10"/>
<rect x="320" y="10" width="10" height="10"/>
<rect x="330" y="10" width="10" height="10"/>
<rect x="350" y="10" width="10" height="10"/>
<rect x="380" y="10" width="10" height="10"/>
<rect x="440" y="10" width="10" height="10"/>
<rect x="0" y="20" width="10" height="10"/>
<rect x="20" y="20" width="10" height="10"/>
<rect x="30" y="20" width="10" height="10"/>
<rect x="40" y="20" width="10" height="10"/>
<rect x="60" y="20" width="10" height="10"/>
<rect x="90" y="20" width="10" height="10"/>
<rect x="120" y="20" width="10" height="10"/>
<rect x="160" y="20" width="10" height="10"/>
<rect x="170" y="20" width="10" height="10"/>
<rect x="180" y="20" width="10" height="10"/>
<rect x="190" y="20" width="10" height="10"/>
<rect x="210" y="20" width="10" height="10"/>
<rect x="230" y="20" width="10" height="10"/>
<rect x="240" y="20" width="10" height="10"/>
<rect x="250" y="20" width="10" height="10"/>
<rect x="270" y="20" width="10" height="10"/>
<rect x="280" y="20" width="10" height="10"/>
<rect x="290" y="20" width="10" height="10"/>
<rect x="300" y="20" width="10" height="10"/>
<rect x="310" y="20" width="10" height="10"/>
<rect x="320" y="20" width="10" height="10"/>
<rect x="350" y="20" width="10" height="10"/>
<rect x="380" y="20" width="10" height="10"/>
<rect x="400" y="20" width="10" height="10"/>
<rect x="410" y="20" width="10" height="10"/>
<rect x="420" y="20" width="10" height="10"/>
<rect x="440" y="20" width="10" height="10"/>
<rect x="0" y="30" width="10" height="10"/>
<rect x="20" y="30" width="10" height="10"/>
<rect x="30" y="30" width="10" height="10"/>
<rect x="40" y="30" width="10" height="10"/>
<rect x="60" y="30" width="10" height="10"/>
<rect x="90" y="30" width="10" height="10"/>
<rect x="100" y="30" width="10" height="10"/>
<rect x="120" y="30" width="10" height="10"/>
<rect x="160" y="30" width="10" height="10"/>
<rect x="170" y="30" width="10" height="10"/>
<rect x="180" y="30" width="10" height="10"/>
<rect x="200" y="30" width="10" height="10"/>
<rect x="220" y="30" width="10" height="10"/>
<rect x="230" y="30" width="10" height="10"/>
<rect x="280" y="30" width="10" height="10"/>
<rect x="290" y="30" width="10" height="10"/>
<rect x="310" y="30" width="10" height="10"/>
<rect x="350" y="30" width="10" height="10"/>
<rect x="360" y="30" width="10" height="10"/>
<rect x="380" y="30" width="10" height="10"/>
<rect x="400" y="30" width="10" height="10"/>
<rect x="410" y="30" width="10" height="10"/>
<rect x="420" y="30" width="10" height="10"/>
<rect x="440" y="30" width="10" height="10"/>
<rect x="0" y="40" width="10" height="10"/>
<rect x="20" y="40" width="10" height="10"/>
<rect x="30" y="40" width="10" height="10"/>
<rect x="40" y="40" width="10" height="10"/>
<rect x="60" y="40" width="10" height="10"/>
<rect x="80" y="40" width="10" height="10"/>
<rect x="100" y="40" width="10" height="10"/>
<rect x="110" y="40" width="10" height="10"/>
<rect x="120" y="40" width="10" height="10"/>
<rect x="130" y="40" width="10" height="10"/>
<rect x="150" y="40" width="10" height="10"/>
<rect x="160" y="40" width="10" height="10"/>
<rect x="180" y="40" width="10" height="10"/>
<rect x="190" y="40" width="10" height="10"/>
<rect x="200" y="40" width="10" height="10"/>
<rect x="210" y="40" width="10" height="10"/>
<rect x="220" y="40" width="10" height="10"/>
<rect x="230" y="40" width="10" height="10"/>
<rect x="240" y="40" width="10" height="10"/>
<rect x="270" y="40" width="10" height="10"/>
<rect x="310" y="40" width="10" height="10"/>
<rect x="330" y="40" width="10" height="10"/>
<rect x="340" y="40" width="10" height="10"/>
<rect x="350" y="40" width="10" height="10"/>
<rect x="360" y="40" width="10" height="10"/>
<rect x="380" y="40" width="10" height="10"/>
<rect x="400" y="40" width="10" height="10"/>
<rect x="410" y="40" width="10" height="10"/>
<rect x="420" y="40" width="10" height="10"/>
<rect x="440" y="40" width="10" height="10"/>
<rect x="0" y="50" width="10" height="10"/>
<rect x="60" y="50" width="10" height="10"/>
<rect x="120" y="50" width="10" height="10"/>
<rect x="130" y="50" width="10" height="10"/>
<rect x="160" y="50" width="10" height="10"/>
<rect x="200" y="50" width="10" height="10"/>
<rect x="240" y="50" width="10" height="10"/>
<rect x="250" y="50" width="10" height="10"/>
<rect x="260" y="50" width="10" height="10"/>
<rect x="280" y="50" width="10" height="10"/>
<rect x="290" y="50" width="10" height="10"/>
<rect x="300" y="50" width="10" height="10"/>
<rect x="330" y="50" width="10" height="10"/>
<rect x="380" y="50" width="10" height="10"/>
<rect x="440" y="50" width="10" height="10"/>
<rect x="0" y="60" width="10" height="10"/>
<rect x="10" y="60" width="10" height="10"/>
<rect x="20" y="60" width="10" height="10"/>
<rect x="30" y="60" width="10" height="10"/>
<rect x="40" y="60" width="10" height="10"/>
<rect x="50" y="60" width="10" height="10"/>
<rect x="60" y="60" width="10" height="10"/>
<rect x="80" y="60" width="10" height="10"/>
<rect x="100" y="60" width="10" height="10"/>
<rect x="120" y="60" width="10" height="10"/>
<rect x="140" y="60" width="10" height="10"/>
<rect x="160" y="60" width="10" height="10"/>
<rect x="180" y="60" width="10" height="10"/>
<rect x="200" y="60" width="10" height="10"/>
<rect x="220" y="60" width="10" height="10"/>
<rect x="240" y="60" width="10" height="10"/>
<rect x="260" y="60" width="10" height="10"/>
<rect x="280" y="60" width="10" height="10"/>
<rect x="300" y="60" width="10" height="10"/>
<rect x="320" y="60" width="10" height="10"/>
<rect x="340" y="60" width="10" height="10"/>
<rect x="360" y="60" width="10" height="10"/>
<rect x="380" y="60" width="10" height="10"/>
<rect x="390" y="60" width="10" height="10"/>
<rect x="400" y="60" width="10" height="10"/>
<rect x="410" y="60" width="10" height="10"/>
<rect x="420" y="60" width="10" height="10"/>
<rect x="430" y="60" width="10" height="10"/>
<rect x="440" y="60" width="10" height="10"/>
<rect x="80" y="70" width="10" height="10"/>
<rect x="90" y="70" width="10" height="10"/>
<rect x="110" y="70" width="10" height="10"/>
<rect x="120" y="70" width="10" height="10"/>
<rect x="140" y="70" width="10" height="10"/>
<rect x="150" y="70" width="10" height="10"/>
<rect x="160" y="70" width="10" height="10"/>
<rect x="190" y="70" width="10" height="10"/>
<rect x="200" y="70" width="10" height="10"/>
<rect x="240" y="70" width="10" height="10"/>
<rect x="260" y="70" width="10" height="10"/>
<rect x="280" y="70" width="10" height="10"/>
<rect x="310" y="70" width="10" height="10"/>
<rect x="330" y="70" width="10" height="10"/>
<rect x="340" y="70" width="10" height="10"/>
<rect x="20" y="80" width="10" height="10"/>
<rect x="30" y="80" width="10" height="10"/>
<rect x="60" y="80" width="10" height="10"/>
<rect x="70" y="80" width="10" height="10"/>
<rect x="80" y="80" width="10" height="10"/>
<rect x="100" y="80" width="10" height="10"/>
<rect x="110" y="80" width="10" height="10"/>
<rect x="120" y="80" width="10" height="10"/>
<rect x="140" y="80" width="10" height="10"/>
<rect x="150" y="80" width="10" height="10"/>
<rect x="160" y="80" width="10" height="10"/>
<rect x="190" y="80" width="10" height="10"/>
<rect x="200" y="80" width="10" height="10"/>
<rect x="210" y="80" width="10" height="10"/>
<rect x="220" y="80" width="10" height="10"/>
<rect x="230" y="80" width="10" height="10"/>
<rect x="240" y="80" width="10" height="10"/>
<rect x="260" y="80" width="10" height="10"/>
<rect x="280" y="80" width="10" height="10"/>
<rect x="290" y="80" width="10" height="10"/>
<rect x="330" y="80" width="10" height="10"/>
<rect x="350" y="80" width="10" height="10"/>
<rect x="360" y="80" width="10" height="10"/>
<rect x="370" y="80" width="10" height="10"/>
<rect x="380" y="80" width="10" height="10"/>
<rect x="400" y="80" width="10" height="10"/>
<rect x="10" y="90" width="10" height="10"/>
<rect x="40" y="90" width="10" height="10"/>
<rect x="80" y="90" width="10" height="10"/>
<rect x="110" y="90" width="10" height="10"/>
<rect x="130" y="90" width="10" height="10"/>
<rect x="150" y="90" width="10" height="10"/>
<rect x="170" y="90" width="10" height="10"/>
<rect x="180" y="90" width="10" height="10"/>
<rect x="200" y="90" width="10" height="10"/>
<rect x="220" y="90" width="10" height="10"/>
<rect x="230" y="90" width="10" height="10"/>
<rect x="250" y="90" width="10" height="10"/>
<rect x="270" y="90" width="10" height="10"/>
<rect x="280" y="90" width="10" height="10"/>
<rect x="290" y="90" width="10" height="10"/>
<rect x="300" y="90" width="10" height="10"/>
<rect x="320" y="90" width="10" height="10"/>
<rect x="330" y="90" width="10" height="10"/>
<rect x="360" y="90" width="10" height="10"/>
<rect x="390" y="90" width="10" height="10"/>
<rect x="420" y="90" width="10" height="10"/>
<rect x="440" y="90" width="10" height="10"/>
<rect x="10" y="100" width="10" height="10"/>
<rect x="20" y="100" width="10" height="10"/>
<rect x="50" y="100" width="10" height="10"/>
<rect x="60" y="100" width="10" height="10"/>
<rect x="70" y="100" width="10" height="10"/>
<rect x="80" y="100" width="10" height="10"/>
<rect x="110" y="100" width="10" height="10"/>
<rect x="120" y="100" width="10" height="10"/>
<rect x="130" y="100" width="10" height="10"/>
<rect x="150" y="100" width="10" height="10"/>
<rect x="160" y="100" width="10" height="10"/>
<rect x="180" y="100" width="10" height="10"/>
<rect x="220" y="100" width="10" height="10"/>
<rect x="230" y="100" width="10" height="10"/>
<rect x="240" y="100" width="10" height="10"/>
<rect x="250" y="100" width="10" height="10"/>
<rect x="270" y="100" width="10" height="10"/>
<rect x="280" y="100" width="10" height="10"/>
<rect x="300" y="100" width="10" height="10"/>
<rect x="310" y="100" width="10" height="10"/>
<rect x="340" y="100" width="10" height="10"/>
<rect x="350" y="100" width="10" height="10"/>
<rect x="390" y="100" width="10" height="10"/>
<rect x="410" y="100" width="10" height="10"/>
<rect x="420" y="100" width="10" height="10"/>
<rect x="430" y="100" width="10" height="10"/>
<rect x="440" y="100" width="10" height="10"/>
<rect x="10" y="110" width="10" height="10"/>
<rect x="20" y="110" width="10" height="10"/>
<rect x="40" y="110" width="10" height="10"/>
<rect x="70" y="110" width="10" height="10"/>
<rect x="80" y="110" width="10" height="10"/>
<rect x="90" y="110" width="10" height="10"/>
<rect x="100" y="110" width="10" height="10"/>
<rect x="120" y="110" width="10" height="10"/>
<rect x="150" y="110" width="10" height="10"/>
<rect x="170" y="110" width="10" height="10"/>
<rect x="190" y="110" width="10" height="10"/>
<rect x="210" y="110" width="10" height="10"/>
<rect x="220" y="110" width="10" height="10"/>
<rect x="250" y="110" width="10" height="10"/>
<rect x="280" y="110" width="10" height="10"/>
<rect x="310" y="110" width="10" height="10"/>
<rect x="320" y="110" width="10" height="10"/>
<rect x="330" y="110" width="10" height="10"/>
<rect x="350" y="110" width="10" height="10"/>
<rect x="370" y="110" width="10" height="10"/>
<rect x="390" y="110" width="10" height="10"/>
<rect x="410" y="110" width="10" height="10"/>
<rect x="0" y="120" width="10" height="10"/>
<rect x="10" y="120" width="10" height="10"/>
<rect x="30" y="120" width="10" height="10"/>
<rect x="50" y="120" width="10" height="10"/>
<rect x="60" y="120" width="10" height="10"/>
<rect x="90" y="120" width="10" height="10"/>
<rect x="100" y="120" width="10" height="10"/>
<rect x="110" y="120" width="10" height="10"/>
<rect x="130" y="120" width="10" height="10"/>
<rect x="150" y="120" width="10" height="10"/>
<rect x="190" y="120" width="10" height="10"/>
<rect x="220" y="120" width="10" height="10"/>
<rect x="260" y="120" width="10" height="10"/>
<rect x="280" y="120" width="10" height="10"/>
<rect x="300" y="120" width="10" height="10"/>
<rect x="310" y="120" width="10" height="10"/>
<rect x="330" y="120" width="10" height="10"/>
<rect x="340" y="120" width="10" height="10"/>
<rect x="350" y="120" width="10" height="10"/>
<rect x="390" y="120" width="10" height="10"/>
<rect x="0" y="130" width="10" height="10"/>
<rect x="50" y="130" width="10" height="10"/>
<rect x="70" y="130" width="10" height="10"/>
<rect x="80" y="130" width="10" height="10"/>
<rect x="90" y="130" width="10" height="10"/>
<rect x="100" y="130" width="10" height="10"/>
<rect x="120" y="130" width="10" height="10"/>
<rect x="130" y="130" width="10" height="10"/>
<rect x="140" y="130" width="10" height="10"/>
<rect x="160" y="130" width="10" height="10"/>
<rect x="210" y="130" width="10" height="10"/>
<rect x="220" y="130" width="10" height="10"/>
<rect x="250" y="130" width="10" height="10"/>
<rect x="260" y="130" width="10" height="10"/>
<rect x="320" y="130" width="10" height="10"/>
<rect x="330" y="130" width="10" height="10"/>
<rect x="370" y="130" width="10" height="10"/>
<rect x="380" y="130" width="10" height="10"/>
<rect x="390" y="130" width="10" height="10"/>
<rect x="400" y="130" width="10" height="10"/>
<rect x="410" y="130" width="10" height="10"/>
<rect x="420" y="130" width="10" height="10"/>
<rect x="0" y="140" width="10" height="10"/>
<rect x="30" y="140" width="10" height="10"/>
<rect x="60" y="140" width="10" height="10"/>
<rect x="70" y="140" width="10" height="10"/>
<rect x="90" y="140" width="10" height="10"/>
<rect x="110" y="140" width="10" height="10"/>
<rect x="120" y="140" width="10" height="10"/>
<rect x="140" y="140" width="10" height="10"/>
<rect x="150" y="140" width="10" height="10"/>
<rect x="160" y="140" width="10" height="10"/>
<rect x="180" y="140" width="10" height="10"/>
<rect x="210" y="140" width="10" height="10"/>
<rect x="240" y="140" width="10" height="10"/>
<rect x="250" y="140" width="10" height="10"/>
<rect x="260" y="140" width="10" height="10"/>
<rect x="270" y="140" width="10" height="10"/>
<rect x="300" y="140" width="10" height="10"/>
<rect x="380" y="140" width="10" height="10"/>
<rect x="400" y="140" width="10" height="10"/>
<rect x="0" y="150" width="10" height="10"/>
<rect x="20" y="150" width="10" height="10"/>
<rect x="30" y="150" width="10" height="10"/>
<rect x="40" y="150" width="10" height="10"/>
<rect x="50" y="150" width="10" height="10"/>
<rect x="80" y="150" width="10" height="10"/>
<rect x="90" y="150" width="10" height="10"/>
<rect x="110" y="150" width="10" height="10"/>
<rect x="120" y="150" width="10" height="10"/>
<rect x="150" y="150" width="10" height="10"/>
<rect x="170" y="150" width="10" height="10"/>
<rect x="190" y="150" width="10" height="10"/>
<rect x="200" y="150" width="10" height="10"/>
<rect x="210" y="150" width="10" height="10"/>
<rect x="220" y="150" width="10" height="10"/>
<rect x="250" y="150" width="10" height="10"/>
<rect x="270" y="150" width="10" height="10"/>
<rect x="280" y="150" width="10" height="10"/>
<rect x="300" y="150" width="10" height="10"/>
<rect x="320" y="150" width="10" height="10"/>
<rect x="330" y="150" width="10" height="10"/>
<rect x="360" y="150" width="10" height="10"/>
<rect x="370" y="150" width="10" height="10"/>
<rect x="390" y="150" width="10" height="10"/>
<rect x="400" y="150" width="10" height="10"/>
<rect x="410" y="150" width="10" height="10"/>
<rect x="420" y="150" width="10" height="10"/>
<rect x="0" y="160" width="10" height="10"/>
<rect x="10" y="160" width="10" height="10"/>
<rect x="30" y="160" width="10" height="10"/>
<rect x="40" y="160" width="10" height="10"/>
<rect x="60" y="160" width="10" height="10"/>
<rect x="80" y="160" width="10" height="10"/>
<rect x="130" y="160" width="10" height="10"/>
<rect x="150" y="160" width="10" height="10"/>
<rect x="200" y="160" width="10" height="10"/>
<rect x="210" y="160" width="10" height="10"/>
<rect x="230" y="160" width="10" height="10"/>
<rect x="240" y="160" width="10" height="10"/>
<rect x="320" y="160" width="10" height="10"/>
<rect x="350" y="160" width="10" height="10"/>
<rect x="360" y="160" width="10" height="10"/>
<rect x="370" y="160" width="10" height="10"/>
<rect x="420" y="160" width="10" height="10"/>
<rect x="430" y="160" width="10" height="10"/>
<rect x="440" y="160" width="10" height="10"/>
<rect x="0" y="170" width="10" height="10"/>
<rect x="10" y="170" width="10" height="10"/>
<rect x="20" y="170" width="10" height="10"/>
<rect x="90" y="170" width="10" height="10"/>
<rect x="160" y="170" width="10" height="10"/>
<rect x="170" y="170" width="10" height="10"/>
<rect x="190" y="170" width="10" height="10"/>
<rect x="200" y="170" width="10" height="10"/>
<rect x="210" y="170" width="10" height="10"/>
<rect x="230" y="170" width="10" height="10"/>
<rect x="260" y="170" width="10" height="10"/>
<rect x="270" y="170" width="10" height="10"/>
<rect x="280" y="170" width="10" height="10"/>
<rect x="330" y="170" width="10" height="10"/>
<rect x="340" y="170" width="10" height="10"/>
<rect x="390" y="170" width="10" height="10"/>
<rect x="400" y="170" width="10" height="10"/>
<rect x="410" y="170" width="10" height="10"/>
<rect x="430" y="170" width="10" height="10"/>
<rect x="440" y="170" width="10" height="10"/>
<rect x="0" y="180" width="10" height="10"/>
<rect x="10" y="180" width="10" height="10"/>
<rect x="20" y="180" width="10" height="10"/>
<rect x="30" y="180" width="10" height="10"/>
<rect x="40" y="180" width="10" height="10"/>
<rect x="50" y="180" width="10" height="10"/>
<rect x="60" y="180" width="10" height="10"/>
<rect x="80" y="180" width="10" height="10"/>
<rect x="100" y="180" width="10" height="10"/>
<rect x="110" y="180" width="10" height="10"/>
<rect x="120" y="180" width="10" height="10"/>
<rect x="130" y="180" width="10" height="10"/>
<rect x="160" y="180" width="10" height="10"/>
<rect x="210" y="180" width="10" height="10"/>
<rect x="260" y="180" width="10" height="10"/>
<rect x="270" y="180" width="10" height="10"/>
<rect x="300" y="180" width="10" height="10"/>
<rect x="310" y="180" width="10" height="10"/>
<rect x="320" y="180" width="10" height="10"/>
<rect x="340" y="180" width="10" height="10"/>
<rect x="350" y="180" width="10" height="10"/>
<rect x="360" y="180" width="10" height="10"/>
<rect x="380" y="180" width="10" height="10"/>
<rect x="410" y="180" width="10" height="10"/>
<rect x="430" y="180" width="10" height="10"/>
<rect x="40" y="190" width="10" height="10"/>
<rect x="120" y="190" width="10" height="10"/>
<rect x="150" y="190" width="10" height="10"/>
<rect x="170" y="190" width="10" height="10"/>
<rect x="200" y="190" width="10" height="10"/>
<rect x="220" y="190" width="10" height="10"/>
<rect x="230" y="190" width="10" height="10"/>
<rect x="240" y="190" width="10" height="10"/>
<rect x="260" y="190" width="10" height="10"/>
<rect x="270" y="190" width="10" height="10"/>
<rect x="280" y="190" width="10" height="10"/>
<rect x="300" y="190" width="10" height="10"/>
<rect x="330" y="190" width="10" height="10"/>
<rect x="340" y="190" width="10" height="10"/>
<rect x="370" y="190" width="10" height="10"/>
<rect x="400" y="190" width="10" height="10"/>
<rect x="30" y="200" width="10" height="10"/>
<rect x="40" y="200" width="10" height="10"/>
<rect x="50" y="200" width="10" height="10"/>
<rect x="60" y="200" width="10" height="10"/>
<rect x="70" y="200" width="10" height="10"/>
<rect x="80" y="200" width="10" height="10"/>
<rect x="90" y="200" width="10" height="10"/>
<rect x="100" y="200" width="10" height="10"/>
<rect x="110" y="200" width="10" height="10"/>
<rect x="130" y="200" width="10" height="10"/>
<rect x="160" y="200" width="10" height="10"/>
<rect x="190" y="200" width="10" height="10"/>
<rect x="200" y="200" width="10" height="10"/>
<rect x="210" y="200" width="10" height="10"/>
<rect x="220" y="200" width="10" height="10"/>
<rect x="230" y="200" width="10" height="10"/>
<rect x="240" y="200" width="10" height="10"/>
<rect x="270" y="200" width="10" height="10"/>
<rect x="280" y="200" width="10" height="10"/>
<rect x="300" y="200" width="10" height="10"/>
<rect x="330" y="200" width="10" height="10"/>
<rect x="340" y="200" width="10" height="10"/>
<rect x="360" y="200" width="10" height="10"/>
<rect x="370" y="200" width="10" height="10"/>
<rect x="380" y="200" width="10" height="10"/>
<rect x="390" y="200" width="10" height="10"/>
<rect x="400" y="200" width="10" height="10"/>
<rect x="420" y="200" width="10" height="10"/>
<rect x="440" y="200" width="10" height="10"/>
<rect x="0" y="210" width="10" height="10"/>
<rect x="10" y="210" width="10" height="10"/>
<rect x="30" y="210" width="10" height="10"/>
<rect x="40" y="210" width="10" height="10"/>
<rect x="80" y="210" width="10" height="10"/>
<rect x="120" y="210" width="10" height="10"/>
<rect x="140" y="210" width="10" height="10"/>
<rect x="150" y="210" width="10" height="10"/>
<rect x="160" y="210" width="10" height="10"/>
<rect x="170" y="210" width="10" height="10"/>
<rect x="200" y="210" width="10" height="10"/>
<rect x="240" y="210" width="10" height="10"/>
<rect x="260" y="210" width="10" height="10"/>
<rect x="270" y="210" width="10" height="10"/>
<rect x="290" y="210" width="10" height="10"/>
<rect x="350" y="210" width="10" height="10"/>
<rect x="360" y="210" width="10" height="10"/>
<rect x="400" y="210" width="10" height="10"/>
<rect x="410" y="210" width="10" height="10"/>
<rect x="440" y="210" width="10" height="10"/>
<rect x="40" y="220" width="10" height="10"/>
<rect x="60" y="220" width="10" height="10"/>
<rect x="80" y="220" width="10" height="10"/>
<rect x="90" y="220" width="10" height="10"/>
<rect x="130" y="220" width="10" height="10"/>
<rect x="150" y="220" width="10" height="10"/>
<rect x="160" y="220" width="10" height="10"/>
<rect x="170" y="220" width="10" height="10"/>
<rect x="180" y="220" width="10" height="10"/>
<rect x="190" y="220" width="10" height="10"/>
<rect x="200" y="220" width="10" height="10"/>
<rect x="220" y="220" width="10" height="10"/>
<rect x="240" y="220" width="10" height="10"/>
<rect x="250" y="220" width="10" height="10"/>
<rect x="270" y="220" width="10" height="10"/>
<rect x="290" y="220" width="10" height="10"/>
<rect x="310" y="220" width="10" height="10"/>
<rect x="330" y="220" width="10" height="10"/>
<rect x="340" y="220" width="10" height="10"/>
<rect x="350" y="220" width="10" height="10"/>
<rect x="360" y="220" width="10" height="10"/>
<rect x="380" y="220" width="10" height="10"/>
<rect x="400" y="220" width="10" height="10"/>
<rect x="420" y="220" width="10" height="10"/>
<rect x="430" y="220" width="10" height="10"/>
<rect x="440" y="220" width="10" height="10"/>
<rect x="0" y="230" width="10" height="10"/>
<rect x="30" y="230" width="10" height="10"/>
<rect x="40" y="230" width="10" height="10"/>
<rect x="80" y="230" width="10" height="10"/>
<rect x="100" y="230" width="10" height="10"/>
<rect x="130" y="230" width="10" height="10"/>
<rect x="180" y="230" width="10" height="10"/>
<rect x="190" y="230" width="10" height="10"/>
<rect x="200" y="230" width="10" height="10"/>
<rect x="240" y="230" width="10" height="10"/>
<rect x="250" y="230" width="10" height="10"/>
<rect x="260" y="230" width="10" height="10"/>
<rect x="290" y="230" width="10" height="10"/>
<rect x="300" y="230" width="10" height="10"/>
<rect x="320" y="230" width="10" height="10"/>
<rect x="340" y="230" width="10" height="10"/>
<rect x="360" y="230" width="10" height="10"/>
<rect x="400" y="230" width="10" height="10"/>
<rect x="410" y="230" width="10" height="10"/>
<rect x="440" y="230" width="10" height="10"/>
<rect x="0" y="240" width="10" height="10"/>
<rect x="20" y="240" width="10" height="10"/>
<rect x="30" y="240" width="10" height="10"/>
<rect x="40" y="240" width="10" height="10"/>
<rect x="50" y="240" width="10" height="10"/>
<rect x="60" y="240" width="10" height="10"/>
<rect x="70" y="240" width="10" height="10"/>
<rect x="80" y="240" width="10" height="10"/>
<rect x="90" y="240" width="10" height="10"/>
<rect x="100" y="240" width="10" height="10"/>
<rect x="110" y="240" width="10" height="10"/>
<rect x="120" y="240" width="10" height="10"/>
<rect x="140" y="240" width="10" height="10"/>
<rect x="170" y="240" width="10" height="10"/>
<rect x="180" y="240" width="10" height="10"/>
<rect x="190" y="240" width="10" height="10"/>
<rect x="200" y="240" width="10" height="10"/>
<rect x="210" y="240" width="10" height="10"/>
<rect x="220" y="240" width="10" height="10"/>
<rect x="230" y="240" width="10" height="10"/>
<rect x="240" y="240" width="10" height="10"/>
<rect x="270" y="240" width="10" height="10"/>
<rect x="300" y="240" width="10" height="10"/>
<rect x="310" y="240" width="10" height="10"/>
<rect x="340" y="240" width="10" height="10"/>
<rect x="360" y="240" width="10" height="10"/>
<rect x="370" y="240" width="10" height="10"/>
<rect x="380" y="240" width="10" height="10"/>
<rect x="390" y="240" width="10" height="10"/>
<rect x="400" y="240" width="10" height="10"/>
<rect x="410" y="240" width="10" height="10"/>
<rect x="430" y="240" width="10" height="10"/>
<rect x="440" y="240" width="10" height="10"/>
<rect x="0" y="250" width="10" height="10"/>
<rect x="20" y="250" width="10" height="10"/>
<rect x="30" y="250" width="10" height="10"/>
<rect x="80" y="250" width="10" height="10"/>
<rect x="120" y="250" width="10" height="10"/>
<rect x="130" y="250" width="10" height="10"/>
<rect x="140" y="250" width="10" height="10"/>
<rect x="160" y="250" width="10" height="10"/>
<rect x="170" y="250" width="10" height="10"/>
<rect x="210" y="250" width="10" height="10"/>
<rect x="250" y="250" width="10" height="10"/>
<rect x="260" y="250" width="10" height="10"/>
<rect x="270" y="250" width="10" height="10"/>
<rect x="280" y="250" width="10" height="10"/>
<rect x="290" y="250" width="10" height="10"/>
<rect x="320" y="250" width="10" height="10"/>
<rect x="370" y="250" width="10" height="10"/>
<rect x="390" y="250" width="10" height="10"/>
<rect x="410" y="250" width="10" height="10"/>
<rect x="420" y="250" width="10" height="10"/>
<rect x="430" y="250" width="10" height="10"/>
<rect x="20" y="260" width="10" height="10"/>
<rect x="30" y="260" width="10" height="10"/>
<rect x="60" y="260" width="10" height="10"/>
<rect x="70" y="260" width="10" height="10"/>
<rect x="90" y="260" width="10" height="10"/>
<rect x="120" y="260" width="10" height="10"/>
<rect x="140" y="260" width="10" height="10"/>
<rect x="150" y="260" width="10" height="10"/>
<rect x="180" y="260" width="10" height="10"/>
<rect x="190" y="260" width="10" height="10"/>
<rect x="230" y="260" width="10" height="10"/>
<rect x="240" y="260" width="10" height="10"/>
<rect x="250" y="260" width="10" height="10"/>
<rect x="260" y="260" width="10" height="10"/>
<rect x="280" y="260" width="10" height="10"/>
<rect x="290" y="260" width="10" height="10"/>
<rect x="300" y="260" width="10" height="10"/>
<rect x="350" y="260" width="10" height="10"/>
<rect x="360" y="260" width="10" height="10"/>
<rect x="390" y="260" width="10" height="10"/>
<rect x="410" y="260" width="10" height="10"/>
<rect x="10" y="270" width="10" height="10"/>
<rect x="40" y="270" width="10" height="10"/>
<rect x="70" y="270" width="10" height="10"/>
<rect x="90" y="270" width="10" height="10"/>
<rect x="130" y="270" width="10" height="10"/>
<rect x="140" y="270" width="10" height="10"/>
<rect x="160" y="270" width="10" height="10"/>
<rect x="170" y="270" width="10" height="10"/>
<rect x="190" y="270" width="10" height="10"/>
<rect x="200" y="270" width="10" height="10"/>
<rect x="220" y="270" width="10" height="10"/>
<rect x="250" y="270" width="10" height="10"/>
<rect x="280" y="270" width="10" height="10"/>
<rect x="320" y="270" width="10" height="10"/>
<rect x="340" y="270" width="10" height="10"/>
<rect x="350" y="270" width="10" height="10"/>
<rect x="380" y="270" width="10" height="10"/>
<rect x="400" y="270" width="10" height="10"/>
<rect x="410" y="270" width="10" height="10"/>
<rect x="420" y="270" width="10" height="10"/>
<rect x="430" y="270" width="10" height="10"/>
<rect x="440" y="270" width="10" height="10"/>
<rect x="20" y="280" width="10" height="10"/>
<rect x="40" y="280" width="10" height="10"/>
<rect x="50" y="280" width="10" height="10"/>
<rect x="60" y="280" width="10" height="10"/>
<rect x="80" y="280" width="10" height="10"/>
<rect x="90" y="280" width="10" height="10"/>
<rect x="120" y="280" width="10" height="10"/>
<rect x="130" y="280" width="10" height="10"/>
<rect x="140" y="280" width="10" height="10"/>
<rect x="150" y="280" width="10" height="10"/>
<rect x="180" y="280" width="10" height="10"/>
<rect x="210" y="280" width="10" height="10"/>
<rect x="220" y="280" width="10" height="10"/>
<rect x="240" y="280" width="10" height="10"/>
<rect x="250" y="280" width="10" height="10"/>
<rect x="270" y="280" width="10" height="10"/>
<rect x="290" y="280" width="10" height="10"/>
<rect x="320" y="280" width="10" height="10"/>
<rect x="330" y="280" width="10" height="10"/>
<rect x="340" y="280" width="10" height="10"/>
<rect x="350" y="280" width="10" height="10"/>
<rect x="370" y="280" width="10" height="10"/>
<rect x="390" y="280" width="10" height="10"/>
<rect x="400" y="280" width="10" height="10"/>
<rect x="410" y="280" width="10" height="10"/>
<rect x="420" y="280" width="10" height="10"/>
<rect x="440" y="280" width="10" height="10"/>
<rect x="0" y="290" width="10" height="10"/>
<rect x="30" y="290" width="10" height="10"/>
<rect x="40" y="290" width="10" height="10"/>
<rect x="50" y="290" width="10" height="10"/>
<rect x="80" y="290" width="10" height="10"/>
<rect x="90" y="290" width="10" height="10"/>
<rect x="100" y="290" width="10" height="10"/>
<rect x="130" y="290" width="10" height="10"/>
<rect x="170" y="290" width="10" height="10"/>
<rect x="210" y="290" width="10" height="10"/>
<rect x="220" y="290" width="10" height="10"/>
<rect x="230" y="290" width="10" height="10"/>
<rect x="240" y="290" width="10" height="10"/>
<rect x="270" y="290" width="10" height="10"/>
<rect x="300" y="290" width="10" height="10"/>
<rect x="320" y="290" width="10" height="10"/>
<rect x="330" y="290" width="10" height="10"/>
<rect x="340" y="290" width="10" height="10"/>
<rect x="350" y="290" width="10" height="10"/>
<rect x="380" y="290" width="10" height="10"/>
<rect x="390" y="290" width="10" height="10"/>
<rect x="400" y="290" width="10" height="10"/>
<rect x="410" y="290" width="10" height="10"/>
<rect x="430" y="290" width="10" height="10"/>
<rect x="440" y="290" width="10" height="10"/>
<rect x="0" y="300" width="10" height="10"/>
<rect x="10" y="300" width="10" height="10"/>
<rect x="20" y="300" width="10" height="10"/>
<rect x="30" y="300" width="10" height="10"/>
<rect x="50" y="300" width="10" height="10"/>
<rect x="60" y="300" width="10" height="10"/>
<rect x="90" y="300" width="10" height="10"/>
<rect x="110" y="300" width="10" height="10"/>
<rect x="130" y="300" width="10" height="10"/>
<rect x="160" y="300" width="10" height="10"/>
<rect x="170" y="300" width="10" height="10"/>
<rect x="210" y="300" width="10" height="10"/>
<rect x="240" y="300" width="10" height="10"/>
<rect x="260" y="300" width="10" height="10"/>
<rect x="310" y="300" width="10" height="10"/>
<rect x="340" y="300" width="10" height="10"/>
<rect x="360" y="300" width="10" height="10"/>
<rect x="370" y="300" width="10" height="10"/>
<rect x="390" y="300" width="10" height="10"/>
<rect x="410" y="300" width="10" height="10"/>
<rect x="420" y="300" width="10" height="10"/>
<rect x="430" y="300" width="10" height="10"/>
<rect x="0" y="310" width="10" height="10"/>
<rect x="20" y="310" width="10" height="10"/>
<rect x="30" y="310" width="10" height="10"/>
<rect x="40" y="310" width="10" height="10"/>
<rect x="50" y="310" width="10" height="10"/>
<rect x="80" y="310" width="10" height="10"/>
<rect x="160" y="310" width="10" height="10"/>
<rect x="190" y="310" width="10" height="10"/>
<rect x="200" y="310" width="10" height="10"/>
<rect x="260" y="310" width="10" height="10"/>
<rect x="360" y="310" width="10" height="10"/>
<rect x="390" y="310" width="10" height="10"/>
<rect x="440" y="310" width="10" height="10"/>
<rect x="0" y="320" width="10" height="10"/>
<rect x="10" y="320" width="10" height="10"/>
<rect x="50" y="320" width="10" height="10"/>
<rect x="60" y="320" width="10" height="10"/>
<rect x="110" y="320" width="10" height="10"/>
<rect x="130" y="320" width="10" height="10"/>
<rect x="140" y="320" width="10" height="10"/>
<rect x="150" y="320" width="10" height="10"/>
<rect x="190" y="320" width="10" height="10"/>
<rect x="230" y="320" width="10" height="10"/>
<rect x="330" y="320" width="10" height="10"/>
<rect x="360" y="320" width="10" height="10"/>
<rect x="380" y="320" width="10" height="10"/>
<rect x="390" y="320" width="10" height="10"/>
<rect x="410" y="320" width="10" height="10"/>
<rect x="420" y="320" width="10" height="10"/>
<rect x="20" y="330" width="10" height="10"/>
<rect x="30" y="330" width="10" height="10"/>
<rect x="70" y="330" width="10" height="10"/>
<rect x="90" y="330" width="10" height="10"/>
<rect x="100" y="330" width="10" height="10"/>
<rect x="130" y="330" width="10" height="10"/>
<rect x="160" y="330" width="10" height="10"/>
<rect x="170" y="330" width="10" height="10"/>
<rect x="190" y="330" width="10" height="10"/>
<rect x="210" y="330" width="10" height="10"/>
<rect x="230" y="330" width="10" height="10"/>
<rect x="240" y="330" width="10" height="10"/>
<rect x="250" y="330" width="10" height="10"/>
<rect x="260" y="330" width="10" height="10"/>
<rect x="280" y="330" width="10" height="10"/>
<rect x="290" y="330" width="10" height="10"/>
<rect x="300" y="330" width="10" height="10"/>
<rect x="310" y="330" width="10" height="10"/>
<rect x="320" y="330" width="10" height="10"/>
<rect x="360" y="330" width="10" height="10"/>
<rect x="380" y="330" width="10" height="10"/>
<rect x="410" y="330" width="10" height="10"/>
<rect x="420" y="330" width="10" height="10"/>
<rect x="430" y="330" width="10" height="10"/>
<rect x="440" y="330" width="10" height="10"/>
<rect x="40" y="340" width="10" height="10"/>
<rect x="60" y="340" width="10" height="10"/>
<rect x="80" y="340" width="10" height="10"/>
<rect x="90" y="340" width="10" height="10"/>
<rect x="100" y="340" width="10" height="10"/>
<rect x="140" y="340" width="10" height="10"/>
<rect x="180" y="340" width="10" height="10"/>
<rect x="190" y="340" width="10" height="10"/>
<rect x="200" y="340" width="10" height="10"/>
<rect x="220" y="340" width="10" height="10"/>
<rect x="270" y="340" width="10" height="10"/>
<rect x="300" y="340" width="10" height="10"/>
<rect x="310" y="340" width="10" height="10"/>
<rect x="340" y="340" width="10" height="10"/>
<rect x="360" y="340" width="10" height="10"/>
<rect x="370" y="340" width="10" height="10"/>
<rect x="380" y="340" width="10" height="10"/>
<rect x="390" y="340" width="10" height="10"/>
<rect x="400" y="340" width="10" height="10"/>
<rect x="410" y="340" width="10" height="10"/>
<rect x="430" y="340" width="10" height="10"/>
<rect x="440" y="340" width="10" height="10"/>
<rect x="10" y="350" width="10" height="10"/>
<rect x="20" y="350" width="10" height="10"/>
<rect x="30" y="350" width="10" height="10"/>
<rect x="40" y="350" width="10" height="10"/>
<rect x="100" y="350" width="10" height="10"/>
<rect x="110" y="350" width="10" height="10"/>
<rect x="130" y="350" width="10" height="10"/>
<rect x="140" y="350" width="10" height="10"/>
<rect x="150" y="350" width="10" height="10"/>
<rect x="170" y="350" width="10" height="10"/>
<rect x="180" y="350" width="10" height="10"/>
<rect x="200" y="350" width="10" height="10"/>
<rect x="230" y="350" width="10" height="10"/>
<rect x="260" y="350" width="10" height="10"/>
<rect x="270" y="350" width="10" height="10"/>
<rect x="280" y="350" width="10" height="10"/>
<rect x="310" y="350" width="10" height="10"/>
<rect x="320" y="350" width="10" height="10"/>
<rect x="340" y="350" width="10" height="10"/>
<rect x="350" y="350" width="10" height="10"/>
<rect x="360" y="350" width="10" height="10"/>
<rect x="370" y="350" width="10" height="10"/>
<rect x="380" y="350" width="10" height="10"/>
<rect x="400" y="350" width="10" height="10"/>
<rect x="410" y="350" width="10" height="10"/>
<rect x="440" y="350" width="10" height="10"/>
<rect x="0" y="360" width="10" height="10"/>
<rect x="30" y="360" width="10" height="10"/>
<rect x="40" y="360" width="10" height="10"/>
<rect x="60" y="360" width="10" height="10"/>
<rect x="80" y="360" width="10" height="10"/>
<rect x="90" y="360" width="10" height="10"/>
<rect x="110" y="360" width="10" height="10"/>
<rect x="140" y="360" width="10" height="10"/>
<rect x="170" y="360" width="10" height="10"/>
<rect x="180" y="360" width="10" height="10"/>
<rect x="200" y="360" width="10" height="10"/>
<rect x="210" y="360" width="10" height="10"/>
<rect x="220" y="360" width="10" height="10"/>
<rect x="230" y="360" width="10" height="10"/>
<rect x="240" y="360" width="10" height="10"/>
<rect x="250" y="360" width="10" height="10"/>
<rect x="290" y="360" width="10" height="10"/>
<rect x="310" y="360" width="10" height="10"/>
<rect x="340" y="360" width="10" height="10"/>
<rect x="360" y="360" width="10" height="10"/>
<rect x="370" y="360" width="10" height="10"/>
<rect x="380" y="360" width="10" height="10"/>
<rect x="390" y="360" width="10" height="10"/>
<rect x="400" y="360" width="10" height="10"/>
<rect x="410" y="360" width="10" height="10"/>
<rect x="80" y="370" width="10" height="10"/>
<rect x="110" y="370" width="10" height="10"/>
<rect x="130" y="370" width="10" height="10"/>
<rect x="200" y="370" width="10" height="10"/>
<rect x="240" y="370" width="10" height="10"/>
<rect x="250" y="370" width="10" height="10"/>
<rect x="260" y="370" width="10" height="10"/>
<rect x="280" y="370" width="10" height="10"/>
<rect x="300" y="370" width="10" height="10"/>
<rect x="310" y="370" width="10" height="10"/>
<rect x="360" y="370" width="10" height="10"/>
<rect x="400" y="370" width="10" height="10"/>
<rect x="420" y="370" width="10" height="10"/>
<rect x="0" y="380" width="10" height="10"/>
<rect x="10" y="380" width="10" height="10"/>
<rect x="20" y="380" width="10" height="10"/>
<rect x="30" y="380" width="10" height="10"/>
<rect x="40" y="380" width="10" height="10"/>
<rect x="50" y="380" width="10" height="10"/>
<rect x="60" y="380" width="10" height="10"/>
<rect x="80" y="380" width="10" height="10"/>
<rect x="100" y="380" width="10" height="10"/>
<rect x="110" y="380" width="10" height="10"/>
<rect x="120" y="380" width="10" height="10"/>
<rect x="170" y="380" width="10" height="10"/>
<rect x="180" y="380" width="10" height="10"/>
<rect x="200" y="380" width="10" height="10"/>
<rect x="220" y="380" width="10" height="10"/>
<rect x="240" y="380" width="10" height="10"/>
<rect x="250" y="380" width="10" height="10"/>
<rect x="270" y="380" width="10" height="10"/>
<rect x="290" y="380" width="10" height="10"/>
<rect x="300" y="380" width="10" height="10"/>
<rect x="320" y="380" width="10" height="10"/>
<rect x="360" y="380" width="10" height="10"/>
<rect x="380" y="380" width="10" height="10"/>
<rect x="400" y="380" width="10" height="10"/>
<rect x="410" y="380" width="10" height="10"/>
<rect x="420" y="380" width="10" height="10"/>
<rect x="430" y="380" width="10" height="10"/>
<rect x="0" y="390" width="10" height="10"/>
<rect x="60" y="390" width="10" height="10"/>
<rect x="100" y="390" width="10" height="10"/>
<rect x="130" y="390" width="10" height="10"/>
<rect x="140" y="390" width="10" height="10"/>
<rect x="150" y="390" width="10" height="10"/>
<rect x="190" y="390" width="10" height="10"/>
<rect x="200" y="390" width="10" height="10"/>
<rect x="240" y="390" width="10" height="10"/>
<rect x="270" y="390" width="10" height="10"/>
<rect x="280" y="390" width="10" height="10"/>
<rect x="320" y="390" width="10" height="10"/>
<rect x="360" y="390" width="10" height="10"/>
<rect x="400" y="390" width="10" height="10"/>
<rect x="410" y="390" width="10" height="10"/>
<rect x="420" y="390" width="10" height="10"/>
<rect x="430" y="390" width="10" height="10"/>
<rect x="0" y="400" width="10" height="10"/>
<rect x="20" y="400" width="10" height="10"/>
<rect x="30" y="400" width="10" height="10"/>
<rect x="40" y="400" width="10" height="10"/>
<rect x="60" y="400" width="10" height="10"/>
<rect x="90" y="400" width="10" height="10"/>
<rect x="120" y="400" width="10" height="10"/>
<rect x="130" y="400" width="10" height="10"/>
<rect x="150" y="400" width="10" height="10"/>
<rect x="160" y="400" width="10" height="10"/>
<rect x="170" y="400" width="10" height="10"/>
<rect x="200" y="400" width="10" height="10"/>
<rect x="210" y="400" width="10" height="10"/>
<rect x="220" y="400" width="10" height="10"/>
<rect x="230" y="400" width="10" height="10"/>
<rect x="240" y="400" width="10" height="10"/>
<rect x="270" y="400" width="10" height="10"/>
<rect x="280" y="400" width="10" height="10"/>
<rect x="290" y="400" width="10" height="10"/>
<rect x="310" y="400" width="10" height="10"/>
<rect x="320" y="400" width="10" height="10"/>
<rect x="350" y="400" width="10" height="10"/>
<rect x="360" y="400" width="10" height="10"/>
<rect x="370" y="400" width="10" height="10"/>
<rect x="380" y="400" width="10" height="10"/>
<rect x="390" y="400" width="10" height="10"/>
<rect x="400" y="400" width="10" height="10"/>
<rect x="410" y="400" width="10" height="10"/>
<rect x="420" y="400" width="10" height="10"/>
<rect x="0" y="410" width="10" height="10"/>
<rect x="20" y="410" width="10" height="10"/>
<rect x="30" y="410" width="10" height="10"/>
<rect x="40" y="410" width="10" height="10"/>
<rect x="60" y="410" width="10" height="10"/>
<rect x="80" y="410" width="10" height="10"/>
<rect x="100" y="410" width="10" height="10"/>
<rect x="120" y="410" width="10" height="10"/>
<rect x="130" y="410" width="10" height="10"/>
<rect x="140" y="410" width="10" height="10"/>
<rect x="150" y="410" width="10" height="10"/>
<rect x="180" y="410" width="10" height="10"/>
<rect x="200" y="410" width="10" height="10"/>
<rect x="210" y="410" width="10" height="10"/>
<rect x="220" y="410" width="10" height="10"/>
<rect x="240" y="410" width="10" height="10"/>
<rect x="260" y="410" width="10" height="10"/>
<rect x="270" y="410" width="10" height="10"/>
<rect x="300" y="410" width="10" height="10"/>
<rect x="310" y="410" width="10" height="10"/>
<rect x="330" y="410" width="10" height="10"/>
<rect x="340" y="410" width="10" height="10"/>
<rect x="360" y="410" width="10" height="10"/>
<rect x="370" y="410" width="10" height="10"/>
<rect x="390" y="410" width="10" height="10"/>
<rect x="440" y="410" width="10" height="10"/>
<rect x="0" y="420" width="10" height="10"/>
<rect x="20" y="420" width="10" height="10"/>
<rect x="30" y="420" width="10" height="10"/>
<rect x="40" y="420" width="10" height="10"/>
<rect x="60" y="420" width="10" height="10"/>
<rect x="80" y="420" width="10" height="10"/>
<rect x="90" y="420" width="10" height="10"/>
<rect x="130" y="420" width="10" height="10"/>
<rect x="150" y="420" width="10" height="10"/>
<rect x="180" y="420" width="10" height="10"/>
<rect x="190" y="420" width="10" height="10"/>
<rect x="210" y="420" width="10" height="10"/>
<rect x="220" y="420" width="10" height="10"/>
<rect x="240" y="420" width="10" height="10"/>
<rect x="250" y="420" width="10" height="10"/>
<rect x="270" y="420" width="10" height="10"/>
<rect x="280" y="420" width="10" height="10"/>
<rect x="290" y="420" width="10" height="10"/>
<rect x="340" y="420" width="10" height="10"/>
<rect x="350" y="420" width="10" height="10"/>
<rect x="360" y="420" width="10" height="10"/>
<rect x="370" y="420" width="10" height="10"/>
<rect x="380" y="420" width="10" height="10"/>
<rect x="0" y="430" width="10" height="10"/>
<rect x="60" y="430" width="10" height="10"/>
<rect x="90" y="430" width="10" height="10"/>
<rect x="110" y="430" width="10" height="10"/>
<rect x="120" y="430" width="10" height="10"/>
<rect x="150" y="430" width="10" height="10"/>
<rect x="160" y="430" width="10" height="10"/>
<rect x="170" y="430" width="10" height="10"/>
<rect x="190" y="430" width="10" height="10"/>
<rect x="200" y="430" width="10" height="10"/>
<rect x="210" y="430" width="10" height="10"/>
<rect x="250" y="430" width="10" height="10"/>
<rect x="300" y="430" width="10" height="10"/>
<rect x="310" y="430" width="10" height="10"/>
<rect x="330" y="430" width="10" height="10"/>
<rect x="340" y="430" width="10" height="10"/>
<rect x="350" y="430" width="10" height="10"/>
<rect x="380" y="430" width="10" height="10"/>
<rect x="440" y="430" width="10" height="10"/>
<rect x="0" y="440" width="10" height="10"/>
<rect x="10" y="440" width="10" height="10"/>
<rect x="20" y="440" width="10" height="10"/>
<rect x="30" y="440" width="10" height="10"/>
<rect x="40" y="440" width="10" height="10"/>
<rect x="50" y="440" width="10" height="10"/>
<rect x="60" y="440" width="10" height="10"/>
<rect x="90" y="440" width="10" height="10"/>
<rect x="100" y="440" width="10" height="10"/>
<rect x="130" y="440" width="10" height="10"/>
<rect x="140" y="440" width="10" height="10"/>
<rect x="150" y="440" width="10" height="10"/>
<rect x="170" y="440" width="10" height="10"/>
<rect x="190" y="440" width="10" height="10"/>
<rect x="200" y="440" width="10" height="10"/>
<rect x="210" y="440" width="10" height="10"/>
<rect x="220" y="440" width="10" height="10"/>
<rect x="230" y="440" width="10" height="10"/>
<rect x="260" y="440" width="10" height="10"/>
<rect x="350" y="440" width="10" height="10"/>
<rect x="360" y="440" width="10" height="10"/>
<rect x="380" y="440" width="10" height="10"/>
<rect x="390" y="440" width="10" height="10"/>
<rect x="420" y="440" width="10" height="10"/>
</g></svg>