<?xml version="1.0" encoding="utf-8"?>
<!-- Generator: Adobe Illustrator 21.0.0, SVG Export Plug-In . SVG Version: 6.00 Build 0)  -->
<svg version="1.1" id="圖層_1" xmlns="http://www.w3.org/2000/svg" xmlns:xlink="http://www.w3.org/1999/xlink" x="0px" y="0px"
	 viewBox="0 0 110 110" style="enable-background:new 0 0 110 110;" xml:space="preserve">
<style type="text/css">
	.st0{display:none;}
	.st1{display:inline;}
	.st2{fill:#95CEF9;}
	.st3{fill:#608FBA;}
	.st4{fill:#FFFFFF;}
	.st5{fill:#73A9C9;}
	.st6{fill:#2C678C;}
	.st7{font-family:'CalistoMT';}
	.st8{font-size:16.9625px;}
	.st9{font-size:11.8649px;}
	.st10{fill:#A1E5A7;}
	.st11{fill:none;}
	.st12{fill:#6FB272;}
	.st13{fill:#6EBEC3;}
	.st14{fill:#5A9C9E;}
	.st15{fill:#8EC2B6;}
	.st16{fill:#74968B;}
	.st17{display:inline;fill:#5156AF;}
	.st18{display:inline;fill:#3F3F82;}
	.st19{fill:#F1B14F;}
	.st20{fill:#C1883E;}
	.st21{fill:#F5D029;}
	.st22{fill:#CEAC1D;}
	.st23{display:inline;fill:#DBC954;}
	.st24{display:inline;fill:#BAA74A;}
	.st25{fill:#D379D3;}
	.st26{fill:#A362A5;}
	.st27{fill:#F79C92;}
	.st28{fill:#D88882;}
	.st29{fill:#BC965B;}
	.st30{fill:#99774B;}
	.st31{display:inline;fill:#75BC59;}
	.st32{display:inline;fill:#5F994A;}
	.st33{fill:#E86B5A;}
	.st34{fill:#AF5551;}
	.st35{display:inline;fill:#FFFFFF;}
	.st36{fill:#ED9B5F;}
	.st37{fill:#BC7442;}
	.st38{fill:#607BEA;}
	.st39{fill:#445DAD;}
</style>
<g id="nav01_x5F_會員登入" class="st0">
	<g class="st1">
		<circle class="st2" cx="55" cy="55" r="55"/>
		<path class="st3" d="M105.9,75.9L66.6,26.3L35.3,48.5L48.4,66l-12,6.6L25.6,87.7l14.3,20.2c4.8,1.4,9.8,2.1,15.1,2.1
			C78,110,97.6,95.9,105.9,75.9z"/>
		<g>
			<path class="st4" d="M75.4,42.7c0,11.3-9.1,20.4-20.4,20.4S34.6,54,34.6,42.7S43.7,22.3,55,22.3S75.4,31.4,75.4,42.7z"/>
			<path class="st4" d="M55,65.3c-14,0-25.9,9.5-29.4,22.4h58.8C80.9,74.8,69,65.3,55,65.3z"/>
		</g>
	</g>
</g>
<g id="nav01_x5F_會員登入n" class="st0">
	<g class="st1">
		<circle class="st2" cx="55" cy="55" r="55"/>
		<path class="st3" d="M110,55c0-1.6-0.1-3.2-0.2-4.8c-10.9-9.9-22.7-20.4-22.7-20.4L56.9,33l-11-5.2L11.8,71.3L54.9,110H55
			C85.4,110,110,85.4,110,55z"/>
		<path class="st4" d="M75.1,63.1c-14,0-20.4,9.5-23.9,22.4H93C91.7,71.5,89.1,63.1,75.1,63.1z"/>
		<path class="st4" d="M92.5,41.8c0,10.5-8.5,19-19,19c-4.6,0-8.8-1.6-12.1-4.4c-0.8-0.7,4.7,0.3,8.7-5.4c0.6-0.9-12.6,0.6-13,0.3
			c-2.6-2-2.6-6.1-2.6-9.6c0-10.5,8.5-19,19-19C83.9,22.8,92.5,31.3,92.5,41.8z"/>
		<circle class="st4" cx="55.4" cy="42.3" r="4.7"/>
		<path class="st5" d="M47.7,68.9c0,2.7-2.2,4.9-4.9,4.9H16.3c-2.7,0-4.9-2.2-4.9-4.9V31.4c0-2.7,2.2-4.9,4.9-4.9h26.5
			c2.7,0,4.9,2.2,4.9,4.9v24.1l10.7-1l-10.7,9.1V68.9z"/>
		<path class="st6" d="M46.5,67.9c0,2.5-2,4.6-4.6,4.6H17.1c-2.5,0-4.6-2-4.6-4.6V32.8c0-2.5,2-4.6,4.6-4.6h24.8
			c2.5,0,4.6,2,4.6,4.6v24.6l7.6-0.8L46.5,63V67.9z"/>
		<text transform="matrix(1 0 0 1 17.8945 47.9355)" class="st4 st7 st8">Hi!</text>
		<text transform="matrix(1 0 0 1 13.9282 65.2676)" class="st4 st7 st9">Guest</text>
	</g>
</g>
<g id="公車動態" class="st0">
	<g class="st1">
		<circle class="st10" cx="55" cy="55" r="55"/>
		<path class="st11" d="M12,52l6.1-21l16.6-11h16.6L110,58.7c0.1-1.2,0.1-2.5,0.1-3.7c0-30.4-24.6-55-55-55C24.6,0,0,24.6,0,55
			s24.6,55,55,55c3.5,0,6.9-0.3,10.2-1L41.1,91.4L12,52z"/>
		<path class="st12" d="M109.9,58.7L51.2,21l-16.6-1L18.1,31L12,52l29.1,39.4L65.2,109C89.5,104.5,108.2,83.9,109.9,58.7z"/>
		<g>
			<g>
				<g>
					<path class="st4" d="M35.1,67.6c0,1.1-0.9,2-2,2l0,0c-1.1,0-2-0.9-2-2v-4c0-1.1,0.9-2,2-2l0,0c1.1,0,2,0.9,2,2V67.6z"/>
					<path class="st4" d="M50.8,67.6c0,1.1-0.9,2-2,2l0,0c-1.1,0-2-0.9-2-2v-4c0-1.1,0.9-2,2-2l0,0c1.1,0,2,0.9,2,2V67.6z"/>
					<path class="st4" d="M52.8,31.8H29.4c-3.2,0-5.9,2.6-5.9,5.9v23.4c0,3.2,2.6,5.9,5.9,5.9h0.7v-3.4c0-1.6,1.3-3,3-3
						c1.6,0,3,1.3,3,3V67h9.8v-3.4c0-1.6,1.3-3,3-3c1.6,0,3,1.3,3,3V67H53c3.2,0,5.9-2.6,5.9-5.9V37.7
						C58.7,34.4,56.1,31.8,52.8,31.8z M29.2,59c-1.9,0-3.4-1.5-3.4-3.4c0-1.9,1.5-3.4,3.4-3.4s3.4,1.5,3.4,3.4
						C32.6,57.5,31,59,29.2,59z M43.8,57.4h-5.3c-0.6,0-1.2-0.5-1.2-1.2c0-0.6,0.5-1.2,1.2-1.2h5.3c0.6,0,1.2,0.5,1.2,1.2
						C45,56.8,44.4,57.4,43.8,57.4z M45.4,52.3h-8.6c-0.6,0-1.2-0.5-1.2-1.2c0-0.6,0.5-1.2,1.2-1.2h8.6c0.6,0,1.2,0.5,1.2,1.2
						C46.6,51.8,46.1,52.3,45.4,52.3z M31.2,46.9c-2.7,0-4.9-2.2-4.9-4.9v-2.5c0-2.7,2.2-4.9,4.9-4.9H51c2.7,0,4.9,2.2,4.9,4.9V42
						c0,2.7-2.2,4.9-4.9,4.9H31.2z M52.7,59c-1.9,0-3.4-1.5-3.4-3.4c0-1.9,1.5-3.4,3.4-3.4s3.4,1.5,3.4,3.4
						C56.1,57.5,54.5,59,52.7,59z"/>
				</g>
				<path class="st4" d="M41.1,18.6C24.5,18.6,11,32.1,11,48.8c0,3.6,0.6,7,1.8,10.2c1.5,4.2,3.9,7.9,7,11l0.1,0.1l21.3,21.3
					l21.2-21.2l0.2-0.2c3.1-3.1,5.5-6.8,7-11c1.2-3.2,1.8-6.6,1.8-10.2C71.3,32.1,57.8,18.6,41.1,18.6z M41.1,74.1
					c-14,0-25.3-11.3-25.3-25.3s11.3-25.3,25.3-25.3s25.3,11.3,25.3,25.3C66.4,62.7,55.1,74.1,41.1,74.1z"/>
			</g>
			<g>
				<path class="st4" d="M86.3,47.1c-7,0-12.7,5.7-12.7,12.7s5.7,12.7,12.7,12.7S99,66.8,99,59.8S93.3,47.1,86.3,47.1z M86.3,69.3
					c-5.3,0-9.6-4.3-9.6-9.6s4.3-9.6,9.6-9.6s9.6,4.3,9.6,9.6C95.9,65.1,91.6,69.3,86.3,69.3z"/>
				<path class="st4" d="M88.4,89.3c0,1.1-0.9,2-2,2l0,0c-1.1,0-2-0.9-2-2V72c0-1.1,0.9-2,2-2l0,0c1.1,0,2,0.9,2,2V89.3z"/>
				<g>
					<path class="st4" d="M78.8,57.6H81c0.4,0,0.7,0,0.9,0.1c0.2,0,0.4,0.1,0.6,0.2c0.2,0.1,0.3,0.3,0.4,0.4
						c0.1,0.2,0.2,0.4,0.2,0.6c0,0.2-0.1,0.5-0.2,0.7c-0.1,0.2-0.3,0.4-0.5,0.5c0.3,0.1,0.6,0.3,0.7,0.5c0.2,0.2,0.3,0.5,0.3,0.8
						c0,0.2-0.1,0.5-0.2,0.7c-0.1,0.2-0.3,0.4-0.5,0.5c-0.2,0.1-0.4,0.2-0.7,0.3c-0.2,0-0.6,0-1.3,0h-1.8L78.8,57.6L78.8,57.6z
						 M79.9,58.4v1.2h0.7c0.4,0,0.7,0,0.8,0c0.2,0,0.3-0.1,0.4-0.2c0.1-0.1,0.2-0.2,0.2-0.4s0-0.3-0.1-0.4c-0.1-0.1-0.2-0.2-0.4-0.2
						c-0.1,0-0.4,0-0.9,0H79.9z M79.9,60.5V62h1c0.4,0,0.6,0,0.7,0c0.2,0,0.3-0.1,0.4-0.2c0.1-0.1,0.2-0.3,0.2-0.5s0-0.3-0.1-0.4
						c-0.1-0.1-0.2-0.2-0.3-0.2s-0.5-0.1-0.9-0.1L79.9,60.5L79.9,60.5L79.9,60.5z"/>
					<path class="st4" d="M84.2,57.6h1.1v2.9c0,0.5,0,0.8,0,0.9c0,0.2,0.2,0.4,0.3,0.5C85.8,62,86,62,86.3,62s0.5-0.1,0.7-0.2
						c0.2-0.1,0.2-0.3,0.3-0.5c0-0.2,0-0.5,0-0.9v-2.9h1.1v2.8c0,0.6,0,1.1-0.1,1.3c-0.1,0.3-0.2,0.5-0.3,0.7s-0.4,0.3-0.6,0.4
						c-0.3,0.1-0.6,0.2-1,0.2c-0.5,0-0.9-0.1-1.1-0.2c-0.3-0.1-0.5-0.3-0.6-0.5c-0.2-0.2-0.3-0.4-0.3-0.6c-0.1-0.3-0.1-0.8-0.1-1.3
						v-2.7H84.2z"/>
					<path class="st4" d="M89.3,61.1l1-0.1c0.1,0.3,0.2,0.6,0.4,0.8s0.4,0.2,0.8,0.2c0.3,0,0.6-0.1,0.8-0.2c0.2-0.1,0.3-0.3,0.3-0.5
						c0-0.1,0-0.2-0.1-0.3s-0.2-0.2-0.4-0.2c-0.1,0-0.4-0.1-0.9-0.2c-0.6-0.1-1-0.3-1.2-0.5c-0.3-0.3-0.5-0.6-0.5-1.1
						c0-0.3,0.1-0.5,0.2-0.8c0.2-0.2,0.4-0.4,0.7-0.5c0.3-0.1,0.6-0.2,1-0.2c0.7,0,1.2,0.1,1.5,0.4c0.3,0.3,0.5,0.7,0.5,1.2h-1.1
						c0-0.3-0.1-0.5-0.3-0.6s-0.4-0.2-0.7-0.2s-0.6,0.1-0.7,0.2c-0.1,0.1-0.2,0.2-0.2,0.3c0,0.1,0.1,0.2,0.2,0.3
						c0.1,0.1,0.5,0.2,1,0.4c0.5,0.1,0.9,0.2,1.2,0.4c0.2,0.1,0.4,0.3,0.6,0.5c0.1,0.2,0.2,0.5,0.2,0.8s-0.1,0.6-0.3,0.9
						c-0.2,0.3-0.4,0.5-0.7,0.6c-0.3,0.1-0.7,0.2-1.2,0.2c-0.7,0-1.2-0.2-1.5-0.5C89.5,62.2,89.3,61.7,89.3,61.1z"/>
				</g>
			</g>
		</g>
	</g>
</g>
<g id="nav03_x5F_轉乘規劃" class="st0">
	<g class="st1">
		<circle class="st13" cx="55" cy="55" r="55"/>
		<path class="st13" d="M17.2,46.1l5.5-17.7l15.4-5l37.7,4.1l30.7,8.3C98.8,15,78.7,0,55,0C24.6,0,0,24.6,0,55s24.6,55,55,55
			c5.4,0,10.6-0.8,15.5-2.2L33.2,85.9L17.2,46.1z"/>
		<path class="st14" d="M110,55c0-6.7-1.2-13.1-3.4-19.1l-30.7-8.3l-37.7-4.1l-15.4,5l-5.5,17.7l16,39.7l37.3,21.9
			C93.3,101.1,110,80,110,55z"/>
		<g>
			<g>
				<path class="st4" d="M35.2,23.3c-10,0-18.1,8.1-18.1,18.1s8.1,18.1,18.1,18.1s18.1-8.1,18.1-18.1S45.2,23.3,35.2,23.3z
					 M35.2,55.1c-7.5,0-13.7-6.1-13.7-13.7c0-7.5,6.1-13.7,13.7-13.7c7.5,0,13.7,6.1,13.7,13.7S42.7,55.1,35.2,55.1z"/>
				<path class="st4" d="M38.1,83.7c0,1.6-1.3,2.9-2.9,2.9l0,0c-1.6,0-2.9-1.3-2.9-2.9V58.9c0-1.6,1.3-2.9,2.9-2.9l0,0
					c1.6,0,2.9,1.3,2.9,2.9V83.7z"/>
				<g>
					<path class="st4" d="M24.5,38.3h3c0.6,0,1,0,1.3,0.1s0.6,0.2,0.8,0.3c0.2,0.2,0.4,0.4,0.6,0.6c0.2,0.3,0.2,0.6,0.2,0.9
						c0,0.4-0.1,0.7-0.3,1c-0.2,0.3-0.4,0.5-0.8,0.7c0.5,0.1,0.8,0.4,1.1,0.7c0.2,0.3,0.4,0.7,0.4,1.1c0,0.3-0.1,0.7-0.2,1
						c-0.2,0.3-0.4,0.6-0.7,0.8c-0.3,0.2-0.6,0.3-1,0.4c-0.3,0-0.9,0-1.8,0.1h-2.6V38.3z M26,39.6v1.8h1c0.6,0,1,0,1.1,0
						c0.3,0,0.5-0.1,0.6-0.3c0.2-0.1,0.2-0.3,0.2-0.6c0-0.2-0.1-0.4-0.2-0.6c-0.1-0.1-0.3-0.2-0.6-0.3c-0.2,0-0.6,0-1.3,0L26,39.6z
						 M26,42.6v2h1.4c0.6,0,0.9,0,1,0c0.2,0,0.4-0.1,0.6-0.3c0.1-0.2,0.2-0.4,0.2-0.6c0-0.2-0.1-0.4-0.2-0.6
						c-0.1-0.2-0.3-0.3-0.5-0.3c-0.2-0.1-0.7-0.1-1.4-0.1H26V42.6z"/>
					<path class="st4" d="M32.1,38.3h1.5v4.1c0,0.6,0,1.1,0.1,1.3c0.1,0.3,0.2,0.6,0.5,0.7c0.2,0.2,0.6,0.3,1,0.3s0.8-0.1,1-0.3
						s0.4-0.4,0.4-0.7s0.1-0.7,0.1-1.3v-4.2h1.5v4c0,0.9,0,1.5-0.1,1.9s-0.2,0.7-0.5,0.9c-0.2,0.3-0.5,0.5-0.9,0.6
						c-0.4,0.2-0.9,0.2-1.5,0.2c-0.7,0-1.3-0.1-1.6-0.3c-0.4-0.2-0.7-0.4-0.9-0.7s-0.4-0.5-0.4-0.8c-0.1-0.4-0.1-1.1-0.1-1.9
						L32.1,38.3L32.1,38.3z"/>
					<path class="st4" d="M39.4,43.4l1.5-0.1c0.1,0.5,0.3,0.9,0.5,1.1c0.2,0.2,0.6,0.3,1.1,0.3s0.9-0.1,1.1-0.3
						c0.2-0.2,0.4-0.5,0.4-0.7s-0.1-0.3-0.2-0.5c-0.1-0.1-0.3-0.2-0.5-0.3s-0.6-0.2-1.2-0.3c-0.8-0.2-1.4-0.5-1.7-0.8
						c-0.5-0.4-0.7-0.9-0.7-1.5c0-0.4,0.1-0.7,0.3-1.1c0.2-0.3,0.5-0.6,0.9-0.8s0.9-0.3,1.5-0.3c0.9,0,1.7,0.2,2.1,0.6
						c0.5,0.4,0.7,1,0.8,1.7l-1.5,0.1c-0.1-0.4-0.2-0.7-0.4-0.8c-0.2-0.2-0.5-0.3-1-0.3c-0.4,0-0.8,0.1-1,0.3
						c-0.2,0.1-0.2,0.3-0.2,0.5s0.1,0.3,0.2,0.5c0.2,0.2,0.7,0.3,1.4,0.5s1.3,0.4,1.7,0.5c0.4,0.2,0.6,0.4,0.8,0.8
						c0.2,0.3,0.3,0.7,0.3,1.2c0,0.4-0.1,0.8-0.4,1.2c-0.2,0.4-0.6,0.7-1,0.8c-0.4,0.2-1,0.3-1.6,0.3c-1,0-1.7-0.2-2.2-0.7
						C39.8,44.9,39.5,44.2,39.4,43.4z"/>
				</g>
			</g>
			<g>
				<path class="st4" d="M84.5,86.6L84.5,86.6C84.5,86.7,84.5,86.6,84.5,86.6z"/>
				<path class="st4" d="M69.7,35.8c-7.4-2.9,6.2-8.2,6.2-8.2C50.8,32.7,64.5,43.8,68.5,46c4,2.3,2.3,9.1-12,16.6
					C42.2,70,42.2,86,42.2,86l42.1,0.6c-0.6-0.1-2.8-1-3.3-11.4c-0.6-12,8-10.3,11.4-20.6C95.9,44.4,77.1,38.7,69.7,35.8z
					 M65.4,71.6c-0.7,3.6-0.9,8.5,0.3,10.2l-7.9-0.3c0,0-1.4-6.5,2.3-10.2c3.8-3.7,6.3-7.7,6.3-8.1h5.3C71.8,63.2,66.1,68,65.4,71.6
					z M79.7,57.6l-5-0.9c0,0,4-3.5,5-7.1s-7.5-8.2-7.5-8.2c1.9,0.6,8.2,3.2,10.8,6.8C85.6,51.8,79.7,57.6,79.7,57.6z"/>
			</g>
		</g>
	</g>
</g>
<g id="nav04_x5F_活動專車" class="st0">
	<g class="st1">
		<circle class="st15" cx="55" cy="55" r="55"/>
		<path class="st15" d="M24.8,36.2l5.9-5.8l4.1-4.3l5.8-5.7l29.2-1.1l12.1,8.3l27.8,30.5c0.1-1,0.1-2.1,0.1-3.1
			c0-30.4-24.6-55-55-55C24.6,0,0,24.6,0,55c0,25.3,17.1,46.6,40.4,53L25.8,82.3L24.8,36.2z"/>
		<path class="st16" d="M109.9,58.1L81.8,27.5l-11.9-8.1l-29.2,1.1l-5.8,5.7l-4.1,4.3l-5.9,5.8l1,46.1L40.4,108
			c4.6,1.3,9.5,2,14.6,2C84.3,110,108.3,87.1,109.9,58.1z"/>
		<g>
			<path class="st4" d="M41.1,77.4c-1.9,0-3.4,1.5-3.4,3.4v6.9c0,1.9,1.5,3.4,3.4,3.4s3.4-1.5,3.4-3.4v-6.9
				C44.6,78.9,43,77.4,41.1,77.4z"/>
			<path class="st4" d="M68.1,77.4c-1.9,0-3.4,1.5-3.4,3.4v6.9c0,1.9,1.5,3.4,3.4,3.4c1.9,0,3.4-1.5,3.4-3.4v-6.9
				C71.5,78.9,70,77.4,68.1,77.4z"/>
			<path class="st4" d="M75.1,26.2h-2.2v3.7c0,0.4,0,0.7-0.1,1c4.3,0.4,7.7,4,7.7,8.5v4.2c0,4.7-3.8,8.5-8.5,8.5H38
				c-4.7,0-8.5-3.8-8.5-8.5v-4.2c0-4.2,3.1-7.7,7.2-8.4c-0.1-0.4-0.1-0.7-0.1-1.1v-3.7h-1.7c-5.6,0-10.1,4.5-10.1,10.1v40.2
				c0,5.6,4.5,10.1,10.1,10.1H36v-5.9c0-2.8,2.3-5.1,5.1-5.1s5.1,2.3,5.1,5.1v5.9H63v-5.9c0-2.8,2.3-5.1,5.1-5.1
				c2.8,0,5.1,2.3,5.1,5.1v5.9h1.9c5.6,0,10.1-4.5,10.1-10.1V36.2C85.2,30.7,80.7,26.2,75.1,26.2z M34.4,73c-3.2,0-5.8-2.6-5.8-5.8
				s2.6-5.8,5.8-5.8s5.8,2.6,5.8,5.8C40.2,70.4,37.6,73,34.4,73z M59.6,70.1h-9.1c-1.1,0-2-0.9-2-2c0-1.1,0.9-2,2-2h9.1
				c1.1,0,2,0.9,2,2S60.7,70.1,59.6,70.1z M62.4,61.4H47.6c-1.1,0-2-0.9-2-2c0-1.1,0.9-2,2-2h14.8c1.1,0,2,0.9,2,2
				C64.4,60.5,63.5,61.4,62.4,61.4z M74.8,73c-3.2,0-5.8-2.6-5.8-5.8s2.6-5.8,5.8-5.8s5.8,2.6,5.8,5.8C80.6,70.4,78,73,74.8,73z"/>
			<path class="st4" d="M66.4,18.8H43.1c-3.6,0-6.5,2.9-6.5,6.5v4.5c0,3.6,2.9,6.5,6.5,6.5h23.4c3.6,0,6.5-2.9,6.5-6.5v-4.5
				C72.9,21.8,70,18.8,66.4,18.8z M67.9,28.9c0,2.1-2.1,3.7-4.7,3.7h-17c-2.6,0-4.7-1.7-4.7-3.7v-2.6c0-2.1,2.1-3.7,4.7-3.7h17
				c2.6,0,4.7,1.7,4.7,3.7V28.9z"/>
			<polygon class="st4" points="47.9,33.7 43.4,33.7 46.6,19.8 51.2,19.8 			"/>
			<polygon class="st4" points="55.5,33.7 51,33.7 54.2,19.8 58.7,19.8 			"/>
			<polygon class="st4" points="63.1,33.7 58.5,33.7 61.8,19.8 66.3,19.8 			"/>
		</g>
	</g>
</g>
<g id="nav04_x5F_活動專車_拷貝" class="st0">
	<circle class="st17" cx="55" cy="55" r="55"/>
	<path class="st18" d="M107.6,71.1L87.1,27.4l-63.8,1.3L21.8,82c0,0,5.5,12,11.6,23.7c6.6,2.8,13.9,4.4,21.5,4.4
		C79.8,110,100.7,93.6,107.6,71.1z"/>
	<g class="st1">
		<g>
			<path class="st4" d="M37.5,70.8c-0.8,0-1.5,0.7-1.5,1.5v3c0,0.8,0.7,1.5,1.5,1.5c0.8,0,1.5-0.7,1.5-1.5v-3
				C39,71.5,38.3,70.8,37.5,70.8z"/>
			<path class="st4" d="M49.2,70.8c-0.8,0-1.5,0.7-1.5,1.5v3c0,0.8,0.7,1.5,1.5,1.5s1.5-0.7,1.5-1.5v-3
				C50.7,71.5,50.1,70.8,49.2,70.8z"/>
			<path class="st4" d="M52.3,48.5h-1V50c0,0.2,0,0.3-0.1,0.4c1.9,0.2,3.3,1.8,3.3,3.7V56c0,2.1-1.7,3.7-3.7,3.7H36.1
				c-2.1,0-3.8-1.7-3.8-3.7v-1.8c0-1.8,1.3-3.4,3.2-3.7c0-0.2-0.1-0.3-0.1-0.5v-1.6h-0.8c-2.4,0-4.4,2-4.4,4.4v17.6
				c0,2.4,2,4.4,4.4,4.4h0.6v-2.6c0-1.3,1-2.3,2.3-2.3s2.3,1,2.3,2.3v2.6h7.3v-2.6c0-1.3,1-2.3,2.3-2.3c1.3,0,2.2,1,2.2,2.3v2.6h0.8
				c2.4,0,4.4-2,4.4-4.4V52.9C56.7,50.4,54.7,48.5,52.3,48.5z M34.5,68.9c-1.4,0-2.5-1.2-2.5-2.5c0-1.3,1.2-2.5,2.5-2.5
				c1.3,0,2.5,1.2,2.5,2.5C37,67.7,35.9,68.9,34.5,68.9z M45.5,67.6h-4c-0.5,0-0.9-0.4-0.9-0.9c0-0.5,0.5-0.8,1-0.8h4
				c0.5,0,0.9,0.4,0.9,0.9C46.5,67.3,46,67.6,45.5,67.6z M46.7,63.8h-6.4c-0.5,0-0.9-0.4-0.9-0.9c0-0.5,0.4-0.9,0.9-0.9h6.4
				c0.5,0,0.9,0.4,0.9,0.9C47.7,63.5,47.2,63.8,46.7,63.8z M52.2,68.9c-1.4,0-2.5-1.2-2.5-2.5c0-1.3,1.2-2.5,2.5-2.5
				c1.4,0,2.5,1.2,2.5,2.5C54.7,67.7,53.6,68.9,52.2,68.9z"/>
			<path class="st4" d="M48.5,45.2H38.3c-1.6,0-2.8,1.3-2.8,2.8v2c0,1.6,1.3,2.8,2.8,2.8h10.3c1.6,0,2.8-1.3,2.8-2.8v-2
				C51.3,46.5,50.1,45.2,48.5,45.2z M49.2,49.6c0,0.9-0.9,1.7-2.1,1.7h-7.4c-1.2,0-2.1-0.8-2.1-1.7v-1.2c0-0.9,0.9-1.7,2.1-1.7h7.4
				c1.2,0,2.1,0.8,2.1,1.7V49.6z"/>
			<polygon class="st4" points="40.4,51.7 38.5,51.7 39.9,45.6 41.8,45.6 			"/>
			<polygon class="st4" points="43.7,51.7 41.7,51.7 43.2,45.6 45.2,45.6 			"/>
			<polygon class="st4" points="47.1,51.7 45.1,51.7 46.5,45.6 48.5,45.6 			"/>
		</g>
		<path class="st4" d="M70.8,38c-3.9-1.5,3.3-4.3,3.3-4.3c-13.2,2.7-6,8.5-3.9,9.7c2.1,1.2,1.2,4.8-6.3,8.7
			c-7.5,3.9-7.5,12.3-7.5,12.3l22.1,0.3c-0.3-0.1-1.5-0.5-1.7-6c-0.3-6.3,4.2-5.4,6-10.8C84.5,42.5,74.6,39.5,70.8,38z M68.5,56.8
			c-0.4,1.9-0.5,4.5,0.2,5.4L64.5,62c0,0-0.7-3.4,1.2-5.4c2-1.9,3.3-4,3.3-4.3h2.8C71.9,52.4,68.9,54.9,68.5,56.8z M76,49.4L73.4,49
			c0,0,2.1-1.8,2.6-3.7s-3.9-4.3-3.9-4.3c1,0.3,4.3,1.7,5.7,3.6C79.1,46.4,76,49.4,76,49.4z"/>
		<path class="st4" d="M85.1,26.2H24.9c-1.8,0-3.3,1.5-3.3,3.3v51.1c0,1.8,1.5,3.3,3.3,3.3h60.3c1.8,0,3.3-1.5,3.3-3.3V29.4
			C88.4,27.6,86.9,26.2,85.1,26.2z M84,76c0,1.8-1.4,3.3-3.2,3.3H29.2c-1.8,0-3.2-1.5-3.2-3.3V34c0-1.8,1.4-3.3,3.2-3.3h51.7
			c1.8,0,3.2,1.5,3.2,3.3L84,76L84,76z"/>
	</g>
</g>
<g id="nav05_x5F_語音查詢" class="st0">
	<g class="st1">
		<circle class="st19" cx="55" cy="55" r="55"/>
		<path class="st19" d="M28.8,45.8l14.4-32.3L68,12.6l36.4,66.6C108,71.9,110,63.7,110,55c0-30.4-24.6-55-55-55S0,24.6,0,55
			c0,28.6,21.8,52.1,49.7,54.7l-21.4-22L28.8,45.8z"/>
		<path class="st20" d="M104.4,79.3L67.1,13.9l-3.9,3L47.1,18l-4-4.3l-3.3,8.4l1.1,8l1.8,3.3l1,3.6l-0.6,2.3l-14.3,6.4L28.2,85
			l21.4,24.8c1.8,0.2,3.5,0.3,5.3,0.3C76.7,110,95.4,97.5,104.4,79.3z"/>
		<g>
			<g>
				<path class="st4" d="M45.7,93.4c0,1.7-1.4,3-3,3l0,0c-1.7,0-3-1.4-3-3v-6.1c0-1.7,1.4-3,3-3l0,0c1.7,0,3,1.4,3,3V93.4z"/>
				<path class="st4" d="M69.7,93.4c0,1.7-1.4,3-3,3l0,0c-1.7,0-3-1.4-3-3v-6.1c0-1.7,1.4-3,3-3l0,0c1.7,0,3,1.4,3,3V93.4z"/>
				<path class="st4" d="M72.8,38.9H37.2c-4.9,0-8.9,4-8.9,8.9v35.6c0,4.9,4,8.9,8.9,8.9h1v-5.2c0-2.5,2-4.5,4.5-4.5s4.5,2,4.5,4.5
					v5.2h14.9v-5.2c0-2.5,2-4.5,4.5-4.5s4.5,2,4.5,4.5v5.2h1.7c4.9,0,8.9-4,8.9-8.9V47.8C81.7,42.9,77.7,38.9,72.8,38.9z M36.8,80.4
					c-2.8,0-5.1-2.3-5.1-5.1s2.3-5.1,5.1-5.1s5.1,2.3,5.1,5.1S39.6,80.4,36.8,80.4z M59,77.8h-8c-1,0-1.8-0.8-1.8-1.8
					s0.8-1.8,1.8-1.8h8c1,0,1.8,0.8,1.8,1.8S60,77.8,59,77.8z M61.5,70.1h-13c-1,0-1.8-0.8-1.8-1.8s0.8-1.8,1.8-1.8h13.1
					c1,0,1.8,0.8,1.8,1.8S62.5,70.1,61.5,70.1z M40,61.9c-4.2,0-7.5-3.4-7.5-7.5v-3.8c0-4.2,3.4-7.5,7.5-7.5h30
					c4.2,0,7.5,3.4,7.5,7.5v3.8c0,4.2-3.4,7.5-7.5,7.5H40z M72.6,80.4c-2.8,0-5.1-2.3-5.1-5.1s2.3-5.1,5.1-5.1
					c2.8,0,5.1,2.3,5.1,5.1S75.4,80.4,72.6,80.4z"/>
			</g>
			<g>
				<path class="st4" d="M41.1,23.3c0-3.3,1.3-6.2,3.5-8.4l-1.4-1.4c-2.5,2.5-4,5.9-4,9.7c0,2.4,0.6,4.6,1.7,6.5l1.7-0.9
					C41.6,27.2,41.1,25.3,41.1,23.3z"/>
				<path class="st4" d="M43.2,23.3c0,1.7,0.4,3.2,1.2,4.6l1.5-0.8c-0.6-1.1-1-2.4-1-3.8c0-2.2,0.9-4.2,2.4-5.7l-1.2-1.2
					C44.3,18.2,43.2,20.6,43.2,23.3z"/>
				<path class="st4" d="M66.8,13.5l-1.4,1.4c2.1,2.1,3.5,5.1,3.5,8.4c0,2.1-0.5,4-1.4,5.7l1.7,0.9c1.1-2,1.7-4.2,1.7-6.6
					C70.9,19.5,69.3,16,66.8,13.5z"/>
				<path class="st4" d="M65.1,23.3c0,1.4-0.4,2.7-1,3.8l1.5,0.8c0.8-1.4,1.2-3,1.2-4.6c0-2.7-1.1-5.1-2.8-6.9l-1.2,1.2
					C64.2,19.1,65.1,21.1,65.1,23.3z"/>
				<rect x="52.6" y="27.2" class="st4" width="4.3" height="6.5"/>
				<path class="st4" d="M46.2,40.2c0-2.9,2.3-5.2,5.2-5.2h6.9c2.9,0,5.2,2.3,5.2,5.2v0.3h2.8v-1.2c0-3.8-3.1-6.9-6.8-6.9h-9.1
					c-3.8,0-6.9,3.1-6.9,6.9v1.2h2.8L46.2,40.2L46.2,40.2z"/>
				<path class="st4" d="M49.3,16.7v10.9h10.9V16.7H49.3z M58.3,25.7h-7.1v-7.1h7.1V25.7z"/>
				<rect x="53" y="20.4" class="st4" width="3.6" height="3.6"/>
			</g>
		</g>
	</g>
</g>
<g id="nav06_x5F_E-bus簡圖總覽" class="st0">
	<g class="st1">
		<path class="st21" d="M110,55c0,30.4-24.6,55-55,55S0,85.4,0,55S24.6,0,55,0S110,24.6,110,55z"/>
		<path class="st22" d="M110,55c0-3.8-0.4-7.6-1.1-11.2L85.6,29.7l-58.1,2L22.6,37l-0.9,43.3c0,0,14.4,16.9,25,29
			c2.7,0.4,5.5,0.6,8.3,0.6C85.4,110,110,85.4,110,55z"/>
		<path class="st4" d="M84.1,30.1H26.4c-2.5,0-4.5,2-4.5,4.5v43.7c0,2.5,2,4.5,4.5,4.5h57.7c2.5,0,4.5-2,4.5-4.5V34.6
			C88.6,32.1,86.6,30.1,84.1,30.1z M81.3,33.6c1.4,0,2.5,1.1,2.5,2.6s-1.1,2.5-2.5,2.5c-1.4,0-2.6-1.1-2.6-2.5
			C78.7,34.8,79.8,33.6,81.3,33.6z M73,33.6c1.4,0,2.6,1.1,2.6,2.6s-1.1,2.5-2.6,2.5c-1.4,0-2.6-1.1-2.6-2.5
			C70.4,34.8,71.6,33.6,73,33.6z M64.8,33.6c1.4,0,2.6,1.1,2.6,2.6s-1.1,2.5-2.6,2.5c-1.4,0-2.6-1.1-2.6-2.5
			C62.2,34.8,63.3,33.6,64.8,33.6z M83.9,77.8H26.7V42.3h57.2V77.8z"/>
		<g>
			<polygon class="st4" points="35.5,55.2 34.3,57 51.6,69.1 53.2,67.5 			"/>
			<polygon class="st4" points="50.2,67.9 51.9,69.3 65.4,53.1 64,51.3 			"/>
			<polygon class="st4" points="63.3,50.3 62.1,52.1 76.6,61.6 78.1,59.9 			"/>
			<polygon class="st4" points="51.6,69.1 53.4,70.3 55.1,68.8 53.2,67.5 			"/>
			<circle class="st4" cx="34.8" cy="56" r="4.4"/>
			<circle class="st4" cx="76.6" cy="59.8" r="3.7"/>
			<circle class="st4" cx="52.3" cy="66.2" r="6.4"/>
			<circle class="st4" cx="65.2" cy="53.2" r="4.8"/>
		</g>
	</g>
</g>
<g id="nav07_x5F_最新消息" class="st0">
	<path class="st23" d="M110,55c0,30.4-24.6,55-55,55S0,85.4,0,55S24.6,0,55,0S110,24.6,110,55z"/>
	<path class="st24" d="M109.5,62.7c-4.3-4.4-11.2-10.1-11.9-11l-8-1.5L47,50l-5,10.6L23.6,39.4H13.2l7.3,6.6l-5.3,21.7L10,69.4
		l28.7,38.1c5.2,1.6,10.6,2.5,16.3,2.5C82.8,110,105.7,89.4,109.5,62.7z"/>
	<g class="st1">
		<path class="st4" d="M18,39.8l23.8,27.8l-0.6,2.3h-0.5L21.9,48.1l-3.5,13.2c-0.8,2.9-0.9,4.9-0.5,6c0.4,1.1,1.3,1.8,2.8,2.2
			L20.6,70c-2.7-0.2-4.5-0.3-5.5-0.3c-1.1,0-2.8,0.1-5.1,0.3l0.1-0.5c1.7-0.4,2.9-1.1,3.8-2.3s1.7-3.2,2.5-6.1l3.9-14.8l-1.5-1.7
			c-2.1-2.4-4-3.9-5.6-4.6l0.1-0.5L18,39.8z M42.5,64.8l-21.4-25h3.2L41.7,60l3.1-11.7c0.5-2,0.8-3.5,0.8-4.5s-0.3-1.8-0.9-2.5
			c-0.6-0.7-1.5-1.1-2.6-1.3l0.1-0.5c0,0,0.3,0,0.9,0.1c2.3,0.2,3.9,0.3,4.8,0.3c0.8,0,2.7-0.1,5.7-0.3l-0.1,0.5
			c-1,0.1-1.9,0.5-2.8,1.2c-0.9,0.6-1.5,1.4-2.1,2.4c-0.5,1-1,2.3-1.5,4L42.5,64.8z"/>
		<path class="st4" d="M47.7,50.2h0.6v20.1h-1.2c-0.4,0-1.3,0.1-2.7,0.2v-0.3c0.7-0.2,1.2-0.5,1.5-1c0.4-0.5,0.6-1,0.7-1.7
			s0.2-2.1,0.2-4.2v-8c0-1.8-0.2-3.1-0.7-3.8s-1-1.1-1.7-1.3V50C45.1,50,46.2,50.1,47.7,50.2z M57,70.3h-7.3V50.2H55
			c1,0,2.9-0.1,5.7-0.2c0,0.4,0,0.7,0,0.9c0,0.3,0,0.8,0.1,1.8c0,0.6,0.1,1,0.1,1v0.5h-0.3C60,53,59.5,52.3,58.9,52
			c-0.6-0.3-1.6-0.5-3.2-0.5h-2.9c-0.5,0-0.9,0-1.3,0.1c-0.2,0.4-0.3,1.5-0.4,3.1V56v3.1h4c1.5,0,2.5-0.1,3-0.4s0.9-0.9,1.2-1.9h0.4
			c-0.1,1.1-0.1,2.1-0.1,3c0,0.5,0,1.2,0.1,2.1c0,0.3,0.1,0.8,0.1,1.5h-0.4c-0.1-1.1-0.4-1.9-1-2.3c-0.6-0.4-1.4-0.6-2.6-0.6h-4.6
			v4.2c0,1.6,0.1,3,0.3,4.2C52,69,52.6,69,53.1,69h2.8c1.5,0,2.7-0.2,3.4-0.5c0.8-0.4,1.6-1.2,2.4-2.5H62c-0.1,0.6-0.3,1.3-0.6,2
			c-0.3,1-0.6,1.9-0.7,2.6C59.3,70.4,58.1,70.3,57,70.3z"/>
		<path class="st4" d="M60.3,50.4l7.9,18.2L67.6,70h-0.3l-6.7-15.4c-1-2.4-2.2-3.7-3.6-4v-0.3C57.6,50.3,58.7,50.4,60.3,50.4z
			 M70.5,50.4L78,68.6L77.5,70h-0.4l-4.6-11.2L69,66.9l-7.2-16.5c0.1,0,0.7,0,1.8-0.1l0.8-0.1l1.2-0.1v0.3c-0.8,0.3-1.1,0.8-1.1,1.4
			c0,0.6,0.3,1.6,0.9,3l3.7,8.5l2.8-6.3l-1.1-2.7c-0.5-1.2-1-2.1-1.5-2.6s-1.1-0.9-2-1.2v-0.3C68.3,50.3,69.4,50.4,70.5,50.4z
			 M75.4,55.1l3.4,8.2l2.8-7c0.6-1.6,1-2.8,1-3.6c0-1.1-0.5-1.8-1.6-2.1v-0.3c1.3,0.1,2.3,0.2,2.9,0.2c1.1,0,2.1-0.1,3.2-0.2v0.3
			c-0.8,0.5-1.5,1.1-2,1.8s-1.2,2-1.9,3.9L78.8,67L72,50.5c1.5-0.1,2.7-0.1,3.8-0.2v0.3c-0.8,0.3-1.2,0.8-1.2,1.5
			C74.5,52.7,74.8,53.8,75.4,55.1z"/>
	</g>
	<g class="st1">
		<path class="st4" d="M83.8,62.8h0.4c0.5,1.6,1.3,2.9,2.5,3.9s2.4,1.6,3.8,1.6c1.1,0,2-0.3,2.8-0.8c0.7-0.5,1.1-1.2,1.1-1.9
			c0-0.8-0.4-1.4-1.1-1.9c-0.8-0.5-2.2-0.9-4.3-1.3c-2-0.4-3.5-1.1-4.5-1.9c-1-0.9-1.5-1.9-1.5-3.2c0-1,0.3-1.9,1-2.8
			c-0.1,0.4-0.1,0.8-0.1,1.2c0,0.8,0.3,1.6,0.8,2.4c0.5,0.7,1.1,1.2,2,1.6c0.8,0.4,2.3,0.8,4.3,1.3c1.9,0.5,3.3,1,4.1,1.7
			c0.8,0.7,1.3,1.6,1.3,2.9c0,1.3-0.5,2.4-1.6,3.2c-1,0.8-2.6,1.2-4.6,1.2c-1.8,0-3.8-0.4-6.1-1.3c0-1.3,0-2.2-0.1-2.7
			s-0.1-1-0.1-1.6C83.8,63.9,83.8,63.4,83.8,62.8z M98.3,57.3h-0.4c-0.6-1.6-1.5-2.7-2.8-3.5c-1.3-0.8-2.6-1.2-3.9-1.2
			c-1,0-1.9,0.2-2.7,0.6c-0.8,0.4-1.2,1-1.2,1.8c0,0.6,0.3,1,0.9,1.4c0.5,0.3,1.6,0.6,3.2,1c3.3,0.7,5.4,1.6,6.4,2.7
			c1,1.1,1.4,2.2,1.4,3.4c0,1-0.5,2.2-1.4,3.5c0.1-0.6,0.2-1.2,0.2-1.6c0-1.3-0.4-2.5-1.3-3.6c-0.9-1.1-2.9-2-6.1-2.7
			c-1.9-0.4-3.2-0.9-3.9-1.5c-0.7-0.6-1.1-1.4-1.1-2.5c0-1.2,0.5-2.2,1.6-2.9c1.1-0.7,2.7-1.1,4.8-1.1c2,0,4.1,0.4,6.2,1.2
			c0,0.4-0.1,0.6-0.1,0.7c0,0.6,0,1.3,0.1,2C98.3,55.6,98.3,56.3,98.3,57.3z"/>
	</g>
</g>
<g id="nav08_x5F_相關連結" class="st0">
	<g class="st1">
		<circle class="st25" cx="55" cy="55" r="55"/>
		<path class="st25" d="M24,37.6l4.7-5l55.9-1.9l24.5,14.6C104.5,19.5,82,0,55,0C24.6,0,0,24.6,0,55c0,28.8,22.2,52.4,50.4,54.8
			C40.3,98.4,23.2,78.7,23.2,78.7L24,37.6z"/>
		<path class="st26" d="M110,55c0-3.3-0.3-6.6-0.9-9.8L84.7,30.6l-55.9,1.9l-4.7,5l-0.8,41.2c0,0,17.1,19.7,27.2,31.1
			c1.5,0.1,3.1,0.2,4.6,0.2C85.4,110,110,85.4,110,55z"/>
		<g>
			<path class="st4" d="M83.8,28.6H26.2c-2.5,0-4.5,2-4.5,4.5v43.7c0,2.5,2,4.5,4.5,4.5h57.7c2.5,0,4.5-2,4.5-4.5V33.1
				C88.3,30.7,86.3,28.6,83.8,28.6z M81,32.2c1.4,0,2.6,1.1,2.6,2.6c0,1.4-1.1,2.5-2.6,2.5c-1.4,0-2.6-1.1-2.6-2.5
				C78.4,33.3,79.6,32.2,81,32.2z M72.7,32.2c1.4,0,2.6,1.1,2.6,2.6c0,1.4-1.1,2.5-2.6,2.5c-1.4,0-2.5-1.1-2.5-2.5
				C70.2,33.3,71.3,32.2,72.7,32.2z M64.5,32.2c1.4,0,2.6,1.1,2.6,2.6c0,1.4-1.1,2.5-2.6,2.5c-1.4,0-2.6-1.1-2.6-2.5
				C61.9,33.3,63.1,32.2,64.5,32.2z M83.6,76.4H26.4V40.8h57.2V76.4z"/>
			<path class="st4" d="M53.5,69c0,1,0,1.6-0.1,1.8c-0.1,0.4-0.3,0.6-0.7,0.6h-2.3c-0.6,0-0.9-0.2-1-0.7c0-0.2,0-0.6,0-1.4
				c-2.5,0-6.5,0-11.8,0c0,0.9,0,1.4,0,1.5c-0.1,0.5-0.3,0.7-0.7,0.7h-2.6c-0.5,0-0.7-0.3-0.7-0.9c0-0.5,0-1.1,0-1.6
				c-0.9-0.2-1.3-0.8-1.4-1.9c-0.3-2.8-0.4-6.3-0.4-10.7c0-3.1,0.1-5.9,0.2-8.4c0-1,0.6-1.6,1.6-1.8c2.1-0.3,5.5-0.4,10.1-0.4
				c3.9,0,7.1,0.1,9.5,0.4c0.6,0.1,1,0.2,1.2,0.4c0.3,0.2,0.4,0.6,0.5,1.3c0.3,2.8,0.4,6.6,0.4,11.3c0,3.2-0.1,6-0.2,8.1
				C55,68.2,54.5,68.8,53.5,69z M52.9,50.6c-0.1-0.7-0.5-1-1.2-1.1c-5.7-0.2-11.2-0.2-16.3,0c-0.4,0-0.7,0.1-0.8,0.2
				c-0.2,0.1-0.3,0.4-0.4,0.7c-0.2,2.1-0.2,4.2,0,6.1c0.1,0.6,0.5,1,1.2,1c0.9,0.1,3.3,0.1,7.2,0.1c4.5,0,7.5,0,9.2-0.2
				c0.7-0.1,1-0.4,1.1-0.9C53.1,54.5,53.1,52.5,52.9,50.6z M38.2,65c0-0.5-0.2-1-0.5-1.3c-0.4-0.3-0.8-0.5-1.3-0.5
				c-1.1,0-1.8,0.6-1.8,1.8c0,0.6,0.1,1,0.5,1.3s0.8,0.5,1.3,0.5s0.9-0.2,1.3-0.5C38,66,38.2,65.5,38.2,65z M46.1,47.9v-0.3
				c0-0.2-0.1-0.3-0.2-0.3c-0.6,0-1.4-0.1-2.6-0.1c-1.2,0-2.1,0-2.7,0.1c-0.1,0-0.2,0.1-0.2,0.2V48c0,0.2,0.1,0.2,0.3,0.2h5.2
				C46,48.2,46.1,48.1,46.1,47.9z M52.8,65c0-0.5-0.2-1-0.6-1.3c-0.4-0.3-0.8-0.4-1.2-0.4c-1.1,0-1.8,0.6-1.8,1.8
				c0,0.5,0.1,1,0.5,1.3c0.4,0.3,0.8,0.5,1.4,0.5c0.5,0,0.9-0.2,1.2-0.5C52.6,65.9,52.8,65.5,52.8,65z"/>
			<rect x="59.2" y="48" class="st4" width="20.7" height="2.9"/>
			<rect x="59.2" y="57" class="st4" width="20.7" height="2.9"/>
			<rect x="59.2" y="66" class="st4" width="20.7" height="2.9"/>
		</g>
	</g>
</g>
<g id="nav09_x5F_意見回饋" class="st0">
	<g class="st1">
		<circle class="st27" cx="55" cy="55" r="55"/>
		<path class="st28" d="M105.6,76.5L90.1,35.2l-4.2-1.9H24.2c0,0-5,0.5-4.9,4.9s0.1,35.7,0.1,35.7l23,34.8c4,0.9,8.2,1.5,12.6,1.5
			C77.7,110,97.2,96.2,105.6,76.5z"/>
		<g>
			<path class="st4" d="M51.6,65.9l-31-31c-0.8,0.9-1.2,2-1.2,3.2v33.7c0,2.7,2.2,4.9,4.9,4.9h61.6c2.7,0,4.9-2.2,4.9-4.9V38.1
				c0-1.2-0.5-2.3-1.2-3.2l-31,31C56.5,67.8,53.5,67.8,51.6,65.9z"/>
			<path class="st4" d="M24.2,33.3h-0.1l27.5,27.5c1.9,1.9,5,1.9,6.9,0L86,33.3h-0.1H24.2z"/>
		</g>
	</g>
</g>
<g id="nav10_x5F_系統管理" class="st0">
	<g class="st1">
		<path class="st29" d="M110,55c0,30.4-24.6,55-55,55S0,85.4,0,55S24.6,0,55,0S110,24.6,110,55z"/>
		<path class="st29" d="M23.4,44.7l3.5-9.2l5.9-9.6l13.8-2.6L78.1,48l29.8,22.2c1.4-4.9,2.2-10,2.2-15.3c0-30.4-24.6-55-55-55
			C24.6,0,0,24.6,0,55s24.6,55,55,55c5.3,0,10.5-0.8,15.3-2.2l-17.4-23L23.4,44.7z"/>
		<path class="st30" d="M107.8,70.3L78.1,48L46.6,23.2l-13.8,2.6l-5.9,9.6l-3.5,9.2l29.5,40.1l17.5,23.1
			C88.4,102.6,102.6,88.3,107.8,70.3z"/>
		<g>
			<path class="st4" d="M85.5,62.3h-2.9c-0.4-1.4-0.9-2.7-1.6-3.9l2-2c0.9-0.9,0.9-2.4,0-3.4l-3-3.1c-0.9-0.9-2.4-0.9-3.4,0l-2,2
				c-1.2-0.7-2.5-1.2-3.9-1.6v-2.8c0-1.3-1.1-2.4-2.4-2.4h-4.4c-1.3,0-2.4,1.1-2.4,2.4v2.8c-1.4,0.4-2.7,0.9-3.9,1.6l-2-2
				c-0.9-0.9-2.4-0.9-3.4,0L49.1,53c-0.9,0.9-0.9,2.4,0,3.4l2,2c-0.7,1.2-1.2,2.5-1.6,3.9h-2.9c-1.3,0-2.4,1.1-2.4,2.4v4.4
				c0,1.3,1.1,2.4,2.4,2.4h2.9c0.4,1.4,0.9,2.7,1.6,3.9l-2,2c-0.9,0.9-0.9,2.4,0,3.4l3.1,3.1c0.9,0.9,2.4,0.9,3.4,0l2-2
				c1.2,0.7,2.5,1.2,3.9,1.6v2.9c0,1.3,1.1,2.4,2.4,2.4h4.4c1.3,0,2.4-1.1,2.4-2.4v-2.9c1.4-0.4,2.7-0.9,3.9-1.6l2,2
				c0.9,0.9,2.4,0.9,3.4,0l3.1-3.1c0.9-0.9,0.9-2.4,0-3.4l-2-2c0.7-1.2,1.2-2.5,1.6-3.9h2.9c1.3,0,2.4-1.1,2.4-2.4v-4.4
				C87.9,63.4,86.8,62.3,85.5,62.3z M70.7,74.8c-0.7,0.4-1.4,0.7-2.2,0.9S67,76,66.1,76c-0.8,0-1.6-0.1-2.3-0.3
				c-0.8-0.2-1.5-0.5-2.2-0.9c-1.4-0.8-2.5-1.9-3.3-3.3c-0.4-0.7-0.7-1.4-0.9-2.2c-0.2-0.7-0.3-1.5-0.3-2.4c0-0.8,0.1-1.6,0.3-2.3
				c0.2-0.8,0.5-1.5,0.9-2.2c0.8-1.4,1.9-2.5,3.3-3.3l0,0c0.7-0.4,1.4-0.7,2.2-0.9l0,0c0.8-0.2,1.5-0.3,2.3-0.3
				c0.8,0,1.6,0.1,2.3,0.3l0,0c0.8,0.2,1.5,0.5,2.2,0.9c1.4,0.8,2.5,1.9,3.3,3.3l0,0c0.4,0.7,0.7,1.4,0.9,2.2l0,0
				c0.2,0.7,0.3,1.5,0.3,2.3c0,0.8-0.1,1.6-0.3,2.3l0,0c-0.2,0.8-0.5,1.6-0.9,2.2C73.2,72.9,72.1,74,70.7,74.8L70.7,74.8z"/>
			<path class="st4" d="M52.9,40.4l-2-0.9c0.2-1.1,0.2-2.1,0.1-3.1l2-0.7c0.9-0.3,1.4-1.4,1.1-2.3L53,30.2c-0.3-0.9-1.4-1.4-2.3-1.1
				l-2,0.7c-0.6-0.9-1.3-1.6-2.1-2.3l0.9-1.9c0.4-0.9,0-2-0.9-2.4l-3-1.4c-0.9-0.4-2,0-2.4,0.9l-0.9,2c-1.1-0.2-2.1-0.2-3.1-0.1
				l-0.7-2c-0.3-0.9-1.4-1.4-2.3-1.1L31,22.6c-0.9,0.3-1.4,1.4-1.1,2.3l0.7,2c-0.9,0.6-1.6,1.3-2.3,2.1l-1.9-0.9
				c-0.9-0.4-2,0-2.4,0.9l-1.4,3c-0.4,0.9,0,2,0.9,2.4l2,0.9c-0.2,1.1-0.2,2.1-0.1,3.1l-2,0.7c-0.9,0.3-1.4,1.4-1.1,2.3l1.2,3.1
				c0.3,0.9,1.4,1.4,2.3,1.1l2-0.7c0.6,0.8,1.3,1.6,2.1,2.3l-0.9,2c-0.4,0.9,0,2,0.9,2.4l3,1.4c0.9,0.4,2,0,2.4-0.9l0.9-2
				c1.1,0.2,2.1,0.2,3.1,0.1l0.7,2c0.3,0.9,1.4,1.4,2.3,1.1l3.1-1.1c0.9-0.3,1.4-1.4,1.1-2.3l-0.7-2c0.8-0.6,1.6-1.3,2.3-2.1l2,0.9
				c0.9,0.4,2,0,2.4-0.9l1.4-3C54.2,41.9,53.8,40.8,52.9,40.4z M38.8,44.3c-0.6,0.1-1.2,0-1.8-0.1s-1.2-0.3-1.7-0.5
				c-0.6-0.3-1-0.6-1.5-1s-0.9-0.8-1.2-1.3c-0.7-1-1.1-2.1-1.2-3.3c-0.1-0.6,0-1.2,0.1-1.8s0.2-1.2,0.5-1.7c0.3-0.6,0.6-1,1-1.5
				s0.8-0.9,1.3-1.2c1-0.7,2.1-1.1,3.3-1.2l0,0c0.6-0.1,1.2,0,1.8,0.1l0,0c0.6,0.1,1.2,0.3,1.7,0.5c0.6,0.3,1,0.6,1.5,1l0,0
				c0.5,0.4,0.9,0.8,1.2,1.3c0.7,1,1.1,2.1,1.2,3.3l0,0c0.1,0.6,0,1.2-0.1,1.8l0,0c-0.1,0.6-0.3,1.2-0.5,1.7c-0.3,0.5-0.6,1-1,1.5
				l0,0c-0.4,0.5-0.9,0.9-1.3,1.2C41.2,43.8,40,44.2,38.8,44.3L38.8,44.3z"/>
		</g>
	</g>
</g>
<g id="nav11_x5F_回上一頁" class="st0">
	<path class="st31" d="M110,55c0,30.4-24.6,55-55,55S0,85.4,0,55S24.6,0,55,0S110,24.6,110,55z"/>
	<path class="st32" d="M108.4,68.2L57.3,27.1L20.2,55.9l29.2,53.8c1.8,0.2,3.7,0.3,5.6,0.3C80.8,110,102.5,92.2,108.4,68.2z"/>
	<g class="st1">
		<path class="st4" d="M88.5,55.9c0,3.5-2.8,6.4-6.4,6.4H37c-3.5,0-6.4-2.8-6.4-6.4l0,0c0-3.5,2.8-6.4,6.4-6.4h45.1
			C85.7,49.6,88.5,52.4,88.5,55.9L88.5,55.9z"/>
		<path class="st4" d="M57.3,75.8L37.4,55.9L57.3,36c2.5-2.5,2.5-6.5,0-9s-6.5-2.5-9,0L27.8,47.6l-6.1,6.1c-0.7,0.7-1.1,1.4-1.4,2.2
			c0.3,0.8,0.8,1.6,1.4,2.2l6.1,6.1l20.5,20.5c2.5,2.5,6.5,2.5,9,0C59.8,82.3,59.8,78.3,57.3,75.8z"/>
	</g>
</g>
<g id="動態簡圖" class="st0">
	<g id="nav06_E-bus簡圖總覽" class="st1">
		<path class="st33" d="M110,55c0,30.4-24.6,55-55,55S0,85.4,0,55S24.6,0,55,0S110,24.6,110,55z"/>
		<path class="st34" d="M110,55c0-3.7-0.3-7.4-1-11L86,30l-59,2l-4,5l-1,43l25,29c2.6,0.5,5.3,0.9,8,1C85.4,110,110,85.4,110,55z"/>
		<circle class="st4" cx="34" cy="49" r="4"/>
		<circle class="st4" cx="34" cy="71" r="4"/>
		<circle class="st4" cx="76" cy="49" r="4"/>
		<circle class="st4" cx="55" cy="49" r="3"/>
		<circle class="st4" cx="55" cy="71" r="3"/>
		<circle class="st4" cx="66" cy="60" r="3"/>
		<circle class="st4" cx="45" cy="60" r="3"/>
		<circle class="st4" cx="76" cy="71" r="4"/>
		<path class="st4" d="M85,30H26c-2.2,0-4,1.8-4,4v45c0,2.2,1.8,4,4,4h59c2.2,0,4-1.8,4-4V34C89,31.8,87.2,30,85,30z M73.6,33.6
			c1.5,0,2.7,1.2,2.7,2.7c0,1.5-1.2,2.7-2.7,2.7s-2.7-1.2-2.7-2.7C70.9,34.8,72.1,33.6,73.6,33.6z M65.8,33.6c1.5,0,2.7,1.2,2.7,2.7
			c0,1.5-1.2,2.7-2.7,2.7c-1.5,0-2.7-1.2-2.7-2.7C63.1,34.8,64.3,33.6,65.8,33.6z M83.8,78H27.1V42h56.6V78z M81.4,39
			c-1.5,0-2.7-1.2-2.7-2.7c0-1.5,1.2-2.7,2.7-2.7c1.5,0,2.7,1.2,2.7,2.7C84.2,37.8,82.9,39,81.4,39z"/>
	</g>
	<g id="圖層_3" class="st1">
	</g>
	<path class="st35" d="M34,47h41v3H34V47z M35,59h41v3H35V59z"/>
	<path class="st35" d="M77,49v13h-3V49H77z"/>
	<path class="st35" d="M36,59v12h-3V59H36z"/>
	<path class="st35" d="M34,70h41v3H34V70z"/>
</g>
<g id="附近站牌">
	<g id="nav06_E-bus簡圖總覽_1_">
		<path class="st36" d="M110,55c0,30.4-24.6,55-55,55S0,85.4,0,55S24.6,0,55,0S110,24.6,110,55z"/>
		<path class="st37" d="M55.5,24.2L42.2,31l-4,11.5l19.3,67.4c30.4,0,52.5-25.4,52.5-55.8c0-3.7-0.6-7.3-1.3-11L55.5,24.2z"/>
	</g>
	<g>
		<g>
			<path class="st4" d="M54.2,23.8c-10.4,0-18.8,8.4-18.8,18.8c0,2,0.3,4,0.9,5.8C37.7,53.1,53,94,53,94s16.3-37.5,18.7-44.8
				c0.8-2,1.2-4.3,1.2-6.6C73,32.2,64.6,23.8,54.2,23.8z M54.2,57.4c-8.1,0-14.7-6.6-14.7-14.7c0-8.1,6.6-14.7,14.7-14.7
				c8.1,0,14.7,6.6,14.7,14.7C68.9,50.8,62.3,57.4,54.2,57.4z"/>
			<path class="st4" d="M60.5,32.4H47.9c-1.3,0-2.3,1.1-2.3,2.5v13.6c0,0.9,0.5,1.7,1.1,2.2v1.5c0,0.5,0.8,0.9,1.7,0.9
				c0.9,0,1.7-0.4,1.7-0.9v-1.1h2.1v0h4.4v0h1.6v1.1c0,0.5,0.8,0.9,1.7,0.9s1.7-0.4,1.7-0.9v-1.5c0.6-0.5,1.1-1.2,1.1-2.1V34.9
				C62.8,33.5,61.8,32.4,60.5,32.4z M50.6,33.5h7.2v0.7h-7.2V33.5z M52,46.9h-4.6v-1.7H52V46.9z M56.7,50.9h-4.4v-1.3h4.4V50.9z
				 M61.2,46.9h-4.6v-1.7h4.6V46.9z M61.4,41.1c0,0.2-0.3,0.3-0.7,0.3h-13c-0.4,0-0.7-0.1-0.7-0.3v-6c0-0.2,0.3-0.3,0.7-0.3h13
				c0.4,0,0.7,0.1,0.7,0.3V41.1z"/>
		</g>
	</g>
</g>
<g id="PDA" class="st0">
	<g id="nav06_E-bus簡圖總覽_2_" class="st1">
		<path class="st38" d="M110,55c0,30.4-24.6,55-55,55S0,85.4,0,55S24.6,0,55,0S110,24.6,110,55z"/>
		<path class="st39" d="M65.4,25.2l-25.1,2.5l0.4,50l16.9,32.3c30.4,0,52.5-25.4,52.5-55.8c0-3.7-0.6-7.3-1.3-11L65.4,25.2z"/>
	</g>
	<g class="st1">
		<path class="st4" d="M65.9,24.2H43.1c-2.2,0-4,1.8-4,4v46.4c0,2.2,1.8,4,4,4h22.9c2.2,0,4-1.8,4-4V28.2
			C69.9,26,68.1,24.2,65.9,24.2z M48.9,26.6h11.3c0.3,0,0.5,0.4,0.5,1c0,0.5-0.2,1-0.5,1H48.9c-0.3,0-0.5-0.4-0.5-1
			C48.3,27,48.6,26.6,48.9,26.6z M54.5,74.6c-1.4,0-2.5-1.1-2.5-2.5c0-1.4,1.1-2.5,2.5-2.5c1.4,0,2.5,1.1,2.5,2.5
			S55.9,74.6,54.5,74.6z M66.9,66H42.1V30.9h24.8C66.9,30.9,66.9,66,66.9,66z"/>
	</g>
</g>
</svg>
