<?xml version="1.0" encoding="utf-8"?>
<!-- Generator: Adobe Illustrator 21.0.0, SVG Export Plug-In . SVG Version: 6.00 Build 0)  -->
<svg version="1.1" id="圖層_1" xmlns="http://www.w3.org/2000/svg" xmlns:xlink="http://www.w3.org/1999/xlink" x="0px" y="0px"
	 viewBox="0 0 50 50" style="enable-background:new 0 0 50 50;" xml:space="preserve">
<style type="text/css">
	.st0{fill:#6480E2;}
	.st1{fill:#FFFFFF;}
</style>
<circle class="st0" cx="25" cy="25" r="25"/>
<g>
	<path class="st1" d="M25.1,27.8L25.1,27.8c0.3,0,0.5-0.1,0.7-0.2l0.1,0c0,0,0,0,0,0l0.6-0.5L42,14.3c0,0-0.1-0.1-0.1-0.1H8.4
		c0,0-0.1,0-0.1,0l16.1,13.3C24.5,27.7,24.8,27.8,25.1,27.8z M8.2,16v18.8l11.5-9.3L8.2,16z M30.5,25.6L42,34.9V16.1L30.5,25.6z
		 M26.8,28.6c-0.5,0.4-1.1,0.6-1.7,0.6c-0.6,0-1.2-0.2-1.7-0.6l-2.6-2.2L8.2,36.7v0c0,0.1,0.1,0.2,0.2,0.2h33.5
		c0.1,0,0.2-0.1,0.2-0.2v0L29.4,26.5L26.8,28.6z"/>
</g>
</svg>
