<svg xmlns="http://www.w3.org/2000/svg" viewBox="0 0 50 50"><circle cx="25" cy="25" r="25" fill="#EE998F"/><path fill="#D1857F" d="M50 28L39 12l-6-1-1-2-13-1-1 2-5 3-1 16-1 6 4 13a25 25 0 0 0 35-20z"/><g fill="#FFF"><path d="M19 35l-2 2v3l2 2 1-2v-3l-1-2zM32 35l-2 2v3l2 2 1-2v-3l-1-2z"/><path d="M35 11h-1v2c2 0 4 2 4 4v2c0 3-2 4-4 4H17c-2 0-4-1-4-4v-2c0-2 1-4 3-4v-2h-1c-2 0-4 2-4 5v19c0 3 2 5 4 5h1v-3l2-2c2 0 3 1 3 2v3h8v-3c0-1 1-2 3-2l2 2v3h1c3 0 5-2 5-5V16c0-3-2-5-5-5zM15 33c-1 0-2-1-2-3l2-2c2 0 3 1 3 2 0 2-1 3-3 3zm13-1h-5a1 1 0 0 1 0-2h4l1 1v1zm1-4h-7a1 1 0 0 1 0-2h7l1 1-1 1zm6 5c-2 0-3-1-3-3 0-1 1-2 3-2l3 2c0 2-2 3-3 3z"/><path d="M31 7H20c-2 0-4 1-4 3v2c0 2 2 3 3 3h12c2 0 3-1 3-3v-2c0-1-1-3-3-3zm1 5c0 1-1 2-3 2h-8l-2-2v-1l2-2h8l2 2v1z"/><path d="M22 13v-2l-1 1v-1 2h-1v-3h1v1l1-1v3zM24 10v1l-1 1v1-1-1l-1-1h1v1-1h1zM26 12v1h-1v-3h1v2zm0-1v-1h-1v1h1zm0 1v-1h-1v1h1zM28 12v1h-1v-3 2h1v-2 2zM30 12l-1 1h-1v-1h1l-1-1v-1h2v1h-1v-1 1h1v1z"/></g></svg>