<svg xmlns="http://www.w3.org/2000/svg" viewBox="0 0 50 50"><circle cx="25" cy="25" r="25" fill="#BA79B0"/><g fill="#FFF"><path d="M15 10v1h1v1h-1v1h1v1h-1v2h1v1h-1v1h1v1h-1v1h1v1h-1v1h1v1h-1v1h1v1h-1v1h1v1h-1v1h1v1h-1v2h1v1h-1v1h1v1h-1v1h1v1h-1v1h1v1h-1v2h22V10H15zm15 26h-8v-2h8v2zm2-17H19v-4h13v4zM13 11v1h1v-1h-1zM13 14v1h1v-2h-1zM13 16v1h1v-1h-1zM13 18v1h1v-1h-1zM13 20v1h1v-1h-1zM13 22v1h1v-1h-1zM13 24v1h1v-1h-1zM13 27v1h1v-1h-1zM13 29v1h1v-1h-1zM13 31v1h1v-1h-1zM13 33v1h1v-1h-1zM13 35v1c0 1 0 0 0 0h1v-1h-1zM13 38v1h1v-2h-1z"/></g></svg>