<svg xmlns="http://www.w3.org/2000/svg" viewBox="0 0 148 38"><g fill="#F9F8CC"><path d="M102 4h-3l-2 7 1-7h-2V3h6v1zM106 11h-3l-1-1-1-1 1-2h3l-1-1h-2V5h3l1 1v5zm-1-1V8h-2l-1 1 1 1h2zM107 11h-1l1-6h1l-1 6zm2-7h-1V3h1v1zM113 8l-1 2h-3l-1 2 1-7h2l2 1v2zm-1 0V7l-1-1h-1l-1 4h1l2-1V8zM118 8h-3v1l1 1h2v1h-2c-2 0-3-1-2-3l1-2 2-1 1 1v2zm0-1l-1-1-2 1h3zM120 11h-1l1-6h1l-1 6zm1-7h-1V3h1v1zM129 8h-4v1l1 1h2v1h-2c-1 0-2-1-2-3l1-2 2-1 2 1v2zm-1-1l-1-1-2 1h3zM136 8a3 3 0 0 1-3 3h-4l2-8h4l1 1 1 1-1 2v1zm-1 0V7h-4l-1 3h3l2-2zm1-3l-1-1h-3l-1 2h3l2-1zM141 11h-3c-1 0-2-1-1-3V5h1v3 1l1 1h1l1-5h1l-1 6zM146 9l-2 2h-2v-1h2l1-1V8h-1l-2-1 1-1 2-1h2v1h-3l-1 1h2l1 1v1zM7 9h13l2-8h4l-2 8h13l-1 4H23c-1 10 2 17 9 20l-1 4c-7-2-11-8-12-16A35 35 0 0 1 1 37l1-4c5-2 9-5 12-8l6-12H6l1-4zM42 21h21l-1 3H47l-2 2h13l1-1h3v2l-2 1h-7l-1 2h13l-1 3H52l-1 1h14l-1 3H33l1-3h13l1-1H36v-3h13v-2h-8l-1-1 3-3h-2l1-3zm-4-4h26c3 1 4 2 4 5l-1 3h-4l1-3c0-1 0-2-2-2H42l-1 5h-4l2-8zm4-14h13V1h4v2h13l-1 2H58v2h12v2H41l1-2h12V5H41l1-2zm25 8h1v3l-1 1-1 1H40l1-6h26zm-24 3h22l1-1H44l-1 1z"/><path d="M84 2h3l-8 35h-4l1-4-10 2 1-4 10-2 3-13h-9l1-4h9l3-10zm17 12l-1 4-10 2-2 10c0 2 0 3 2 3l7-1-1 4-8 1c-3 0-4-3-4-7a241 241 0 0 1 7-28h4l-4 14 10-2zM110 15h3c-3 5-6 10-12 13l1-3c4-3 7-6 8-10zm1 8h3l-9 11v1h9l1-1 1-4h3l-2 5c0 1-1 2-3 2h-12l-1-1v-2l10-11zm8-8c-1 4 0 7 3 10l-1 3c-3-4-5-8-5-13h3zM128 17h8v-2h3l-1 1h9l-1 3h-8l-1 1h4l3 2v4l-2 3c-1 2-2 2-3 2h-4l-1 2h9l-1 2h-8l-1 3h-2v-3h-8v-2h9v-2h-7l3-11h7v-1h-8l1-2zm6 6h-5v2h5v-2zm-1 4h-5v2h5v-2zm3-2h6l-1-2h-4l-1 2zm-1 4h4l2-2h-5l-1 2z"/></g></svg>