<svg xmlns="http://www.w3.org/2000/svg" viewBox="0 0 110 110"><circle cx="55" cy="55" r="55" fill="#D379D3"/><path fill="#D379D3" d="M24 38l5-5 56-2 24 14a55 55 0 1 0-59 65L23 79l1-41z"/><path fill="#A362A5" d="M110 55l-1-10-24-14-56 2-5 5-1 41 28 31h4c30 0 55-25 55-55z"/><g fill="#FFF"><path d="M84 29H26c-2 0-4 2-4 4v44c0 2 2 4 4 4h58c2 0 4-2 4-4V33c0-2-2-4-4-4zm-3 3c1 0 3 1 3 3l-3 2-3-2c0-2 2-3 3-3zm-8 0c1 0 2 1 2 3l-2 2c-2 0-3-1-3-2 0-2 1-3 3-3zm-8 0c1 0 2 1 2 3 0 1-1 2-3 2l-2-2c0-2 1-3 3-3zm19 44H26V41h58v35z"/><path d="M54 69l-1 2h-3-1v-2H38v2h-4v-2l-2-2a105 105 0 0 1 0-19l2-2a83 83 0 0 1 20 1l1 1a114 114 0 0 1 0 19l-1 2zm-1-18l-1-1a221 221 0 0 0-17 0h-1v7l1 1h8l9-1h1v-6zM38 65v-1l-2-1-1 2v1l1 1 2-1v-1zm8-17v-1h-5l-1 1h6zm7 17l-1-1-1-1-2 2 1 1 1 1 1-1 1-1zM59 48h21v3H59zM59 57h21v3H59zM59 66h21v3H59z"/></g></svg>