<svg xmlns="http://www.w3.org/2000/svg" id="圖層_1" viewBox="0 0 110 110"><style>.st0{display:none}.st1{display:inline}.st2{fill:#95cef9}.st3{fill:#608fba}.st4{fill:#fff}.st7{font-family:&apos;CalistoMT&apos;}.st13{fill:#6ebec3}.st15{fill:#8ec2b6}.st19{fill:#f1b14f}.st25{fill:#d379d3}.st29{fill:#bc965b}</style><g id="nav01_x5F_會員登入" class="st0"><g class="st1"><circle cx="55" cy="55" r="55" class="st2"/><path d="M105.9 75.9L66.6 26.3 35.3 48.5 48.4 66l-12 6.6-10.8 15.1 14.3 20.2c4.8 1.4 9.8 2.1 15.1 2.1 23 0 42.6-14.1 50.9-34.1z" class="st3"/><path d="M75.4 42.7c0 11.3-9.1 20.4-20.4 20.4S34.6 54 34.6 42.7 43.7 22.3 55 22.3s20.4 9.1 20.4 20.4zM55 65.3c-14 0-25.9 9.5-29.4 22.4h58.8C80.9 74.8 69 65.3 55 65.3z" class="st4"/></g></g><g id="nav01_x5F_會員登入n" class="st0"><g class="st1"><circle cx="55" cy="55" r="55" class="st2"/><path d="M110 55c0-1.6-.1-3.2-.2-4.8-10.9-9.9-22.7-20.4-22.7-20.4L56.9 33l-11-5.2-34.1 43.5L54.9 110h.1c30.4 0 55-24.6 55-55z" class="st3"/><path d="M75.1 63.1c-14 0-20.4 9.5-23.9 22.4H93c-1.3-14-3.9-22.4-17.9-22.4zM92.5 41.8c0 10.5-8.5 19-19 19-4.6 0-8.8-1.6-12.1-4.4-.8-.7 4.7.3 8.7-5.4.6-.9-12.6.6-13 .3-2.6-2-2.6-6.1-2.6-9.6 0-10.5 8.5-19 19-19 10.4.1 19 8.6 19 19.1z" class="st4"/><circle cx="55.4" cy="42.3" r="4.7" class="st4"/><path fill="#73a9c9" d="M47.7 68.9c0 2.7-2.2 4.9-4.9 4.9H16.3c-2.7 0-4.9-2.2-4.9-4.9V31.4c0-2.7 2.2-4.9 4.9-4.9h26.5c2.7 0 4.9 2.2 4.9 4.9v24.1l10.7-1-10.7 9.1v5.3z"/><path fill="#2c678c" d="M46.5 67.9c0 2.5-2 4.6-4.6 4.6H17.1c-2.5 0-4.6-2-4.6-4.6V32.8c0-2.5 2-4.6 4.6-4.6h24.8c2.5 0 4.6 2 4.6 4.6v24.6l7.6-.8-7.6 6.4v4.9z"/><text transform="translate(17.8945 47.9355)" class="st4 st7" font-size="16.9625">Hi!</text><text transform="translate(13.9282 65.2676)" class="st4 st7" font-size="11.8649">Guest</text></g></g><g id="nav02_x5F_公車動態"><circle cx="55" cy="55" r="55" fill="#a1e5a7"/><path fill="none" d="M12 52l6.1-21 16.6-11h16.6L110 58.7c.1-1.2.1-2.5.1-3.7 0-30.4-24.6-55-55-55C24.6 0 0 24.6 0 55s24.6 55 55 55c3.5 0 6.9-.3 10.2-1L41.1 91.4 12 52z"/><path fill="#6fb272" d="M109.9 58.7L51.2 21l-16.6-1-16.5 11L12 52l29.1 39.4L65.2 109c24.3-4.5 43-25.1 44.7-50.3z"/><path d="M35.1 67.6c0 1.1-.9 2-2 2s-2-.9-2-2v-4c0-1.1.9-2 2-2s2 .9 2 2v4zM50.8 67.6c0 1.1-.9 2-2 2s-2-.9-2-2v-4c0-1.1.9-2 2-2s2 .9 2 2v4z" class="st4"/><path d="M52.8 31.8H29.4c-3.2 0-5.9 2.6-5.9 5.9v23.4c0 3.2 2.6 5.9 5.9 5.9h.7v-3.4c0-1.6 1.3-3 3-3 1.6 0 3 1.3 3 3V67h9.8v-3.4c0-1.6 1.3-3 3-3 1.6 0 3 1.3 3 3V67H53c3.2 0 5.9-2.6 5.9-5.9V37.7c-.2-3.3-2.8-5.9-6.1-5.9zM29.2 59c-1.9 0-3.4-1.5-3.4-3.4s1.5-3.4 3.4-3.4 3.4 1.5 3.4 3.4S31 59 29.2 59zm14.6-1.6h-5.3c-.6 0-1.2-.5-1.2-1.2 0-.6.5-1.2 1.2-1.2h5.3c.6 0 1.2.5 1.2 1.2 0 .6-.6 1.2-1.2 1.2zm1.6-5.1h-8.6c-.6 0-1.2-.5-1.2-1.2 0-.6.5-1.2 1.2-1.2h8.6c.6 0 1.2.5 1.2 1.2s-.5 1.2-1.2 1.2zm-14.2-5.4c-2.7 0-4.9-2.2-4.9-4.9v-2.5c0-2.7 2.2-4.9 4.9-4.9H51c2.7 0 4.9 2.2 4.9 4.9V42c0 2.7-2.2 4.9-4.9 4.9H31.2zM52.7 59c-1.9 0-3.4-1.5-3.4-3.4s1.5-3.4 3.4-3.4 3.4 1.5 3.4 3.4-1.6 3.4-3.4 3.4z" class="st4"/><path d="M41.1 18.6C24.5 18.6 11 32.1 11 48.8c0 3.6.6 7 1.8 10.2 1.5 4.2 3.9 7.9 7 11l.1.1 21.3 21.3 21.2-21.2.2-.2c3.1-3.1 5.5-6.8 7-11 1.2-3.2 1.8-6.6 1.8-10.2-.1-16.7-13.6-30.2-30.3-30.2zm0 55.5c-14 0-25.3-11.3-25.3-25.3s11.3-25.3 25.3-25.3 25.3 11.3 25.3 25.3c0 13.9-11.3 25.3-25.3 25.3z" class="st4"/><g><path d="M86.3 47.1c-7 0-12.7 5.7-12.7 12.7s5.7 12.7 12.7 12.7S99 66.8 99 59.8s-5.7-12.7-12.7-12.7zm0 22.2c-5.3 0-9.6-4.3-9.6-9.6s4.3-9.6 9.6-9.6 9.6 4.3 9.6 9.6c0 5.4-4.3 9.6-9.6 9.6z" class="st4"/><path d="M88.4 89.3c0 1.1-.9 2-2 2s-2-.9-2-2V72c0-1.1.9-2 2-2s2 .9 2 2v17.3zM78.8 57.6H81c.4 0 .7 0 .9.1.2 0 .4.1.6.2.2.1.3.3.4.4.1.2.2.4.2.6 0 .2-.1.5-.2.7-.1.2-.3.4-.5.5.3.1.6.3.7.5.2.2.3.5.3.8 0 .2-.1.5-.2.7-.1.2-.3.4-.5.5-.2.1-.4.2-.7.3h-3.1l-.1-5.3zm1.1.8v1.2h1.5c.2 0 .3-.1.4-.2.1-.1.2-.2.2-.4s0-.3-.1-.4c-.1-.1-.2-.2-.4-.2h-1.6zm0 2.1V62h1.7c.2 0 .3-.1.4-.2.1-.1.2-.3.2-.5s0-.3-.1-.4c-.1-.1-.2-.2-.3-.2s-.5-.1-.9-.1l-1-.1zM84.2 57.6h1.1v3.8c0 .2.2.4.3.5.2.1.4.1.7.1s.5-.1.7-.2c.2-.1.2-.3.3-.5v-3.8h1.1v2.8c0 .6 0 1.1-.1 1.3-.1.3-.2.5-.3.7s-.4.3-.6.4c-.3.1-.6.2-1 .2-.5 0-.9-.1-1.1-.2-.3-.1-.5-.3-.6-.5-.2-.2-.3-.4-.3-.6-.1-.3-.1-.8-.1-1.3v-2.7h-.1zM89.3 61.1l1-.1c.1.3.2.6.4.8s.4.2.8.2c.3 0 .6-.1.8-.2.2-.1.3-.3.3-.5 0-.1 0-.2-.1-.3s-.2-.2-.4-.2c-.1 0-.4-.1-.9-.2-.6-.1-1-.3-1.2-.5-.3-.3-.5-.6-.5-1.1 0-.3.1-.5.2-.8.2-.2.4-.4.7-.5.3-.1.6-.2 1-.2.7 0 1.2.1 1.5.4.3.3.5.7.5 1.2h-1.1c0-.3-.1-.5-.3-.6s-.4-.2-.7-.2-.6.1-.7.2c-.1.1-.2.2-.2.3 0 .1.1.2.2.3.1.1.5.2 1 .4.5.1.9.2 1.2.4.2.1.4.3.6.5.1.2.2.5.2.8s-.1.6-.3.9c-.2.3-.4.5-.7.6-.3.1-.7.2-1.2.2-.7 0-1.2-.2-1.5-.5-.4-.2-.6-.7-.6-1.3z" class="st4"/></g></g><g id="nav03_x5F_轉乘規劃" class="st0"><g class="st1"><circle cx="55" cy="55" r="55" class="st13"/><path d="M17.2 46.1l5.5-17.7 15.4-5 37.7 4.1 30.7 8.3C98.8 15 78.7 0 55 0 24.6 0 0 24.6 0 55s24.6 55 55 55c5.4 0 10.6-.8 15.5-2.2L33.2 85.9l-16-39.8z" class="st13"/><path fill="#5a9c9e" d="M110 55c0-6.7-1.2-13.1-3.4-19.1l-30.7-8.3-37.7-4.1-15.4 5-5.5 17.7 16 39.7 37.3 21.9C93.3 101.1 110 80 110 55z"/><path d="M35.2 23.3c-10 0-18.1 8.1-18.1 18.1s8.1 18.1 18.1 18.1 18.1-8.1 18.1-18.1-8.1-18.1-18.1-18.1zm0 31.8c-7.5 0-13.7-6.1-13.7-13.7 0-7.5 6.1-13.7 13.7-13.7 7.5 0 13.7 6.1 13.7 13.7s-6.2 13.7-13.7 13.7z" class="st4"/><path d="M38.1 83.7c0 1.6-1.3 2.9-2.9 2.9-1.6 0-2.9-1.3-2.9-2.9V58.9c0-1.6 1.3-2.9 2.9-2.9 1.6 0 2.9 1.3 2.9 2.9v24.8zM24.5 38.3h3c.6 0 1 0 1.3.1s.6.2.8.3l.6.6c.2.3.2.6.2.9 0 .4-.1.7-.3 1-.2.3-.4.5-.8.7.5.1.8.4 1.1.7.2.3.4.7.4 1.1 0 .3-.1.7-.2 1-.2.3-.4.6-.7.8-.3.2-.6.3-1 .4-.3 0-.9 0-1.8.1h-2.6v-7.7zm1.5 1.3v1.8h2.1c.3 0 .5-.1.6-.3.2-.1.2-.3.2-.6 0-.2-.1-.4-.2-.6-.1-.1-.3-.2-.6-.3h-1.3-.8zm0 3v2h2.4c.2 0 .4-.1.6-.3.1-.2.2-.4.2-.6 0-.2-.1-.4-.2-.6-.1-.2-.3-.3-.5-.3-.2-.1-.7-.1-1.4-.1H26v-.1zM32.1 38.3h1.5v4.1c0 .6 0 1.1.1 1.3.1.3.2.6.5.7.2.2.6.3 1 .3s.8-.1 1-.3.4-.4.4-.7.1-.7.1-1.3v-4.2h1.5v4c0 .9 0 1.5-.1 1.9s-.2.7-.5.9c-.2.3-.5.5-.9.6-.4.2-.9.2-1.5.2-.7 0-1.3-.1-1.6-.3-.4-.2-.7-.4-.9-.7s-.4-.5-.4-.8c-.1-.4-.1-1.1-.1-1.9l-.1-3.8zM39.4 43.4l1.5-.1c.1.5.3.9.5 1.1.2.2.6.3 1.1.3s.9-.1 1.1-.3c.2-.2.4-.5.4-.7s-.1-.3-.2-.5c-.1-.1-.3-.2-.5-.3s-.6-.2-1.2-.3c-.8-.2-1.4-.5-1.7-.8-.5-.4-.7-.9-.7-1.5 0-.4.1-.7.3-1.1.2-.3.5-.6.9-.8s.9-.3 1.5-.3c.9 0 1.7.2 2.1.6.5.4.7 1 .8 1.7l-1.5.1c-.1-.4-.2-.7-.4-.8-.2-.2-.5-.3-1-.3-.4 0-.8.1-1 .3-.2.1-.2.3-.2.5s.1.3.2.5c.2.2.7.3 1.4.5s1.3.4 1.7.5c.4.2.6.4.8.8.2.3.3.7.3 1.2 0 .4-.1.8-.4 1.2-.2.4-.6.7-1 .8-.4.2-1 .3-1.6.3-1 0-1.7-.2-2.2-.7-.6-.4-.9-1.1-1-1.9z" class="st4"/><g><path d="M84.5 86.6c0 .1 0 0 0 0zM69.7 35.8c-7.4-2.9 6.2-8.2 6.2-8.2-25.1 5.1-11.4 16.2-7.4 18.4 4 2.3 2.3 9.1-12 16.6C42.2 70 42.2 86 42.2 86l42.1.6c-.6-.1-2.8-1-3.3-11.4-.6-12 8-10.3 11.4-20.6 3.5-10.2-15.3-15.9-22.7-18.8zm-4.3 35.8c-.7 3.6-.9 8.5.3 10.2l-7.9-.3s-1.4-6.5 2.3-10.2c3.8-3.7 6.3-7.7 6.3-8.1h5.3c.1 0-5.6 4.8-6.3 8.4zm14.3-14l-5-.9s4-3.5 5-7.1-7.5-8.2-7.5-8.2c1.9.6 8.2 3.2 10.8 6.8 2.6 3.6-3.3 9.4-3.3 9.4z" class="st4"/></g></g></g><g id="nav04_x5F_活動專車" class="st0"><g class="st1"><circle cx="55" cy="55" r="55" class="st15"/><path d="M24.8 36.2l5.9-5.8 4.1-4.3 5.8-5.7 29.2-1.1 12.1 8.3 27.8 30.5c.1-1 .1-2.1.1-3.1 0-30.4-24.6-55-55-55C24.6 0 0 24.6 0 55c0 25.3 17.1 46.6 40.4 53L25.8 82.3l-1-46.1z" class="st15"/><path fill="#74968b" d="M109.9 58.1L81.8 27.5l-11.9-8.1-29.2 1.1-5.8 5.7-4.1 4.3-5.9 5.8 1 46.1L40.4 108c4.6 1.3 9.5 2 14.6 2 29.3 0 53.3-22.9 54.9-51.9z"/><path d="M41.1 77.4c-1.9 0-3.4 1.5-3.4 3.4v6.9c0 1.9 1.5 3.4 3.4 3.4s3.4-1.5 3.4-3.4v-6.9c.1-1.9-1.5-3.4-3.4-3.4zM68.1 77.4c-1.9 0-3.4 1.5-3.4 3.4v6.9c0 1.9 1.5 3.4 3.4 3.4s3.4-1.5 3.4-3.4v-6.9c0-1.9-1.5-3.4-3.4-3.4z" class="st4"/><path d="M75.1 26.2h-2.2v3.7c0 .4 0 .7-.1 1 4.3.4 7.7 4 7.7 8.5v4.2c0 4.7-3.8 8.5-8.5 8.5H38c-4.7 0-8.5-3.8-8.5-8.5v-4.2c0-4.2 3.1-7.7 7.2-8.4-.1-.4-.1-.7-.1-1.1v-3.7h-1.7c-5.6 0-10.1 4.5-10.1 10.1v40.2c0 5.6 4.5 10.1 10.1 10.1H36v-5.9c0-2.8 2.3-5.1 5.1-5.1s5.1 2.3 5.1 5.1v5.9H63v-5.9c0-2.8 2.3-5.1 5.1-5.1s5.1 2.3 5.1 5.1v5.9h1.9c5.6 0 10.1-4.5 10.1-10.1V36.2c0-5.5-4.5-10-10.1-10zM34.4 73c-3.2 0-5.8-2.6-5.8-5.8s2.6-5.8 5.8-5.8 5.8 2.6 5.8 5.8c0 3.2-2.6 5.8-5.8 5.8zm25.2-2.9h-9.1c-1.1 0-2-.9-2-2s.9-2 2-2h9.1c1.1 0 2 .9 2 2s-.9 2-2 2zm2.8-8.7H47.6c-1.1 0-2-.9-2-2s.9-2 2-2h14.8c1.1 0 2 .9 2 2s-.9 2-2 2zM74.8 73c-3.2 0-5.8-2.6-5.8-5.8s2.6-5.8 5.8-5.8 5.8 2.6 5.8 5.8c0 3.2-2.6 5.8-5.8 5.8z" class="st4"/><path d="M66.4 18.8H43.1c-3.6 0-6.5 2.9-6.5 6.5v4.5c0 3.6 2.9 6.5 6.5 6.5h23.4c3.6 0 6.5-2.9 6.5-6.5v-4.5c-.1-3.5-3-6.5-6.6-6.5zm1.5 10.1c0 2.1-2.1 3.7-4.7 3.7h-17c-2.6 0-4.7-1.7-4.7-3.7v-2.6c0-2.1 2.1-3.7 4.7-3.7h17c2.6 0 4.7 1.7 4.7 3.7v2.6z" class="st4"/><path d="M47.9 33.7h-4.5l3.2-13.9h4.6zM55.5 33.7H51l3.2-13.9h4.5zM63.1 33.7h-4.6l3.3-13.9h4.5z" class="st4"/></g></g><g id="nav04_x5F_活動專車_拷貝" class="st0"><circle cx="55" cy="55" r="55" fill="#5156af"/><path fill="#3f3f82" d="M107.6 71.1L87.1 27.4l-63.8 1.3L21.8 82s5.5 12 11.6 23.7c6.6 2.8 13.9 4.4 21.5 4.4 24.9-.1 45.8-16.5 52.7-39z"/><g class="st1"><path d="M37.5 70.8c-.8 0-1.5.7-1.5 1.5v3c0 .8.7 1.5 1.5 1.5s1.5-.7 1.5-1.5v-3c0-.8-.7-1.5-1.5-1.5zM49.2 70.8c-.8 0-1.5.7-1.5 1.5v3c0 .8.7 1.5 1.5 1.5s1.5-.7 1.5-1.5v-3c0-.8-.6-1.5-1.5-1.5z" class="st4"/><path d="M52.3 48.5h-1V50c0 .2 0 .3-.1.4 1.9.2 3.3 1.8 3.3 3.7V56c0 2.1-1.7 3.7-3.7 3.7H36.1c-2.1 0-3.8-1.7-3.8-3.7v-1.8c0-1.8 1.3-3.4 3.2-3.7 0-.2-.1-.3-.1-.5v-1.6h-.8c-2.4 0-4.4 2-4.4 4.4v17.6c0 2.4 2 4.4 4.4 4.4h.6v-2.6c0-1.3 1-2.3 2.3-2.3s2.3 1 2.3 2.3v2.6h7.3v-2.6c0-1.3 1-2.3 2.3-2.3 1.3 0 2.2 1 2.2 2.3v2.6h.8c2.4 0 4.4-2 4.4-4.4V52.9c-.1-2.5-2.1-4.4-4.5-4.4zM34.5 68.9c-1.4 0-2.5-1.2-2.5-2.5s1.2-2.5 2.5-2.5 2.5 1.2 2.5 2.5-1.1 2.5-2.5 2.5zm11-1.3h-4c-.5 0-.9-.4-.9-.9s.5-.8 1-.8h4c.5 0 .9.4.9.9s-.5.8-1 .8zm1.2-3.8h-6.4c-.5 0-.9-.4-.9-.9s.4-.9.9-.9h6.4c.5 0 .9.4.9.9.1.6-.4.9-.9.9zm5.5 5.1c-1.4 0-2.5-1.2-2.5-2.5s1.2-2.5 2.5-2.5c1.4 0 2.5 1.2 2.5 2.5s-1.1 2.5-2.5 2.5z" class="st4"/><path d="M48.5 45.2H38.3c-1.6 0-2.8 1.3-2.8 2.8v2c0 1.6 1.3 2.8 2.8 2.8h10.3c1.6 0 2.8-1.3 2.8-2.8v-2c-.1-1.5-1.3-2.8-2.9-2.8zm.7 4.4c0 .9-.9 1.7-2.1 1.7h-7.4c-1.2 0-2.1-.8-2.1-1.7v-1.2c0-.9.9-1.7 2.1-1.7h7.4c1.2 0 2.1.8 2.1 1.7v1.2z" class="st4"/><path d="M40.4 51.7h-1.9l1.4-6.1h1.9zM43.7 51.7h-2l1.5-6.1h2zM47.1 51.7h-2l1.4-6.1h2zM70.8 38c-3.9-1.5 3.3-4.3 3.3-4.3-13.2 2.7-6 8.5-3.9 9.7 2.1 1.2 1.2 4.8-6.3 8.7-7.5 3.9-7.5 12.3-7.5 12.3l22.1.3c-.3-.1-1.5-.5-1.7-6-.3-6.3 4.2-5.4 6-10.8 1.7-5.4-8.2-8.4-12-9.9zm-2.3 18.8c-.4 1.9-.5 4.5.2 5.4l-4.2-.2s-.7-3.4 1.2-5.4c2-1.9 3.3-4 3.3-4.3h2.8c.1.1-2.9 2.6-3.3 4.5zm7.5-7.4l-2.6-.4s2.1-1.8 2.6-3.7-3.9-4.3-3.9-4.3c1 .3 4.3 1.7 5.7 3.6 1.3 1.8-1.8 4.8-1.8 4.8z" class="st4"/><path d="M85.1 26.2H24.9c-1.8 0-3.3 1.5-3.3 3.3v51.1c0 1.8 1.5 3.3 3.3 3.3h60.3c1.8 0 3.3-1.5 3.3-3.3V29.4c-.1-1.8-1.6-3.2-3.4-3.2zM84 76c0 1.8-1.4 3.3-3.2 3.3H29.2c-1.8 0-3.2-1.5-3.2-3.3V34c0-1.8 1.4-3.3 3.2-3.3h51.7c1.8 0 3.2 1.5 3.2 3.3L84 76z" class="st4"/></g></g><g id="nav05_x5F_語音查詢" class="st0"><g class="st1"><circle cx="55" cy="55" r="55" class="st19"/><path d="M28.8 45.8l14.4-32.3 24.8-.9 36.4 66.6C108 71.9 110 63.7 110 55c0-30.4-24.6-55-55-55S0 24.6 0 55c0 28.6 21.8 52.1 49.7 54.7l-21.4-22 .5-41.9z" class="st19"/><path fill="#c1883e" d="M104.4 79.3L67.1 13.9l-3.9 3L47.1 18l-4-4.3-3.3 8.4 1.1 8 1.8 3.3 1 3.6-.6 2.3-14.3 6.4-.6 39.3 21.4 24.8c1.8.2 3.5.3 5.3.3 21.8-.1 40.5-12.6 49.5-30.8z"/><path d="M45.7 93.4c0 1.7-1.4 3-3 3-1.7 0-3-1.4-3-3v-6.1c0-1.7 1.4-3 3-3 1.7 0 3 1.4 3 3v6.1zM69.7 93.4c0 1.7-1.4 3-3 3-1.7 0-3-1.4-3-3v-6.1c0-1.7 1.4-3 3-3 1.7 0 3 1.4 3 3v6.1z" class="st4"/><path d="M72.8 38.9H37.2c-4.9 0-8.9 4-8.9 8.9v35.6c0 4.9 4 8.9 8.9 8.9h1v-5.2c0-2.5 2-4.5 4.5-4.5s4.5 2 4.5 4.5v5.2h14.9v-5.2c0-2.5 2-4.5 4.5-4.5s4.5 2 4.5 4.5v5.2h1.7c4.9 0 8.9-4 8.9-8.9V47.8c0-4.9-4-8.9-8.9-8.9zm-36 41.5c-2.8 0-5.1-2.3-5.1-5.1s2.3-5.1 5.1-5.1 5.1 2.3 5.1 5.1-2.3 5.1-5.1 5.1zM59 77.8h-8c-1 0-1.8-.8-1.8-1.8s.8-1.8 1.8-1.8h8c1 0 1.8.8 1.8 1.8s-.8 1.8-1.8 1.8zm2.5-7.7h-13c-1 0-1.8-.8-1.8-1.8s.8-1.8 1.8-1.8h13.1c1 0 1.8.8 1.8 1.8s-.9 1.8-1.9 1.8zM40 61.9c-4.2 0-7.5-3.4-7.5-7.5v-3.8c0-4.2 3.4-7.5 7.5-7.5h30c4.2 0 7.5 3.4 7.5 7.5v3.8c0 4.2-3.4 7.5-7.5 7.5H40zm32.6 18.5c-2.8 0-5.1-2.3-5.1-5.1s2.3-5.1 5.1-5.1 5.1 2.3 5.1 5.1-2.3 5.1-5.1 5.1z" class="st4"/><g><path d="M41.1 23.3c0-3.3 1.3-6.2 3.5-8.4l-1.4-1.4c-2.5 2.5-4 5.9-4 9.7 0 2.4.6 4.6 1.7 6.5l1.7-.9c-1-1.6-1.5-3.5-1.5-5.5z" class="st4"/><path d="M43.2 23.3c0 1.7.4 3.2 1.2 4.6l1.5-.8c-.6-1.1-1-2.4-1-3.8 0-2.2.9-4.2 2.4-5.7l-1.2-1.2c-1.8 1.8-2.9 4.2-2.9 6.9zM66.8 13.5l-1.4 1.4c2.1 2.1 3.5 5.1 3.5 8.4 0 2.1-.5 4-1.4 5.7l1.7.9c1.1-2 1.7-4.2 1.7-6.6 0-3.8-1.6-7.3-4.1-9.8z" class="st4"/><path d="M65.1 23.3c0 1.4-.4 2.7-1 3.8l1.5.8c.8-1.4 1.2-3 1.2-4.6 0-2.7-1.1-5.1-2.8-6.9l-1.2 1.2c1.4 1.5 2.3 3.5 2.3 5.7zM52.6 27.2h4.3v6.5h-4.3z" class="st4"/><path d="M46.2 40.2c0-2.9 2.3-5.2 5.2-5.2h6.9c2.9 0 5.2 2.3 5.2 5.2v.3h2.8v-1.2c0-3.8-3.1-6.9-6.8-6.9h-9.1c-3.8 0-6.9 3.1-6.9 6.9v1.2h2.8l-.1-.3zM49.3 16.7v10.9h10.9V16.7H49.3zm9 9h-7.1v-7.1h7.1v7.1z" class="st4"/><path d="M53 20.4h3.6V24H53z" class="st4"/></g></g></g><g id="nav06_x5F_E-bus簡圖總覽" class="st0"><g class="st1"><path fill="#f5d029" d="M110 55c0 30.4-24.6 55-55 55S0 85.4 0 55 24.6 0 55 0s55 24.6 55 55z"/><path fill="#ceac1d" d="M110 55c0-3.8-.4-7.6-1.1-11.2L85.6 29.7l-58.1 2-4.9 5.3-.9 43.3s14.4 16.9 25 29c2.7.4 5.5.6 8.3.6 30.4.1 55-24.5 55-54.9z"/><path d="M84.1 30.1H26.4c-2.5 0-4.5 2-4.5 4.5v43.7c0 2.5 2 4.5 4.5 4.5h57.7c2.5 0 4.5-2 4.5-4.5V34.6c0-2.5-2-4.5-4.5-4.5zm-2.8 3.5c1.4 0 2.5 1.1 2.5 2.6s-1.1 2.5-2.5 2.5-2.6-1.1-2.6-2.5 1.1-2.6 2.6-2.6zm-8.3 0c1.4 0 2.6 1.1 2.6 2.6s-1.1 2.5-2.6 2.5c-1.4 0-2.6-1.1-2.6-2.5s1.2-2.6 2.6-2.6zm-8.2 0c1.4 0 2.6 1.1 2.6 2.6s-1.1 2.5-2.6 2.5c-1.4 0-2.6-1.1-2.6-2.5s1.1-2.6 2.6-2.6zm19.1 44.2H26.7V42.3h57.2v35.5z" class="st4"/><path d="M35.5 55.2L34.3 57l17.3 12.1 1.6-1.6z" class="st4"/><path d="M50.2 67.9l1.7 1.4 13.5-16.2-1.4-1.8z" class="st4"/><path d="M63.3 50.3l-1.2 1.8 14.5 9.5 1.5-1.7zM51.6 69.1l1.8 1.2 1.7-1.5-1.9-1.3z" class="st4"/><circle cx="34.8" cy="56" r="4.4" class="st4"/><circle cx="76.6" cy="59.8" r="3.7" class="st4"/><circle cx="52.3" cy="66.2" r="6.4" class="st4"/><circle cx="65.2" cy="53.2" r="4.8" class="st4"/></g></g><g id="nav07_x5F_最新消息" class="st0"><path fill="#dbc954" d="M110 55c0 30.4-24.6 55-55 55S0 85.4 0 55 24.6 0 55 0s55 24.6 55 55z"/><path fill="#baa74a" d="M109.5 62.7c-4.3-4.4-11.2-10.1-11.9-11l-8-1.5L47 50l-5 10.6-18.4-21.2H13.2l7.3 6.6-5.3 21.7-5.2 1.7 28.7 38.1c5.2 1.6 10.6 2.5 16.3 2.5 27.8 0 50.7-20.6 54.5-47.3z"/><g class="st1"><path d="M18 39.8l23.8 27.8-.6 2.3h-.5L21.9 48.1l-3.5 13.2c-.8 2.9-.9 4.9-.5 6 .4 1.1 1.3 1.8 2.8 2.2l-.1.5c-2.7-.2-4.5-.3-5.5-.3-1.1 0-2.8.1-5.1.3l.1-.5c1.7-.4 2.9-1.1 3.8-2.3s1.7-3.2 2.5-6.1l3.9-14.8-1.5-1.7c-2.1-2.4-4-3.9-5.6-4.6l.1-.5 4.7.3zm24.5 25l-21.4-25h3.2L41.7 60l3.1-11.7c.5-2 .8-3.5.8-4.5s-.3-1.8-.9-2.5c-.6-.7-1.5-1.1-2.6-1.3l.1-.5s.3 0 .9.1c2.3.2 3.9.3 4.8.3.8 0 2.7-.1 5.7-.3l-.1.5c-1 .1-1.9.5-2.8 1.2-.9.6-1.5 1.4-2.1 2.4-.5 1-1 2.3-1.5 4l-4.6 17.1z" class="st4"/><path d="M47.7 50.2h.6v20.1h-1.2c-.4 0-1.3.1-2.7.2v-.3c.7-.2 1.2-.5 1.5-1 .4-.5.6-1 .7-1.7s.2-2.1.2-4.2v-8c0-1.8-.2-3.1-.7-3.8s-1-1.1-1.7-1.3V50c.7 0 1.8.1 3.3.2zM57 70.3h-7.3V50.2H55c1 0 2.9-.1 5.7-.2v.9c0 .3 0 .8.1 1.8 0 .6.1 1 .1 1v.5h-.3c-.6-1.2-1.1-1.9-1.7-2.2-.6-.3-1.6-.5-3.2-.5h-2.9c-.5 0-.9 0-1.3.1-.2.4-.3 1.5-.4 3.1v4.4h4c1.5 0 2.5-.1 3-.4s.9-.9 1.2-1.9h.4c-.1 1.1-.1 2.1-.1 3 0 .5 0 1.2.1 2.1 0 .3.1.8.1 1.5h-.4c-.1-1.1-.4-1.9-1-2.3-.6-.4-1.4-.6-2.6-.6h-4.6v4.2c0 1.6.1 3 .3 4.2.5.1 1.1.1 1.6.1h2.8c1.5 0 2.7-.2 3.4-.5.8-.4 1.6-1.2 2.4-2.5h.3c-.1.6-.3 1.3-.6 2-.3 1-.6 1.9-.7 2.6-1.4-.2-2.6-.3-3.7-.3z" class="st4"/><path d="M60.3 50.4l7.9 18.2-.6 1.4h-.3l-6.7-15.4c-1-2.4-2.2-3.7-3.6-4v-.3c.6 0 1.7.1 3.3.1zm10.2 0L78 68.6l-.5 1.4h-.4l-4.6-11.2-3.5 8.1-7.2-16.5c.1 0 .7 0 1.8-.1l.8-.1 1.2-.1v.3c-.8.3-1.1.8-1.1 1.4 0 .6.3 1.6.9 3l3.7 8.5 2.8-6.3-1.1-2.7c-.5-1.2-1-2.1-1.5-2.6s-1.1-.9-2-1.2v-.3c1 .1 2.1.2 3.2.2zm4.9 4.7l3.4 8.2 2.8-7c.6-1.6 1-2.8 1-3.6 0-1.1-.5-1.8-1.6-2.1v-.3c1.3.1 2.3.2 2.9.2 1.1 0 2.1-.1 3.2-.2v.3c-.8.5-1.5 1.1-2 1.8s-1.2 2-1.9 3.9L78.8 67 72 50.5c1.5-.1 2.7-.1 3.8-.2v.3c-.8.3-1.2.8-1.2 1.5-.1.6.2 1.7.8 3z" class="st4"/></g><g class="st1"><path d="M83.8 62.8h.4c.5 1.6 1.3 2.9 2.5 3.9s2.4 1.6 3.8 1.6c1.1 0 2-.3 2.8-.8.7-.5 1.1-1.2 1.1-1.9 0-.8-.4-1.4-1.1-1.9-.8-.5-2.2-.9-4.3-1.3-2-.4-3.5-1.1-4.5-1.9-1-.9-1.5-1.9-1.5-3.2 0-1 .3-1.9 1-2.8-.1.4-.1.8-.1 1.2 0 .8.3 1.6.8 2.4.5.7 1.1 1.2 2 1.6.8.4 2.3.8 4.3 1.3 1.9.5 3.3 1 4.1 1.7.8.7 1.3 1.6 1.3 2.9 0 1.3-.5 2.4-1.6 3.2-1 .8-2.6 1.2-4.6 1.2-1.8 0-3.8-.4-6.1-1.3 0-1.3 0-2.2-.1-2.7s-.1-1-.1-1.6c-.1-.5-.1-1-.1-1.6zm14.5-5.5h-.4c-.6-1.6-1.5-2.7-2.8-3.5-1.3-.8-2.6-1.2-3.9-1.2-1 0-1.9.2-2.7.6-.8.4-1.2 1-1.2 1.8 0 .6.3 1 .9 1.4.5.3 1.6.6 3.2 1 3.3.7 5.4 1.6 6.4 2.7s1.4 2.2 1.4 3.4c0 1-.5 2.2-1.4 3.5.1-.6.2-1.2.2-1.6 0-1.3-.4-2.5-1.3-3.6s-2.9-2-6.1-2.7c-1.9-.4-3.2-.9-3.9-1.5-.7-.6-1.1-1.4-1.1-2.5 0-1.2.5-2.2 1.6-2.9 1.1-.7 2.7-1.1 4.8-1.1 2 0 4.1.4 6.2 1.2 0 .4-.1.6-.1.7 0 .6 0 1.3.1 2 .1.6.1 1.3.1 2.3z" class="st4"/></g></g><g id="nav08_x5F_相關連結" class="st0"><g class="st1"><circle cx="55" cy="55" r="55" class="st25"/><path d="M24 37.6l4.7-5 55.9-1.9 24.5 14.6C104.5 19.5 82 0 55 0 24.6 0 0 24.6 0 55c0 28.8 22.2 52.4 50.4 54.8-10.1-11.4-27.2-31.1-27.2-31.1l.8-41.1z" class="st25"/><path fill="#a362a5" d="M110 55c0-3.3-.3-6.6-.9-9.8L84.7 30.6l-55.9 1.9-4.7 5-.8 41.2s17.1 19.7 27.2 31.1c1.5.1 3.1.2 4.6.2 30.3 0 54.9-24.6 54.9-55z"/><path d="M83.8 28.6H26.2c-2.5 0-4.5 2-4.5 4.5v43.7c0 2.5 2 4.5 4.5 4.5h57.7c2.5 0 4.5-2 4.5-4.5V33.1c-.1-2.4-2.1-4.5-4.6-4.5zM81 32.2c1.4 0 2.6 1.1 2.6 2.6 0 1.4-1.1 2.5-2.6 2.5-1.4 0-2.6-1.1-2.6-2.5 0-1.5 1.2-2.6 2.6-2.6zm-8.3 0c1.4 0 2.6 1.1 2.6 2.6 0 1.4-1.1 2.5-2.6 2.5-1.4 0-2.5-1.1-2.5-2.5 0-1.5 1.1-2.6 2.5-2.6zm-8.2 0c1.4 0 2.6 1.1 2.6 2.6 0 1.4-1.1 2.5-2.6 2.5-1.4 0-2.6-1.1-2.6-2.5 0-1.5 1.2-2.6 2.6-2.6zm19.1 44.2H26.4V40.8h57.2v35.6z" class="st4"/><path d="M53.5 69c0 1 0 1.6-.1 1.8-.1.4-.3.6-.7.6h-2.3c-.6 0-.9-.2-1-.7v-1.4H37.6v1.5c-.1.5-.3.7-.7.7h-2.6c-.5 0-.7-.3-.7-.9V69c-.9-.2-1.3-.8-1.4-1.9-.3-2.8-.4-6.3-.4-10.7 0-3.1.1-5.9.2-8.4 0-1 .6-1.6 1.6-1.8 2.1-.3 5.5-.4 10.1-.4 3.9 0 7.1.1 9.5.4.6.1 1 .2 1.2.4.3.2.4.6.5 1.3.3 2.8.4 6.6.4 11.3 0 3.2-.1 6-.2 8.1-.1.9-.6 1.5-1.6 1.7zm-.6-18.4c-.1-.7-.5-1-1.2-1.1-5.7-.2-11.2-.2-16.3 0-.4 0-.7.1-.8.2-.2.1-.3.4-.4.7-.2 2.1-.2 4.2 0 6.1.1.6.5 1 1.2 1 .9.1 3.3.1 7.2.1 4.5 0 7.5 0 9.2-.2.7-.1 1-.4 1.1-.9.2-2 .2-4 0-5.9zM38.2 65c0-.5-.2-1-.5-1.3-.4-.3-.8-.5-1.3-.5-1.1 0-1.8.6-1.8 1.8 0 .6.1 1 .5 1.3s.8.5 1.3.5.9-.2 1.3-.5c.3-.3.5-.8.5-1.3zm7.9-17.1v-.3c0-.2-.1-.3-.2-.3-.6 0-1.4-.1-2.6-.1-1.2 0-2.1 0-2.7.1-.1 0-.2.1-.2.2v.5c0 .2.1.2.3.2h5.2c.1 0 .2-.1.2-.3zM52.8 65c0-.5-.2-1-.6-1.3-.4-.3-.8-.4-1.2-.4-1.1 0-1.8.6-1.8 1.8 0 .5.1 1 .5 1.3.4.3.8.5 1.4.5.5 0 .9-.2 1.2-.5.3-.5.5-.9.5-1.4zM59.2 48h20.7v2.9H59.2zM59.2 57h20.7v2.9H59.2zM59.2 66h20.7v2.9H59.2z" class="st4"/></g></g><g id="nav09_x5F_意見回饋" class="st0"><g class="st1"><circle cx="55" cy="55" r="55" fill="#f79c92"/><path fill="#d88882" d="M105.6 76.5L90.1 35.2l-4.2-1.9H24.2s-5 .5-4.9 4.9.1 35.7.1 35.7l23 34.8c4 .9 8.2 1.5 12.6 1.5 22.7-.2 42.2-14 50.6-33.7z"/><path d="M51.6 65.9l-31-31c-.8.9-1.2 2-1.2 3.2v33.7c0 2.7 2.2 4.9 4.9 4.9h61.6c2.7 0 4.9-2.2 4.9-4.9V38.1c0-1.2-.5-2.3-1.2-3.2l-31 31c-2.1 1.9-5.1 1.9-7 0z" class="st4"/><path d="M24.2 33.3h-.1l27.5 27.5c1.9 1.9 5 1.9 6.9 0L86 33.3H24.2z" class="st4"/></g></g><g id="nav10_x5F_系統管理" class="st0"><g class="st1"><path d="M110 55c0 30.4-24.6 55-55 55S0 85.4 0 55 24.6 0 55 0s55 24.6 55 55z" class="st29"/><path d="M23.4 44.7l3.5-9.2 5.9-9.6 13.8-2.6L78.1 48l29.8 22.2c1.4-4.9 2.2-10 2.2-15.3 0-30.4-24.6-55-55-55C24.6 0 0 24.6 0 55s24.6 55 55 55c5.3 0 10.5-.8 15.3-2.2l-17.4-23-29.5-40.1z" class="st29"/><path fill="#99774b" d="M107.8 70.3L78.1 48 46.6 23.2l-13.8 2.6-5.9 9.6-3.5 9.2 29.5 40.1 17.5 23.1c18-5.2 32.2-19.5 37.4-37.5z"/><path d="M85.5 62.3h-2.9c-.4-1.4-.9-2.7-1.6-3.9l2-2c.9-.9.9-2.4 0-3.4l-3-3.1c-.9-.9-2.4-.9-3.4 0l-2 2c-1.2-.7-2.5-1.2-3.9-1.6v-2.8c0-1.3-1.1-2.4-2.4-2.4h-4.4c-1.3 0-2.4 1.1-2.4 2.4v2.8c-1.4.4-2.7.9-3.9 1.6l-2-2c-.9-.9-2.4-.9-3.4 0L49.1 53c-.9.9-.9 2.4 0 3.4l2 2c-.7 1.2-1.2 2.5-1.6 3.9h-2.9c-1.3 0-2.4 1.1-2.4 2.4v4.4c0 1.3 1.1 2.4 2.4 2.4h2.9c.4 1.4.9 2.7 1.6 3.9l-2 2c-.9.9-.9 2.4 0 3.4l3.1 3.1c.9.9 2.4.9 3.4 0l2-2c1.2.7 2.5 1.2 3.9 1.6v2.9c0 1.3 1.1 2.4 2.4 2.4h4.4c1.3 0 2.4-1.1 2.4-2.4v-2.9c1.4-.4 2.7-.9 3.9-1.6l2 2c.9.9 2.4.9 3.4 0l3.1-3.1c.9-.9.9-2.4 0-3.4l-2-2c.7-1.2 1.2-2.5 1.6-3.9h2.9c1.3 0 2.4-1.1 2.4-2.4v-4.4c-.1-1.3-1.2-2.4-2.5-2.4zM70.7 74.8c-.7.4-1.4.7-2.2.9s-1.5.3-2.4.3c-.8 0-1.6-.1-2.3-.3-.8-.2-1.5-.5-2.2-.9-1.4-.8-2.5-1.9-3.3-3.3-.4-.7-.7-1.4-.9-2.2-.2-.7-.3-1.5-.3-2.4 0-.8.1-1.6.3-2.3.2-.8.5-1.5.9-2.2.8-1.4 1.9-2.5 3.3-3.3.7-.4 1.4-.7 2.2-.9.8-.2 1.5-.3 2.3-.3.8 0 1.6.1 2.3.3.8.2 1.5.5 2.2.9 1.4.8 2.5 1.9 3.3 3.3.4.7.7 1.4.9 2.2.2.7.3 1.5.3 2.3 0 .8-.1 1.6-.3 2.3-.2.8-.5 1.6-.9 2.2-.7 1.5-1.8 2.6-3.2 3.4zM52.9 40.4l-2-.9c.2-1.1.2-2.1.1-3.1l2-.7c.9-.3 1.4-1.4 1.1-2.3L53 30.2c-.3-.9-1.4-1.4-2.3-1.1l-2 .7c-.6-.9-1.3-1.6-2.1-2.3l.9-1.9c.4-.9 0-2-.9-2.4l-3-1.4c-.9-.4-2 0-2.4.9l-.9 2c-1.1-.2-2.1-.2-3.1-.1l-.7-2c-.3-.9-1.4-1.4-2.3-1.1L31 22.6c-.9.3-1.4 1.4-1.1 2.3l.7 2c-.9.6-1.6 1.3-2.3 2.1l-1.9-.9c-.9-.4-2 0-2.4.9l-1.4 3c-.4.9 0 2 .9 2.4l2 .9c-.2 1.1-.2 2.1-.1 3.1l-2 .7c-.9.3-1.4 1.4-1.1 2.3l1.2 3.1c.3.9 1.4 1.4 2.3 1.1l2-.7c.6.8 1.3 1.6 2.1 2.3l-.9 2c-.4.9 0 2 .9 2.4l3 1.4c.9.4 2 0 2.4-.9l.9-2c1.1.2 2.1.2 3.1.1l.7 2c.3.9 1.4 1.4 2.3 1.1l3.1-1.1c.9-.3 1.4-1.4 1.1-2.3l-.7-2c.8-.6 1.6-1.3 2.3-2.1l2 .9c.9.4 2 0 2.4-.9l1.4-3c.3-.9-.1-2-1-2.4zm-14.1 3.9c-.6.1-1.2 0-1.8-.1s-1.2-.3-1.7-.5c-.6-.3-1-.6-1.5-1s-.9-.8-1.2-1.3c-.7-1-1.1-2.1-1.2-3.3-.1-.6 0-1.2.1-1.8s.2-1.2.5-1.7c.3-.6.6-1 1-1.5s.8-.9 1.3-1.2c1-.7 2.1-1.1 3.3-1.2.6-.1 1.2 0 1.8.1.6.1 1.2.3 1.7.5.6.3 1 .6 1.5 1s.9.8 1.2 1.3c.7 1 1.1 2.1 1.2 3.3.1.6 0 1.2-.1 1.8-.1.6-.3 1.2-.5 1.7-.3.5-.6 1-1 1.5s-.9.9-1.3 1.2c-.9.7-2.1 1.1-3.3 1.2z" class="st4"/></g></g><g id="nav11_x5F_回上一頁" class="st0"><path fill="#75bc59" d="M110 55c0 30.4-24.6 55-55 55S0 85.4 0 55 24.6 0 55 0s55 24.6 55 55z"/><path fill="#5f994a" d="M108.4 68.2L57.3 27.1 20.2 55.9l29.2 53.8c1.8.2 3.7.3 5.6.3 25.8 0 47.5-17.8 53.4-41.8z"/><g class="st1"><path d="M88.5 55.9c0 3.5-2.8 6.4-6.4 6.4H37c-3.5 0-6.4-2.8-6.4-6.4 0-3.5 2.8-6.4 6.4-6.4h45.1c3.6.1 6.4 2.9 6.4 6.4z" class="st4"/><path d="M57.3 75.8L37.4 55.9 57.3 36c2.5-2.5 2.5-6.5 0-9s-6.5-2.5-9 0L27.8 47.6l-6.1 6.1c-.7.7-1.1 1.4-1.4 2.2.3.8.8 1.6 1.4 2.2l6.1 6.1 20.5 20.5c2.5 2.5 6.5 2.5 9 0 2.5-2.4 2.5-6.4 0-8.9z" class="st4"/></g></g></svg>