<svg xmlns="http://www.w3.org/2000/svg" viewBox="0 0 110 110"><circle cx="55" cy="55" r="55" fill="#6EBEC3"/><path fill="#6EBEC3" d="M17 46l6-18 15-5 38 5 31 8a55 55 0 1 0-36 72L33 86 17 46z"/><path fill="#5A9C9E" d="M110 55c0-7-1-13-3-19l-31-8-38-5-15 6-6 17 16 40 38 22c22-7 39-28 39-53z"/><g fill="#FFF"><path d="M35 23a18 18 0 1 0 0 36 18 18 0 0 0 0-36zm0 32a14 14 0 1 1 0-27 14 14 0 0 1 0 27z"/><path d="M38 84c0 1-1 3-3 3l-3-3V59c0-2 2-3 3-3 2 0 3 1 3 3v25zM25 38h4l1 1v2l-1 1 1 1 1 1v1l-1 1h-1-4v-8zm1 2v1h3v-1h-1-2zm0 3v2h2l1-1v-1h-3zM32 38h2v6l1 1 1-1h1v-6h1v7l-1 1h-2l-1-1h-1l-1-1v-6zM39 43h2v1l1 1 2-1c1-1 0 0 0 0v-1h-1-1l-2-1v-2-1l1-1h1l2 1 1 1-1 1-1-1-1-1-1 1v1h2l1 1 1 1 1 1-1 1-1 1h-1l-3-1-1-2z"/><g><path d="M85 87h-1 1zM70 36c-8-3 6-8 6-8-25 5-11 16-7 18s2 9-12 17c-15 7-15 23-15 23l42 1c0-1-2-1-3-12-1-12 8-10 11-20 4-11-15-16-22-19zm-5 36l1 10-8-1c0 1-2-6 2-10 4-3 6-7 6-8h6s-6 5-7 9zm15-14l-5-1 5-7c1-3-8-9-8-9l11 7c3 3-3 10-3 10z"/></g></g></svg>