<svg xmlns="http://www.w3.org/2000/svg" id="圖層_1" version="1" viewBox="0 0 110 110"><style>.st0{display:none}.st1{display:inline}.st2{fill:#95cef9}.st3{fill:#608fba}.st4{fill:#fff}.st7{font-family:&apos;CalistoMT&apos;}.st13{fill:#6ebec3}.st15{fill:#8ec2b6}.st19{fill:#f1b14f}.st25{fill:#d379d3}.st29{fill:#bc965b}</style><g id="nav01_x5F_會員登入" class="st0"><g class="st1"><circle cx="55" cy="55" r="55" class="st2"/><path d="M106 76L67 26 35 49l13 17-12 7-10 15 14 20 15 2c23 0 43-14 51-34z" class="st3"/><path d="M75 43a20 20 0 1 1-40 0 20 20 0 1 1 40 0zM55 65c-14 0-26 10-29 23h58c-3-13-15-23-29-23z" class="st4"/></g></g><g id="nav01_x5F_會員登入n" class="st0"><g class="st1"><circle cx="55" cy="55" r="55" class="st2"/><path d="M110 55v-5L87 30l-30 3-11-5-34 43 43 39c30 0 55-25 55-55z" class="st3"/><path d="M75 63c-14 0-20 10-24 23h42c-1-14-4-23-18-23zM93 42a19 19 0 0 1-32 14s5 1 9-5H57c-3-2-3-6-3-9a19 19 0 1 1 39 0z" class="st4"/><circle cx="55" cy="42" r="5" class="st4"/><path fill="#73a9c9" d="M48 69c0 3-2 5-5 5H16c-2 0-5-2-5-5V31c0-2 3-5 5-5h27c2 1 5 3 5 5v25l10-1-10 9v5z"/><path fill="#2c678c" d="M47 68c0 2-2 5-5 5H17c-2 0-4-2-4-5V33c0-3 2-5 4-5h25c2 0 5 2 5 5v24h7l-7 6v5z"/><text transform="translate(18 48)" class="st4 st7" font-size="17">Hi!</text><text transform="translate(14 65)" class="st4 st7" font-size="12">Guest</text></g></g><g id="nav02_x5F_公車動態" class="st0"><g class="st1"><circle cx="55" cy="55" r="55" fill="#e86b5a"/><path fill="none" d="M12 52l6-21 17-11h16l59 39v-4a55 55 0 1 0-45 54L41 91 12 52z"/><path fill="#af5551" d="M110 59L51 20H35L18 31l-6 21 29 39 24 18c25-4 43-25 45-50z"/><path d="M35 68l-2 2-2-2v-4c0-2 1-2 2-2s2 0 2 2v4zM51 68l-2 2-2-2v-4c0-2 1-2 2-2s2 0 2 2v4z" class="st4"/><path d="M53 32H29c-3 0-6 2-6 6v23c1 3 3 6 6 6h1v-3c0-2 1-3 3-3s3 1 3 3v3h10v-3c0-2 1-3 3-3 1 0 3 1 3 3v3h1c3 0 6-3 6-6V38c0-4-3-6-6-6zM29 59c-2 0-3-1-3-3s1-4 3-4 4 2 4 4-2 3-4 3zm15-2h-6l-1-1 1-1h6l1 1-1 1zm1-5h-8l-1-1 1-1h8l2 1-2 1zm-14-5c-3 0-5-2-5-5v-2c0-3 2-5 5-5h20c3 0 5 2 5 5v2c0 3-2 5-5 5H31zm22 12c-2 0-4-1-4-3s2-4 4-4 3 2 3 4-1 3-3 3z" class="st4"/><path d="M41 19a30 30 0 0 0-21 51l21 21 21-21h1a30 30 0 0 0 8-21c0-17-13-30-30-30zm0 55a25 25 0 1 1 0-50 25 25 0 0 1 0 50z" class="st4"/><g><path d="M86 47a13 13 0 1 0 0 26 13 13 0 0 0 0-26zm0 22a10 10 0 1 1 0-19 10 10 0 0 1 0 19z" class="st4"/><path d="M88 89c0 1 0 2-2 2l-2-2V72l2-2c2 0 2 1 2 2v17zM79 58h4v2h-1l1 1v2h-1-3v-5zm1 0v2h1l1-1v-1h-2zm0 3v1h2v-1h-2zM84 58h1v3l1 1h1v-1-4h1v5l-1 1h-1-1v-1h-1v-4zM89 61h1l1 1h1l1-1h-1-1l-1-1-1-1 1-1 1-1 2 1v1h-1v-1h-1c-1 0 0 0 0 0l-1 1h2l1 1 1 1-1 1v1h-2l-1-1-1-1z" class="st4"/></g></g></g><g id="nav03_x5F_轉乘規劃" class="st0"><g class="st1"><circle cx="55" cy="55" r="55" class="st13"/><path d="M17 46l6-18 15-5 38 5 31 8a55 55 0 1 0-36 72L33 86 17 46z" class="st13"/><path fill="#5a9c9e" d="M110 55c0-7-1-13-3-19l-31-8-38-5-15 6-6 17 16 40 38 22c22-7 39-28 39-53z"/><path d="M35 23a18 18 0 1 0 0 36 18 18 0 0 0 0-36zm0 32a14 14 0 1 1 0-27 14 14 0 0 1 0 27z" class="st4"/><path d="M38 84c0 1-1 3-3 3l-3-3V59c0-2 2-3 3-3 2 0 3 1 3 3v25zM25 38h4l1 1v2l-1 1 1 1 1 1v1l-1 1h-1-4v-8zm1 2v1h3v-1h-1-1-1zm0 3v2h2l1-1v-1h-3zM32 38h2v6l1 1 1-1h1v-6h1v7l-1 1h-2l-1-1h-1l-1-1v-6zM39 43h2v1l1 1 2-1v-1h-1-1l-2-1v-2-1l1-1h1l2 1 1 1-1 1-1-1-1-1-1 1v1h2l1 1 1 1 1 1-1 1-1 1h-1l-3-1-1-2z" class="st4"/><g><path d="M85 87zM70 36c-8-3 6-8 6-8-25 5-11 16-7 18s2 9-12 17c-15 7-15 23-15 23l42 1c0-1-2-1-3-12-1-12 8-10 11-20 4-11-15-16-22-19zm-5 36l1 10-8-1c0 1-2-6 2-10 4-3 6-7 6-8h6s-6 5-7 9zm15-14l-5-1 5-7c1-3-8-9-8-9l11 7c3 4-3 10-3 10z" class="st4"/></g></g></g><g id="nav04_x5F_活動專車" class="st0"><g class="st1"><circle cx="55" cy="55" r="55" class="st15"/><path d="M25 36l6-6 4-4 6-6 29-1 12 9 28 30v-3a55 55 0 1 0-70 53L26 82l-1-46z" class="st15"/><path fill="#74968b" d="M110 58L82 28l-12-9-29 1-6 6-4 4-6 6 1 46 14 26 15 2c29 0 53-23 55-52z"/><path d="M41 77c-2 0-3 2-3 4v7c0 2 1 3 3 3s4-1 4-3v-7c0-2-2-4-4-4zM68 77c-2 0-3 2-3 4v7c0 2 1 3 3 3s3-1 3-3v-7c1-2-1-4-3-4z" class="st4"/><path d="M75 26h-2v5c4 0 7 4 7 8v5c1 4-3 8-8 8H38c-5 0-8-4-8-8v-5c0-4 3-7 7-8v-5h-2c-6 0-10 5-10 10v41c0 5 4 10 10 10h1v-6c0-3 2-5 5-5s5 2 5 5v6h17v-6c0-3 2-5 5-5s5 2 5 5v6h2c6 0 10-5 10-11V37c0-5-4-10-10-10zM34 73a6 6 0 1 1 0-12 6 6 0 0 1 0 12zm26-3h-9c-2 0-2-1-2-2s0-2 2-2h9l2 2-2 2zm2-9H48l-2-2 2-2h14c2 0 2 1 2 2 0 2 0 2-2 2zm13 12a6 6 0 1 1 0-12 6 6 0 0 1 0 12z" class="st4"/><path d="M66 19H43c-3 0-6 3-6 6v5c0 3 3 6 6 6h24c3 0 6-3 6-6v-5c0-3-3-6-7-6zm2 10c0 2-2 4-5 4H46c-2 0-4-2-4-4v-3c0-2 2-3 4-3h17c3 0 5 1 5 3v3z" class="st4"/><path d="M48 34h-5l4-14h4zM56 34h-5l3-14h5zM63 34h-4l3-14h4z" class="st4"/></g></g><g id="nav04_x5F_活動專車_拷貝"><circle cx="55" cy="55" r="55" fill="#9ae8ba"/><path fill="#84bf9c" d="M108 71L87 27l-64 2-1 53 11 24a55 55 0 0 0 75-35z"/><path d="M38 71l-2 1v3l2 2 1-2v-3l-1-1zM49 71l-1 1v3l1 2 2-2v-3l-2-1z" class="st4"/><path d="M52 49h-1v1c2 1 3 2 3 4v2c0 2-1 4-3 4H36c-2 0-4-2-4-4v-2c0-2 2-3 4-3l-1-1v-2c-3 0-5 2-5 5v17c0 3 2 5 5 5v-3c0-1 1-2 3-2s2 1 2 2v3h7v-3l2-2c2 0 3 1 3 2v3c3 0 5-2 5-5V53c0-3-2-4-5-4zM35 69c-2 0-3-1-3-3 0-1 1-2 3-2l2 2c0 2-1 3-2 3zm11-1h-4l-1-1 1-1h4l1 1-1 1zm1-4h-7l-1-1 1-1h7l1 1-1 1zm5 5c-1 0-2-1-2-3l2-2c2 0 3 1 3 2 0 2-1 3-3 3z" class="st4"/><path d="M49 45H38l-3 3v2l3 3h11l2-3v-2l-2-3zm0 5l-2 1h-7l-2-1v-2l2-1h7l2 1v2z" class="st4"/><path d="M40 52h-1l1-6h2zM44 52h-2l1-6h2zM47 52h-2l2-6h2zM71 38c-4-1 3-4 3-4-13 2-6 8-4 9 2 2 1 5-6 9-8 4-8 12-8 12l22 1-1-6c-1-7 4-6 6-11s-8-8-12-10zm-2 19v5h-4s-1-3 1-5l3-5h3s-3 3-3 5zm7-8h-3s3-2 3-4-4-4-4-4l6 4c1 1-2 4-2 4z" class="st4"/><path d="M85 26H25c-2 0-3 2-3 3v52c0 1 1 3 3 3h60c2 0 3-2 3-3V29c0-1-1-3-3-3zm-1 50c0 2-1 3-3 3H29c-2 0-3-1-3-3V34c0-2 1-3 3-3h52c2 0 3 1 3 3v42z" class="st4"/></g><g id="nav05_x5F_語音查詢" class="st0"><g class="st1"><circle cx="55" cy="55" r="55" class="st19"/><path d="M29 46l14-32 25-1 36 66c4-7 6-15 6-24a55 55 0 1 0-60 55L28 88l1-42z" class="st19"/><path fill="#c1883e" d="M104 79L67 14l-4 3-16 1-4-4-3 8 1 8 2 3 1 4-1 2-14 7-1 39 22 25h5c22 0 40-12 49-31z"/><path d="M46 93c0 2-2 3-3 3-2 0-3-1-3-3v-6c0-1 1-3 3-3l3 3v6zM70 93c0 2-2 3-3 3-2 0-3-1-3-3v-6c0-1 1-3 3-3l3 3v6z" class="st4"/><path d="M73 39H37c-5 0-9 4-9 9v35c0 5 4 9 9 9h1v-5c0-2 2-4 5-4s4 2 4 4v5h15v-5c0-2 2-4 5-4s4 2 4 4v5h2c5 0 9-4 9-9V48c0-5-4-9-9-9zM37 80c-3 0-5-2-5-5s2-5 5-5 5 3 5 5-2 5-5 5zm22-2h-8l-2-2 2-2h8l2 2-2 2zm3-8H49l-2-2 2-2h13l1 2-1 2zm-22-8c-4 0-7-4-7-8v-3c0-5 3-8 7-8h30c4 0 8 4 8 8v3c0 5-4 8-8 8H40zm33 18c-3 0-6-2-6-5s3-5 6-5c2 0 5 3 5 5s-3 5-5 5z" class="st4"/><g><path d="M41 23c0-3 1-6 4-8l-2-1a14 14 0 0 0-2 16l2-1-2-6z" class="st4"/><path d="M43 23l1 5 2-1-1-4 2-5-1-2c-2 2-3 5-3 7zM67 14l-2 1a12 12 0 0 1 2 14l2 1 2-7c0-3-2-7-4-9z" class="st4"/><path d="M65 23l-1 4 2 1 1-5c0-2-1-5-3-7l-1 2 2 5zM53 27h4v7h-4z" class="st4"/><path d="M46 40c0-3 3-5 5-5h7c3 0 6 2 6 5v1h2v-2c0-4-3-7-6-7H50c-3 0-6 3-6 7v1h2zM49 17v11h11V17H49zm9 9h-7v-7h7v7z" class="st4"/><path d="M53 20h4v4h-4z" class="st4"/></g></g></g><g id="nav06_x5F_E-bus簡圖總覽" class="st0"><g class="st1"><path fill="#f5d029" d="M110 55A55 55 0 1 1 0 55a55 55 0 0 1 110 0z"/><path fill="#ceac1d" d="M110 55l-1-11-23-14-59 2-4 5-1 43 25 29 8 1c30 0 55-25 55-55z"/><path d="M84 30H26c-2 0-4 2-4 5v43c0 3 2 5 4 5h58c3 0 5-2 5-5V35c0-3-2-5-5-5zm-3 4c2 0 3 1 3 2l-3 3c-1 0-2-1-2-3l2-2zm-8 0l3 2-3 3c-1 0-3-1-3-3l3-2zm-8 0l2 2-2 3c-2 0-3-1-3-3 0-1 1-2 3-2zm19 44H27V42h57v36z" class="st4"/><path d="M36 55l-2 2 18 12 1-1z" class="st4"/><path d="M50 68l2 1 13-16-1-2z" class="st4"/><path d="M63 50l-1 2 15 10 1-2zM52 69l1 1 2-1-2-1z" class="st4"/><circle cx="35" cy="56" r="4" class="st4"/><circle cx="77" cy="60" r="4" class="st4"/><circle cx="52" cy="66" r="6" class="st4"/><circle cx="65" cy="53" r="5" class="st4"/></g></g><g id="nav07_x5F_最新消息" class="st0"><path fill="#dbc954" d="M110 55A55 55 0 1 1 0 55a55 55 0 0 1 110 0z"/><path fill="#baa74a" d="M110 63L98 52l-8-2H47l-5 11-18-22H13l7 7-5 22-5 1 29 39a55 55 0 0 0 71-45z"/><g class="st1"><path d="M18 40l24 28-1 2-19-22-4 13v6c0 1 1 2 3 2v1a89 89 0 0 0-11 0l4-3 2-6 4-15-1-1c-2-3-4-4-6-5v-1l5 1zm25 25L21 40h3l18 20 3-12 1-4-1-3-3-1h1a65 65 0 0 0 11 0l-3 1-2 3-2 4-4 17z" class="st4"/><path d="M48 50v20h-1l-3 1v-1l2-1 1-1V55l-1-3-2-2h4zm9 20h-7V50h11v4l-2-2h-8v7h7l1-2h1v6h-1l-1-2h-7v4l1 4h7l3-3-1 2v3l-4-1z" class="st4"/><path d="M60 50l8 19v1h-1l-6-15c-1-3-3-4-4-4v-1h3zm11 0l7 19v1h-1l-5-11-3 8-7-17h4l-2 2 1 3 4 8 3-6-1-3-2-2-2-2h4zm4 5l4 8 3-7 1-3-2-2v-1h6v1l-2 1-2 4-4 11-7-16 4-1v1l-1 1v3z" class="st4"/></g><g class="st1"><path d="M84 63l3 4 4 1 2-1 1-1-1-2-4-2-4-2c-1 0-2-1-2-3l1-3v2l1 2 2 2 4 1 4 2 1 3-1 3-5 1-6-1v-3-2-1zm14-6l-3-3-4-1h-3l-1 2 1 1 3 1 7 3 1 3-1 4v-2l-1-3-6-3-4-1-1-3 1-3 5-1 6 1v5z" class="st4"/></g></g><g id="nav08_x5F_相關連結" class="st0"><g class="st1"><circle cx="55" cy="55" r="55" class="st25"/><path d="M24 38l5-5 56-2 24 14a55 55 0 1 0-59 65L23 79l1-41z" class="st25"/><path fill="#a362a5" d="M110 55l-1-10-24-14-56 2-5 5-1 41 28 31h4c30 0 55-25 55-55z"/><path d="M84 29H26c-2 0-4 2-4 4v44c0 2 2 4 4 4h58c2 0 4-2 4-4V33c0-2-2-4-4-4zm-3 3c1 0 3 1 3 3l-3 2-3-2c0-2 2-3 3-3zm-8 0c1 0 2 1 2 3l-2 2c-2 0-3-1-3-2 0-2 1-3 3-3zm-8 0c1 0 2 1 2 3 0 1-1 2-3 2l-2-2c0-2 1-3 3-3zm19 44H26V41h58v35z" class="st4"/><path d="M54 69l-1 2h-3-1v-2H38v2h-4v-2l-2-2a105 105 0 0 1 0-19l2-2a83 83 0 0 1 20 1l1 1a114 114 0 0 1 0 19l-1 2zm-1-18l-1-1a221 221 0 0 0-17 0h-1v7l1 1h8l9-1h1v-6zM38 65v-1l-2-1-1 2v1l1 1 2-1v-1zm8-17v-1h-5l-1 1h6zm7 17l-1-1-1-1-2 2 1 1 1 1 1-1 1-1zM59 48h21v3H59zM59 57h21v3H59zM59 66h21v3H59z" class="st4"/></g></g><g id="nav09_x5F_意見回饋" class="st0"><g class="st1"><circle cx="55" cy="55" r="55" fill="#f79c92"/><path fill="#d88882" d="M106 77L90 35l-4-2H24s-5 1-5 5v36l23 35 13 1c23 0 42-14 51-33z"/><path d="M52 66L21 35l-2 3v34c0 3 3 5 5 5h62c3 0 5-2 5-5V38l-1-3-31 31c-2 2-5 2-7 0z" class="st4"/><path d="M24 33l28 28c1 2 5 2 6 0l28-28H24z" class="st4"/></g></g><g id="nav10_x5F_系統管理" class="st0"><g class="st1"><path d="M110 55A55 55 0 1 1 0 55a55 55 0 0 1 110 0z" class="st29"/><path d="M23 45l4-9 6-10 14-3 31 25 30 22 2-15a55 55 0 1 0-40 53L53 85 23 45z" class="st29"/><path fill="#99774b" d="M108 70L78 48 47 23l-14 3-6 9-4 10 30 40 17 23c18-5 33-20 38-38z"/><path d="M86 62h-3l-2-4 2-2v-3l-3-3h-3l-2 2-4-2v-3c0-1-1-2-3-2h-4c-1 0-3 1-3 3v2l-3 2-2-2h-4l-3 3v3l2 2-1 4h-3c-2 0-3 1-3 3v4c0 1 1 3 3 3h3l1 3-2 2v4l3 3h4l2-2 4 2v2c0 2 1 3 2 3h4c2 0 3-1 3-3v-2l4-2 2 2h3l3-3v-4l-2-2 2-3h3l2-3v-4c0-2-1-3-2-3zM71 75l-2 1h-3a9 9 0 0 1-4-1 9 9 0 0 1-5-6 9 9 0 0 1 0-4l1-3 4-3 2-1a9 9 0 0 1 4 0l3 1 3 3 1 3a9 9 0 0 1 0 4l-1 2-3 4zM53 40l-2-1v-3h2l1-3-1-3-2-1-2 1-2-3 1-1-1-3-3-1c-1-1-2 0-3 1l-1 2h-3v-2l-3-2-3 2-1 2 1 2-3 2-2-1-2 1-1 3c-1 1 0 2 1 2l2 1-1 3-2 1-1 2 1 3 3 2 2-1 2 2-1 2 1 3 3 1 2-1 1-2h3l1 2c0 1 1 2 2 1l3-1c1 0 2-1 1-2v-2l2-2 2 1 2-1 2-3-1-3zm-14 4h-4a8 8 0 0 1-2-3l-2-3v-2l1-1a8 8 0 0 1 2-3l4-1h3l2 1 1 2 1 3v2l-1 1-1 2-1 1-3 1z" class="st4"/></g></g><g id="nav11_x5F_回上一頁" class="st0"><path fill="#75bc59" d="M110 55A55 55 0 1 1 0 55a55 55 0 0 1 110 0z"/><path fill="#5f994a" d="M108 68L57 27 20 56l29 54h6c26 0 48-18 53-42z"/><g class="st1"><path d="M89 56c0 3-3 6-7 6H37c-3 0-6-3-6-6 0-4 2-7 6-7h45c4 1 7 3 7 7z" class="st4"/><path d="M57 76L37 56l20-20c3-2 3-6 0-9s-6-2-9 0L28 48l-6 6-2 2 2 2 6 6 20 21c3 2 7 2 9 0 3-3 3-7 0-9z" class="st4"/></g></g></svg>