<svg xmlns="http://www.w3.org/2000/svg" viewBox="0 0 110 110"><circle cx="55" cy="55" r="55" fill="#95CEF9"/><path fill="#608FBA" d="M110 55v-5L87 30l-30 3-11-5-34 43 43 39c30 0 55-25 55-55z"/><path fill="#FFF" d="M75 63c-14 0-20 10-24 23h42c-1-14-4-23-18-23zM93 42a19 19 0 0 1-32 14s5 1 9-5H57c-3-2-3-6-3-9a19 19 0 1 1 39 0z"/><circle cx="55" cy="42" r="5" fill="#FFF"/><path fill="#73A9C9" d="M48 69c0 3-2 5-5 5H16c-2 0-5-2-5-5V31c0-2 3-5 5-5h27c2 1 5 3 5 5v25l10-1-10 9v5z"/><path fill="#2C678C" d="M47 68c0 2-2 5-5 5H17c-2 0-4-2-4-5V33c0-3 2-5 4-5h25c2 0 5 2 5 5v24h7l-7 6v5z"/><text fill="#FFF" font-family="'CalistoMT'" font-size="17" transform="translate(18 48)">Hi!</text><text fill="#FFF" font-family="'CalistoMT'" font-size="12" transform="translate(14 65)">Guest</text><g><path fill="#75BC59" d="M110 55A55 55 0 1 1 0 55a55 55 0 0 1 110 0z"/><path fill="#5F994A" d="M108 68L57 27 20 56l29 54h6c26 0 48-18 53-42z"/><g fill="#FFF"><path d="M89 56c0 3-3 6-7 6H37c-3 0-6-3-6-6 0-4 2-7 6-7h45c4 1 7 3 7 7z"/><path d="M57 76L37 56l20-20c3-2 3-6 0-9-2-2-6-2-9 0L28 48l-6 6-2 2 2 2 6 6 20 21c3 2 7 2 9 0 3-3 3-7 0-9z"/></g></g></svg>