<svg xmlns="http://www.w3.org/2000/svg" viewBox="0 0 20 20"><g fill-rule="evenodd" clip-rule="evenodd"><path fill="#E9C518" d="M7 6h2L8 7h2l1-7S9-1 7 1v2c1-2 2-1 2-1v3H7v1zm0-4S4 2 3 5l4 1V5L5 4l2-1V1v1z"/><path fill="#5EAF50" d="M8 7H6v1l2 1-1 3-1-1v2l2 1 2-7H8zM6 7L3 6c-1 4 2 5 2 5l1 2v-2-1L4 8h2V7z"/><path fill="#DA4F22" d="M16 4c0-2-1-2-2-3v3h1l1 3-2-1v1l3 1c1-3-1-4-1-4zm-2-3h-2l-1 6 1 1V7h2V6h-2l1-3h1V1z"/><path fill="#2C6CAE" d="M13 13h1s2 0 3-4l-4-1v2h3l-3 2v1zm-1-5l-1-1-2 7s3 1 4-1v-2l-2 2 1-4h1V9h-1z"/><path fill="#A19D98" d="M3 15s2-1 3 2l1 2-2-2-2-2zM9 14s-2 2-1 4h1l-1-1 1-3zM8 20s3-5 7-3l-3 1-4 2z"/></g></svg>