<?xml version="1.0" encoding="utf-8"?>
<!-- Generator: Adobe Illustrator 16.0.0, SVG Export Plug-In . SVG Version: 6.00 Build 0)  -->
<!DOCTYPE svg PUBLIC "-//W3C//DTD SVG 1.1//EN" "http://www.w3.org/Graphics/SVG/1.1/DTD/svg11.dtd">
<svg version="1.1" xmlns="http://www.w3.org/2000/svg" xmlns:xlink="http://www.w3.org/1999/xlink" x="0px" y="0px" width="20px"
	 height="20px" viewBox="0 0 20 20" enable-background="new 0 0 20 20" xml:space="preserve">
<g id="圖層_1" display="none">
	<path display="inline" fill="#376C92" d="M27,21.3c0,3.1-2.5,5.7-5.7,5.7H-1.3C-4.5,27-7,24.5-7,21.3V-1.3C-7-4.5-4.5-7-1.3-7h22.7
		C24.5-7,27-4.5,27-1.3V21.3z"/>
</g>
<g id="圖層_2">
	<g>
		<path fill="#FFFFFF" d="M5.3,4.5c0-1.1,1-2,2.1-2c1.2,0,2.1,0.9,2.1,2c0,0.9-0.6,1.6-1.4,1.9v1.1h2.5c0.4,0,0.8,0.3,0.8,0.7
			C11.3,8.7,11,9,10.6,9H8.1v0.8h3h1.6l0.5,1.3l1.1,2.7l1.8-0.4c0.4-0.2,0.8,0,1,0.4c0.2,0.4,0,0.8-0.4,1l-3.2,0.8l-1.8-4.3H8.1H6.6
			c0,0,0,0-0.1,0V9.9V9V7.5V6.4C5.8,6.1,5.3,5.4,5.3,4.5z"/>
		<path fill="#FFFFFF" d="M5.5,7.9v1.6c-1.1,0.6-1.9,1.7-1.9,3c0,1.9,1.6,3.5,3.6,3.5c1.9,0,3.5-1.5,3.6-3.3l0.9,2.2
			c-0.9,1.5-2.6,2.5-4.5,2.5c-2.8,0-5.2-2.2-5.2-4.9C2.2,10.4,3.6,8.6,5.5,7.9z"/>
	</g>
</g>
</svg>
