<svg xmlns="http://www.w3.org/2000/svg" viewBox="0 0 20 20"><g fill="#FFD900"><path d="M5.5 8.9c.1 0 0 0 0 0M5.5 11c.1 0 0 .1 0 0 0 .1 0 .1 0 0 0 .1 0 .1 0 0 .1 0-.1 0 0 0M6.2 13.2c.1 0 0 0 0 0M6 12.5s-.2.1 0 .1v-.1M5.5 12.3v0M5.8 12.2v.2H6v-.1h-.1s0-.1-.1-.1M5.5 12.1c0 .1 0 0 0 0v.2h-.1v-.1l.1-.1M5.5 11.8v.1s.1.1 0 .1c0-.1-.1-.2 0-.2-.1 0-.1 0 0 0 0 0-.1 0 0 0M5.8 11.4v.4h.1s0-.1 0 0v-.3c-.9-.2.8.3 0 0-.1-.2-.1-.1-.1-.1M5.4 10.3c.1 0 0 .1 0 .1v-.1c0 .1 0 .1 0 0 0 .1 0 .1 0 0 0 .1 0 0 0 0M5.5 8.6v.1s-.1-.1 0-.1M5.5 8.3c0 .1 0 0 0 0 0 .1-.1 0 0 0M5.6 7.7v.1c-.1 0 0 0 0 0v-.1M5.6 7.3s.1.1 0 .1v.1h-.1c0-.1-.1-.1.1-.2 0 0-.2.1 0 0"/><path d="M7.4 2.5c0 .1 0 .1 0 0 .1.1.1.1 0 0 .1.1.2.1.2.1v.2h.2v.1l.1.1v.9H8v4.6s0 .1 0 0V11.3c0 .1 0 0 0 0v.2h-.4v.1h-.1v.2c-.2 0 .1 0 0 0h-.1v.2c-.1 0 0 0 0 0 0-.1 0 0 0 0 0 .1 0 0 0 0 0 .1 0 0 0 0v.2l-.1.1v.2h-.1c0 .1.1.1 0 .1v.1h-.1v-.1H7v-.1-.1h-.3c-.1 0 0 0 0 0H6.4v.1h-.1c-.1 0-.1-.1-.1-.1H6v.1h.1v.1l.1.1c0 .1 0 0 0 0v.4h-.1V13H6v.4h-.1c0-.1 0 0 0 0v-.2h-.1v-.1h-.1v-.2c-.1 0 0 0 0 0v-.1-.2c0-.1 0 0 0 0v-.1c0-.1 0 0 0 0v-.2s-.1 0-.1-.1v-.1c-.1 0 0-.2-.1-.2v-.2-.2c-.1 0 0 0 0 0v.1s-.1-.2 0-.2v-.1s.1 0 .1-.1v-.1c-.1 0-.1.1-.1 0v-.2h.1v-.1-.2c.3-.2-.4.1 0 0h-.1v-.1h-.1v-.2c.1 0 0 .1.1.1v-.2-.2c-.2-.1 0 .1-.1-.1-.1 0 0-.1 0-.1v0h.1v-.2h-.2.1v-.1-.1h.1v-.1c.2-.1-.1.1 0 0v-.1-.1h.1V9v-.1c-.1 0 .1-.1.1-.1v-.1c-.1 0 0 .1 0 0 0 0-.1-.1 0-.1v-.2l-.1-.1v-.1-.1h.1v-.2h-.1v-.2c-.1 0 0 0 0 0h.1v-.3-.1h-.1v-.1c-.1 0 0 0 0 0h-.1v-.1-.5-.1-.3-.1-.2-.1-.2s-.1 0 0-.1v-.1h.1v-.3-.2h.1v-.1-.2c0-.1-.1 0 0 0v-.1-.2h.1v-.1H6V4h.1v-.1-.1-.3h-.2v-.1H6s0-.1 0 0h.2v-.3c.6 0 .6-.1.7-.1v-.1H7v-.1l.1-.1h.1v.1h.2v.1h.1v-.1h-.1v-.1-.1c-.1-.1-.1 0 0-.1"/></g><g fill="#E6001F"><path d="M2.5 7.1c0 .1 0 .1 0 0-.1.1-.1 0 0 0M2.4 7.2c.1 0 .1.1 0 0 0 .1 0 .1 0 0-.1.1 0 0 0 0M2.2 7.4h.1c.1 0 0 0 0 0 0 .1 0 .1-.1 0M2.3 9.6c.1 0 0 .1 0 0 0 .1 0 0 0 0M2.7 6.8s.1 0 0 0"/><path d="M3 6.5H3.3l.1.1h.1v.1H3.8v.1c.1.2.1.2.2.2v.1h.1v.1h.2v.1h.1v.1l.1.1v.7l.1.1H5l.1.1v.1h.1v.1l.1.1h.1v.2h.1V9h.1v.1h-.1V9.4h-.1v.2h-.1v.1h-.1-.1V10.3h-.4-.1l-.1.1h-.1-.1c-.1 0 .1.1 0 0h-.1-.1v-.1H4c-.1 0-.1.1-.1.1l-.1-.1h-.1v-.1h-.2-.1V10h-.2v-.1h-.1l-.2-.1h-.2v-.1h-.1c-.1 0 0 0 0-.1h-.1v-.1h-.1v-.1h-.2v-.1-.1h-.1V9H2v-.1h-.1v-.2h-.1v-.1h.1l.1-.1s0-.1-.1-.1v-.1h-.1v-.1h.5c.1 0 0 0 0 0V8H2.6v-.1c.1 0 0 0 0 0h.1s-.1 0 0-.1h.1c.1-.1-.1 0 0 0v-.1h.1c0-.1 0 0-.1-.1v-.2h.1v-.2H3v-.3h.1v.2h.2l-.2-.2H3h-.2v.2h-.1-.1L2.5 7H2.8v-.2h.1c0 .1 0 0 0 0 0-.1.1-.2.1-.3-.1.1-.1.1 0 0 0 .1 0 0 0 0"/></g><g fill="#0EAB4A"><path d="M9.8 8.2c.1 0 .1 0 0 0M9.9 10.2s0 .1 0 0c0 .1 0 .1 0 0v.1c-.1.1-.1 0 0-.1-.1.1-.1 0 0 0-.1 0 0 0 0 0M9.8 10.4c.1-.1 0 .2 0 .2v-.2c0 .1 0 0 0 0M10.2 10.4c.1 0 0 .1 0 0 0 .1 0 .1 0 0 0 .1 0 0 0 0M10.4 10.4s0 .1 0 0c0 .1-.1.1 0 0-.1.1-.1.1 0 0-.1.1-.1 0 0 0M9.8 10.6c.1 0 0 .1 0 0 0 .1 0 .1 0 0 0 .1 0 0 0 0M10 11s.1 0 0 0c.1 0 .1.1 0 0 0 .1 0 0 0 0M10.2 11c0 .1 0 .1 0 0-.1.1-.1 0 0 0M9.3 11.7c.2 0-.1.1 0 0 0 .1-.1 0 0 0M9.6 11.9v.1s-.1-.1 0-.1M9.7 11.9c0 .1 0 .1 0 0v.3h-.1.1v-.3c0 .1 0 .1 0 0M9.1 13c0 .1 0 .1 0 0 0 .1-.1 0 0 0M9.4 13.2c.1 0 0-.1 0 0M10 13.2s0 .1 0 0v.1c-.1.1-.1 0 0-.1-.1.1-.1.1 0 0 .2 0-.2.1 0 0M9 13.4c.1 0 .1 0 0 0M9.4 13.5c.1 0 0 0 0 0v0c0 .1 0 0 0 0M9.3 13.6c.1 0 .1.1 0 0 0 .1 0 0 0 0M9.7 13.7c.1 0 .1 0 0 0v0M9.6 13.8s0 .1 0 0c.1 0 .1 0 0 0 .1.1.1.1 0 0 .1.1.1.1 0 0 .1.2.1.2 0 .3h.1v.1c.1 0 0 0 0 0h-.1v.1h-.1v-.1-.1-.3c.1.1.1.1.1 0 0 .1 0 .1 0 0 0 .1 0 0 0 0M9.2 13.9s.1 0 0 0c.1 0 .1 0 0 0v.4h-.1.1v.5h.1v.1h.2v.1h-.1v-.2h-.1V15.1h.1v.2h-.1v-.1h-.1v.1s0 .1 0 0c0 0 0 .1 0 0v.1h-.1H9v-.1-.1-.1-.1-.1-.1-.2-.1-.3h0v-.1-.1-.1h.2c.1 0-.2 0 0 0M9.4 14.2c.2 0 0 .1 0 0M9.7 14.3c.1 0 0 .1 0 0 0 .1 0 0 0 0M8.9 14.4c.2 0 0 0 0 0M9.3 14.5c.1 0 .1.1 0 0M9.4 14.5c.1 0 0 0 0 0"/><path d="M9.3 14.6v.1h.1v.2h-.1s.1 0 0 0h-.1c0-.2 0-.3.1-.3M9.5 14.8s0 .1 0 0c0 .1 0 0 0 0M8.9 14.8c0 .1 0 .1 0 0 0 .1 0 .1 0 0v.1c-.1.1 0 0 0-.1M9.6 14.8c.2 0 0 .1 0 0 0 .1 0 0 0 0M9.8 14.9c.2 0 0 0 0 0M9.6 14.9v.1c-.1 0-.1 0 0-.1M9.5 15.2c.1 0 .1.1 0 .1v-.1s0-.1 0 0M9.2 15.3c.1 0 0 0 0 0M9.3 15.4c.1.1 0 0 0 0v.1h-.1l.1-.1c0 .1 0 .1 0 0 0 .1 0 0 0 0M9.2 15.5c.1 0 .1.1 0 0 0 .1 0 .1 0 0 0 .1 0 .1 0 0 0 .1 0 0 0 0M9.4 15.6l.1.1v.1s0-.1-.1-.2c.1.1 0 .1 0 0 .1 0 0 0 0 0M9.3 15.6c.1 0 0 .1 0 0 0 .1 0 0 0 0M9.4 15.8s0 .1 0 0c-.1 0-.1 0 0 0M9.3 15.8c-.1.1 0 0 0 0M9.5 16c.1 0 0 0 0 0 0 .1 0 .1 0 0l.1.1v.1h-.1c-.1-.1-.1-.1 0-.2 0 .1 0 .1 0 0-.1 0-.1 0 0 0M9.3 16c0 .1 0 .1 0 0 .1.1.1.1 0 .1V16c0 .1 0 .1 0 0M10.7 16.2c.1 0 0 0 0 0s-.1.1 0 0c-.1 0-.1 0 0 0M9.3 16.2c0 .1 0 0 0 0v.1c-.1 0 0 0 0 0h-.1c.1.1.1 0 .1-.1"/><path d="M9.5 16.2s0 .1 0 0l.1.1v0c-.2 0-.2 0-.1-.1-.1.1-.1 0 0 0-.1 0 0 0 0 0M9.3 16.5s.1.1 0 0c0 .1 0 .1 0 0-.1.1 0 0 0 0M9.3 16.6c.1 0 0 .1 0 0 0 .1 0 .1 0 0 0 .1 0 .1 0 0 0 .1 0 .1 0 0 0 0-.1 0 0 0M9.4 16.8c.1 0 .1.1 0 0 0 .1 0 0 0 0M9.4 17c.1 0 .1 0 0 0 .1 0-.1 0 0 0M9.5 17c.2 0 0 .1 0 0M9 19.3v.1c-.1 0 0-.2 0-.1M9 19.5v.1s-.1-.2 0-.1c0 0 0-.1 0 0M9.2 19.6s0 .1 0 0c-.1.1 0 0 0 0M9 20s.1 0 0 0c0 0-.1 0 0 0M8.9 18.7s0 .1 0 0M8.9 18.5s-.1.1 0 0c-.1 0-.1 0 0 0M10.1 17.4c.1 0 0 .1 0 0-.1.1-.1 0 0 0M10.3 17.3v.2c-.1.1-.1-.1 0-.2-.1.1-.1.1 0 0-.1 0-.1 0 0 0-.1 0 0 0 0 0M10.1 17.1s.1.2 0 .1v-.1c-.1.1 0 0 0 0"/><path d="M9.4 16.7c.1 0 .1.2 0 .1v-.1c-.1.1 0 0 0 0M8.8 16v.1c-.1.1-.1-.1 0-.1M9.1 15.8v1.4h.1v-.1h.1v.4c-.1 0 0 .1 0 .2-.1 0 0 .2 0 .2v.4h-.1v.1c-.1 0 0 .1 0 .2-.1 0 0 .2 0 .2v.4c-.1 0 0 .1 0 .1h-.1c0-.1.1-.1 0-.1V19v-.2 0H9v-.1-.1c.1 0 .1-.1.1-.1H9h-.1s-.1.2 0 .1v-.2c.1 0 0 0 0-.1H9v.1-.2h-.1c-.1 0 .1-.1 0 0-.1 0 .1 0 0 0 0-.1 0 0 0 0V18c0-.1 0 0 0 0v-.1-.2-.3h-.1c0-.1.1-.1.1-.1.1-.2 0-.4 0-.5V16.5v-.3s-.1 0-.1-.1c.1 0 0-.1.1 0V16l.1.1c0-.1 0 0 0 0V16h.1v-.2"/><path d="M9 15.8c.1 0 0 .1 0 .1-.1 0 0-.1 0-.1M8.9 15.8v0M9.9 13.9s-.1.1 0 0c-.1.1-.1 0 0 0M9.4 13.8v.1h-.1v-.1h.1M9.7 13.7c0 .1-.1.1 0 0-.1.1-.1 0 0 0M9.5 13.6v.1h-.1c0 .1 0-.1.1-.1M9.6 13.4h.1v.2-.1h-.1c0 .1 0 0-.1 0l.1-.1c-.1 0 0 0 0 0M9.4 13.3c.1 0 0 .1 0 0 0 .1 0 .1 0 0 0 .1-.1.1 0 0M9.7 13.2c.1.1 0 .1 0 .2 0-.1-.1-.2 0-.2 0 0-.1 0 0 0M10.1 12.6h.1c0 .1-.1.1-.1 0 0 .1 0 .1 0 0-.1.1 0 0 0 0M9.3 12.5v.4c-.1 0 0 .2 0 .3v.7h-.2c0-.1 0 0 0 0v-.3h.1c0-.1 0 0 0 0v-.1c.1 0 0-.1 0-.1v-.1-.2-.1-.1-.1c0-.3.1-.2.1-.3M9.8 12.1c.1.1 0 .1 0 .3v.1l-.1.1v.2c-.1 0-.1.1-.1.1h.1v.1c-.2 0 .1 0 0 0H9.4v-.2c.1 0 0 0 0 0s.1-.1.1 0v-.1h.1v-.1-.1c-.1 0 0 0 0 0h.2v-.1h-.1v-.1h.1v-.2M10.1 12.1s.1.1 0 0c0 .1 0 .1 0 0-.1.1-.1.1 0 0 0 0-.2 0 0 0M9.8 12c.1.1 0 .1 0 0 0 .1 0 0 0 0M9.9 11.9s0 .1 0 0c0 .1 0 .1 0 0 0 .1 0 .1 0 0-.1.1-.1.1 0 0M10.3 11.8c.1 0 0 .1 0 0 .1.1 0 .1 0 0 0 .1 0 .1 0 0 0 .1 0 .1 0 0M10.4 11.6v.2c-.1 0-.1-.2 0-.2M10.4 11.3c.1 0 0 .1 0 0-.1.2 0 .1 0 0M9.9 11.1c.1.1.1.1 0 0 .1.1 0 .1 0 0v.1s-.1 0-.1.1v.1h.1l.1-.1v-.1h.1v-.1h.2l-.1.1c0 .1.1.1 0 .1-.1.1 0 .1-.1.1v.2H10h-.1c-.4.1.5 0 0 0v.2c-.1 0-.1-.1-.1-.1-.1 0 0 .1-.1 0v.1h-.1v-.1-.3h0v-.2h.1V11h.1l.1.1M10.3 10.9s.1 0 0 0c.1 0 .1.1.1.1h-.1c-.1.1-.1-.1 0-.1M10.4 10.7c.1.1 0 .1 0 0 0 .1 0 0 0 0M9.6 10.7v.5h-.1c-.1 0 0 0 0 0v.3h-.1v.1c0-.1 0 0 0 0 0 .1 0 0 0 0 0 .1 0 0 0 0v.4h.1s.1 0 0 .1c-.1 0-.1.2-.1.3h-.1v-.1s.1-.1 0-.1c0 0-.1 0 0-.1h.1v-.2c0-.1 0 0 0 0v-.3s.1 0 0-.1h-.1s.1-.1 0-.1h-.1v-.1h.1v-.1s-.1-.1 0-.1v-.3.1c0-.1-.1-.1 0-.2.1.1.3 0 .3 0M10.3 10.6c.1.1 0 .1 0 0 .1.1.1.1 0 .1v-.1c0 .1 0 .1 0 0 0 .1-.1 0 0 0"/><path d="M9.9 10.6c0 .1 0 .1 0 0 .1.1.1.1.2.1v.2c-.2.5.1-.5 0 0H10v.1h-.1v-.2h-.2v0h.1v-.1l.1-.1M9.6 10.6c0 .1 0 .1 0 0 0 .1 0 0 0 0M10.5 10.5c0 .1-.1.1 0 0-.1.1-.1 0 0 0M9.6 10.2c0 .1 0 .1 0 0 .1-.1.1.1.1.1 0 .1 0 0 0 0v.1s-.1.1-.1 0c0 0 .1.1 0 .1s.1 0 0 0h-.1s-.1 0 0-.1h.1c0-.1-.1-.1 0-.1 0 .1-.1 0 0-.1-.1 0 0 0 0 0M10.6 9.4c-.1.1 0 .1 0 .2h.1s0-.1.1-.1c-.1-.1-.2-.1-.2-.1"/><path d="M10.8 9.2v.2s-.1.2 0 .1h.1v-.1-.1c.1-.1-.1 0 0 0 0 0 0-.1-.1-.1.1 0 .1 0 0 0M10.1 9.2v.1c-.1 0 0-.1-.1-.1h.1M10.1 9c.1 0 .1.1 0 0 0 .1 0 0 0 0M10.7 8.5c-.1.1-.1.1-.1.2s0 .1-.1.1v.1s-.1.1 0 .1v.1c.1 0 0 0 0 0h.1l.1-.1v-.2h.1v-.1-.1h.1v-.1h-.2M11 7.6c-.1 0-.1.1 0 0-.1.1-.2.3-.1.2l.1-.2c0 .1.1 0 0 0M13 1c.1.1.1 0 0 0M12.9.7c0 .1 0 0 0 0M11.9.6c.1-.1 0 .1 0 .1-.1 0 0-.2 0-.1M12 .4c.1 0 0 0 0 .1 0 0-.1-.1 0-.1M12.1.3c.1 0 0 .1 0 .1-.1.1 0-.1 0-.1"/><path d="M12.5.1h.1v.1s.1-.1.1 0 0 .1-.1.1v.1h.2v.1h.1v.1h.1v.1l.1.1v.1H13h.1c.1 0-.1 0 0 0h.1V1c0 .1 0 0 0 0V1.3h.1v.2h.1v.4s-.1.1 0 .1v1.3h-.1V5.6s.1 0 .1.1h-.1V6c-.1 0 0 0 0 .1V7c.3.2-.3-.1 0 0h-.1v.2c-.1 0 0 0 0 0v1.3h-.1c-1.1.5-1.1.6-1.2.6v.2l.1.1v.5h-.1v.1h-.1V11.9c-.1 0 0-.1 0 0v.2c0 .1 0 0 0 0 0 .1 0 0 0 0v.5h-.1c0 .1 0 0 .1.1v.1c0 .1 0 0 0 0-.1 0 0 .1 0 .1l-.1.1c0 .1 0 0 0 0v.2l-.1.1c-.1 0 0 0 0 0h-.1v.2l-.1.1h-.1l.1.2v.7h-.1V14.8c-.1.1 0-.1 0 0v.1c.1 0 .1.1.1.2h-.1v.1h-.1l.1.1c-.1 0 0 .1-.1.2h-.1v.5H11v.7h-.1v.1h.1v.1h-.1v.4h-.1c0-.1.1 0 0 0s0 0 0-.1c0 0-.1 0 0 0h-.1v-.1V16.8s0-.1 0 0v-.1h-.8v-.2h.1v-.2s0-.1 0 0c.1-.1-.1 0 0 0v-.1c0 .1 0 0 0 0h.1v-.1-.2-.2-.1-.1h.1c0-.1 0 0 0 0v-.3-.2-.1c0-.1 0 0 0 0v-.2-.2s-.1-.1-.1-.2h.1v-.1-.2c.1 0 0 0 0-.1 0 .1 0 0 0 0v-.4-.1s-.1 0-.1-.1h.1V13v-.2c-.2 0 .1 0 0 0h-.1V12h.2c.4-.1-.4 0 0 0v-.1-.2-.1h.1v-.2-.3-.2-.1-.1-.2h.1c0-.1-.1-.1 0-.1v-.1h-.1v-.1h.1v-.1-.4h-.2v.4s-.1.2 0 .2h-.1l-.1-.1v-.1c0-.1 0 0 0 0 .1 0-.1 0 0-.1v-.1-.3h-.2v.2h-.1v.4h-.1v0c-.1 0 0 0 0-.1h.1c-.1.1-.1-.1 0-.1v-.1-.1c-.4 0 .3-.1 0 0h.2v.2s.1-.1 0-.1h.1v-.1s0 .1-.1.1h-.1v-.1h-.1v-.1-.1h.1v-.2h.1v-.1h.1V9c-1.4-.7 1.3.7 0 0h-.2v-.1h.1v-.2-.2c-.1 0-.1-.1-.2 0v.1h-.1v.1s.1 0 0 0v.1h-.1v.1c0-.1 0 0 0 0v.7c-.1 0 0 .3-.1.3h-.1v.1h-.1c0-.1-.1-.1 0-.1h.1v-.1h.1v-.1h0c-.1-.1.1 0 0 0v-.2h.1v-.1-.1V9v-.1c.1 0 0 .1 0 0 0 0-.1 0 0 0v-.1-.4-.2V8h.3V7.7v-.4-.1V7h.1c0-.1 0 0 0 0 .1 0 0 0 0 0v-.1-.2-.1-.2V6v-.2-.1-.2-.1h.1v-.2-.4-.1h.1v-.3-.2V4v-.1-.6-.2-.3-.2-.2-.1-.1V2v-.1h.1s0-.1.1-.2h.1l.1-.1h.2v-.2h.1v-.1H11.2l.1-.1v-.1h.1V1h.1V.9h.2V.8h-.1-.1V.7h0V.5h-.1V.2c0-.1 0 0 0 0V.1h1.1"/></g><g fill="#00489B"><path d="M14.3 7.6s.1.1 0 0c0 .1 0 .1 0 0 0 .1 0 0 0 0M17 10.6s0 .1 0 0c0 .1 0 .1 0 0M17.7 10.4c0 .1 0 .1 0 0M17.5 10.3c.1 0 .1 0 0 0M17.7 10c0 .1 0 .1 0 0M17.7 9.3c.1.1.1 0 0 0M13.5 8.1c0 .1 0 .1 0 0 0 .1.1 0 0 0M17 7.4c.1 0 .1 0 0 0M16.7 7.2v.1c.1 0 .1-.1 0-.1"/><path d="M16.1 7.1h.4c.2 0-.1 0 0 0h.1c.2-.1-.3 0 0 0H17.2v.1h.4c.1 0 .1.1.2.1h.1l-.1.1h-.1v.2h.1V8c0 .1 0 0-.1 0v.1c.1 0 .1 0 .1.1v.2c.1 0 0 .1.1.2h.1v.1h.1c.1.1-.1 0 0 .1h.1v.1c-.1 0 0 0 0 0s-.1 0 0 0V9.2l.1.1v.1s0 .1 0 0v.7h-.1V10.4l-.1.1c-.1 0-.1-.1-.2 0v.1c-.1 0 0 0 0 0h-.1v.1c-.1 0 0-.1 0 0h-.5v.1H17l-.3.2h-.2s0-.1-.1-.1v.2c-.1 0 0 0 0 0h-.2V11v.1H15.9h-.2V11h-.3v-.1h-.3c-.1 0-.1.1-.2.1l-.1-.1h-.4v-.1h-.7l-.1-.1h-.1l-.1-.1h-.1v-.1h-.1l-.1-.1H13v-.1h-.1v-.1h.1v-.1l-.1-.1v-.1h-.2-.1-.1v.1h-.1-.1-.2v-.1h.1-.2v-.2V9.4l-.1-.1v-.2h.1c0-.1 0-.1.1-.1h.1v-.1h.2v-.2h.1v-.1h.1v-.2h.1v-.1h-.1v-.2-.2l-.1-.1s.1 0 0-.1v-.1l.1-.1H14v.1H14.3c0-.1-.1 0 0 0v-.1h.1v-.1h.1c0-.1 0 0 0 0h.2c.1 0 .1.1.2 0v-.1h.1v-.1h.5c.2 0 .4 0 .6-.1.1 0-.2 0 0 0"/></g><g stroke="#FFF" stroke-width=".196"><path d="M3.1 18.2H2v-3.4H.6v-.9h3.9v.9H3.1v3.4zM17.6 14.8h-2v.8h1.9v.9h-1.9v.9h2v.9h-3.2V14h3.2v.8zM19.2 13.9v4.3H18v-4.3h1.2zM9.9 13.9v4.3H8.7v-4.3h1.2zM11.7 18.2h-1.1v-4.3h1.9c.6 0 1 .1 1.2.3.3.2.5.6.5 1.1 0 .6-.2 1-.6 1.2-.3.1-.6.2-1.2.2h-.6v1.5zm.3-2.3c.7 0 .9-.1.9-.6 0-.4-.2-.5-.8-.5h-.4v1.1h.3zM4.9 17.4l-.3.8H3.4l1.9-4.3h1.4l1.9 4.3H7.3l-.3-.8H4.9zm1-2.5l-.7 1.7h1.4l-.7-1.7z"/></g></svg>